<svg xmlns="http://www.w3.org/2000/svg" viewBox="0 0 24 24" width="24" height="24"><defs><style>.cls-2{fill:#fc6d26}</style></defs><g id="LOGO"><path d="m17.863 10.783-.017-.044-1.651-4.309a.43.43 0 0 0-.17-.205.442.442 0 0 0-.505.027.442.442 0 0 0-.147.222l-1.115 3.411H9.744L8.629 6.474a.433.433 0 0 0-.147-.223.442.442 0 0 0-.505-.027.434.434 0 0 0-.17.205l-1.653 4.308-.016.044a3.066 3.066 0 0 0 1.017 3.543l.006.004.015.011 2.515 1.883 1.244.942.758.572a.51.51 0 0 0 .616 0l.758-.572 1.244-.942 2.53-1.895.006-.005a3.067 3.067 0 0 0 1.016-3.539Z" style="fill:#e24329"/><path class="cls-2" d="m17.863 10.783-.017-.044a5.577 5.577 0 0 0-2.22.998L12 14.479l2.31 1.746 2.53-1.895.006-.005a3.067 3.067 0 0 0 1.017-3.542Z"/><path d="m9.69 16.225 1.244.942.758.572a.51.51 0 0 0 .616 0l.758-.572 1.244-.942s-1.075-.814-2.31-1.746c-1.235.932-2.31 1.746-2.31 1.746Z" style="fill:#fca326"/><path class="cls-2" d="M8.373 11.737a5.57 5.57 0 0 0-2.219-1l-.016.044a3.066 3.066 0 0 0 1.017 3.543l.006.004.015.011 2.515 1.883L12 14.476Z"/></g></svg>
