<svg xmlns="http://www.w3.org/2000/svg" viewBox="0 0 24 24" fill="none" width="24" height="24"><path style="display:inline;fill:#629fbc;fill-opacity:1;paint-order:fill markers stroke" d="M0 3c0-3 0-3 3-3h18c3 0 3 0 3 3v18c0 3 0 3-3 3H3c-3 0-3 0-3-6"/><path fill-rule="evenodd" clip-rule="evenodd" d="m3.936 9.681.144.217c-.289-.009-.593-.037-.651-.162l.004-.019c.162-.043.301-.045.503-.037zm1.541.66.07.214-.163.007.039-.219.055-.002zm.558 1.564c-.145.134-.257.224-.343.426-.12-.098-.182-.294-.22-.513-.042-.238-.056-.503-.088-.701a3.45 3.45 0 0 0 .01-.101l.168-.012.428.814.045.086zm-.217-2.007.056-.366a3.175 3.175 0 0 0 .011-.073l.055-.003a80.489 80.489 0 0 0-.121.442zm-.117-1.991.768.21-.003.035c-.358.264-.688.382-.865.862l.067-1.069.033-.037zm.717-1.106c-.05.497.02.717.106 1.025.137.098.191.157.146.302-.231-.115-.474-.235-.827-.216a3.45 3.45 0 0 1-.026-.029c.1-.392.292-.633.441-.944l.159-.138zm1.103-.661.033-.002c-.106.367-.148 1.213-.334 1.548-.437-.208-.429-1.111.061-1.467l.239-.079zm-.408 2.716.369.402c-.144.448-.419.785-.534 1.303l-.218-.016c-.186-.522.28-1.373.359-1.753l.341.04.125.322a425.963 425.963 0 0 0-.441-.297zm1.008-2.719c-.037.434.058.659.084.996l-.651.331c.055-.554.166-.919.318-1.309l.249-.019zm.253-.66.048-.003a12.592 12.592 0 0 1-.073.212l-.144.009.111-.131.058-.087zm.048 2.027-.651.403c.013-.244.322-.572.581-.664l.059.033.012.228zm.434-1.524-.117.673-.122.077-.064.072c-.118-.167-.147-.575-.122-.885l.426.063zm.434-.505-.003.022a60.293 60.293 0 0 0-.166.16c-.111.043-.124.041-.265.036l.059-.219.375.001zm.434-.885-.194.442-.675-.049.003-.036c.277-.129.52-.281.865-.358zm-.351 1.148.072-.042.062.221-.217-.043.083-.136zm.568.655c-.259.101-.616.073-.823.188l-.046-.266.135-.177.657.259.077-.005zm-.555.398-.295.011c-.007-.031-.012-.062-.018-.094.207-.085.556-.093.869-.128l-.33.182-.226.027zm.772 0c-.249.062-.487.282-.65.454-.032-.2.351-.553.535-.664.081.073.09.065.115.21zm.434-2.643-.003.035a426.184 426.184 0 0 0-.261.158l-.387.028a.374.374 0 0 0 .004-.035l.648-.186zm-.351.664-.083-.124c.196-.166.628-.074.869-.05l-.786.174zm1.943-.651c.363.03.695.116.947.274l.067-.004-.04.057-.347.103-.626-.09-1.375-.198.003-.027a4.562 4.562 0 0 1 1.371-.115zm1.445-.117-.077.105a1.048 1.048 0 0 1-.571-.221l.651.083-.003.033zm1.157.818.18-.069.187.162c-.025.184-.202.335-.338.514l-.104.006c-.283-.471-.641-.987-1.268-1.168l-.027-.056.253-.103c.426.149.781.376 1.176.507.051.124.035.082-.059.207zm.524 1.048-.049-.049-.108.008a33.518 33.518 0 0 1 .18-.172l-.023.213zm.191 2.441c.294.256.369.625.247 1.106l-.378-.855.124-.19.008-.061zm.086-1.988a.569.569 0 0 1-.004.041l-.154.178-.059-.118c.092-.167.026-.077.147-.095l.07-.006zm.181-.003.688.256-.006.069-.174.117-.689-.256.006-.069a37.599 37.599 0 0 1 .174-.117zm1.34.885a158.548 158.548 0 0 0-.381-.255l-.053-.103c.165-.102.142-.097.317-.063l.118.421zm.217-.084-.076.084c-.093-.048-.109-.109-.141-.221l.199.087.018.05zm-.162-.633a1.017 1.017 0 0 0-.055.004 26.967 26.967 0 0 1 .181-.172l-.126.168zm1.031 1.113a8.57 8.57 0 0 1-.106.046 199.533 199.533 0 0 1-.581-.328 116.677 116.677 0 0 1-.181-.248c.301-.224.312.035.596.176l.273.353zm.217.195-.217-.079.131-.069.086.148zm-.264.357c.078.159.078.114.264.091a176.534 176.534 0 0 1-.334.289 356.082 356.082 0 0 0-.318-.61.49.49 0 0 1 .004-.038c.234-.05.31.035.539.069l.089.142-.244.057zm.047.397.434-.238c-.087.197-.2.298-.334.442a34.184 34.184 0 0 0-.1-.204zm.869.844c-.118.102-.194.135-.417.153l.179.02a.35.35 0 0 1-.004.032l-.612.261-.015-.789.422-.502a2.7 2.7 0 0 0 .077-.037l.37.861zm-.217-1.21c1.199-.336.967.303.432.791a458.505 458.505 0 0 1-.432-.791zm1.086.127c-.442 2.087-.527 2.2-2.089 3.097l-.082-.124.055-.233c1.019-.292 1.598-.828 1.538-2.043l.511-.659.068-.038zm.053 0a29.044 29.044 0 0 0-.053-.216l.163-.005-.109.221zm-2.659 2.029.015-.23.013-.198.151-.05.021-.002c.042.261 0 .454-.086.664-.073-.047-.087-.067-.114-.183zm-.869 1.935.003-.038.285-.685.06-.144.501.034a.893.893 0 0 1 .015.111c.022.26-.068.468-.16.74l-.705-.017zm.217.888.006-.342.008-.086.366.028.053-.004a112.388 112.388 0 0 0-.251.419l-.183-.014zm-.215-1.431.022-.012.174-.09.019-.002-.026.092-.101.351-.09-.312.002-.027zm-.339 1.101-.098-.098c.096.067.033.002.098.098zm-.532-.263c.122-.078.254-.054.434-.051l-.053.177c-.149.06-.17.038-.338.02a8.05 8.05 0 0 0-.043-.146zm.266.828.168.399-.39.265c-.116-.159.011-.608.222-.664zm-.428-1.388a1.096 1.096 0 0 0-.055.004l.071-.164a8.678 8.678 0 0 1-.017.16zm.625.061-.028-.018.095-.202.032-.001.09.212-.189.009zm1.504-2.876-.012-.075c.057-.07.094-.113.192-.146l.025.131-.126.085-.079.006zm-.012.54c-.039.052-.109.081-.158.123l-.059-1.106.217.983zm-.398 1.482c.144-.08.164-.006.181.189l-.434-.001.007-.068.246-.12zm-.213-.611.098-.084.079.143a2.75 2.75 0 0 1-.037.078l-.18-.021.04-.116zm-.04.587-.226.214a7.518 7.518 0 0 1-.147-.025 6.087 6.087 0 0 0-.06.006l.106-.203.329.007zm-.82-.126c-.09-.063-.025-.055-.042-.103l.042.103zm.685-.987-.734-.382c.034-.506.096-1.087.046-1.609.566.207 1.073 1.131.688 1.991zm-.517 0c.181.095.17.183.421.26.044.164-.023.229-.127.403l-.266-.011c-.055-.291.005-.459-.028-.653zm.05 1.43c-.091-.063-.026-.055-.043-.103l.043.103zm1.47-2.129.002-.041.196-.145c.035.226.021.603-.03.885-.116-.091-.137-.476-.168-.699zm0 .699a24.369 24.369 0 0 0 .131-.221 13.065 13.065 0 0 0-.076.217.947.947 0 0 1-.055.004zm1.266-.661.037-.002c.01.847-.51 1.001-1.194 1.32l-.109.007.426-.888.84-.438zm-1.287-1.655.021.066-.054.039a95.176 95.176 0 0 1-.163-.221l.196.116zm-.196.368.006-.039.048-.003.163.221c-.126-.061-.146-.075-.217-.179zm.217.565-.293.278-.629-.917-.815-.711.18-.141c.394.172 1.085.498 1.224.906.045.133-.11.242-.004.353.126.131.252.038.338.232zm-1.833 1.384.066.026.029.637-.102-.024c-.095-.071-.162-.4-.075-.543l.081-.097zm-.481 1.109.07-.003.072.173-.112.044-.105.004a26.133 26.133 0 0 0 .075-.218zm-.199 3.536-.094-.323.401-.117.033-.002-.003.03-.337.412zm-.311-.885c.039-.13.069-.149.14-.221l.06.023.017.057-.134.132-.084.009zm.102.221a46.167 46.167 0 0 0-.102-.113l.217-.108-.057.217-.058.004zm-.229 1.004-.09-.075.067-.004.335-.261.032.266-.257.176-.087-.102zm.017 2.533c-.523.022-.835-.111-1.262-.149l-.488-.971-.094-.097c.82-.098 1.336-.496 1.944-.771.215.205.703 1.253.273 1.717-.102.159-.218.174-.373.271zm-2.245-1.091.197-.013c.296.199.497.556.638.885a979.8 979.8 0 0 0-.869-.252c.064-.221.092-.446.034-.62zm-.624-.835.978-.284 1.539.151.028.078c-.458.207-.979.382-1.505.649-.569.046-.706-.168-1.101-.309l.061-.286zm-.061 1.042.02-.192.374-.028c.031.167.064.26.017.442l-.411-.223zm-.434.347.145-.081c.178-.119.313.04.506.102l-.077.076-.575-.097zm.422-.345a14.717 14.717 0 0 1-.141-.065l-.063-.157.217.014-.013.208zm-.639 0 .217.187c-.001.116-.01.103-.036.255l-.181-.442zm-.563-.829c.204-.062.476-.048.78-.055l-.284.221-.585-.058.088-.108zm-.523-11.085c.403-.387 1.415-.272 1.668-.026l.069-.006c-.338.316-.86.352-1.181.665-.251-.168-.459-.276-.557-.633zm2.218.633.171.195c-.152.009-.312.018-.471.032-.359.031-.714.085-.962.214l-.032.002-.054-.085c.304-.155.636-.28 1.049-.333a3.264 3.264 0 0 1 .269-.023l.032-.002zm.846-1.106c.281.283.7.451.845.885-.59-.275-1.495-.271-1.954-.709.405.087.749.055 1.11-.176zm.193 1.548.806.111.063-.005-.646.558c-.101-.205-.126-.483-.223-.664zm1.035.946-.166-.025.217-.036-.051.061zm-.166-.529.199-.196.018.221-.144-.032-.073.007zm.394 7.321-.095.004-.082-.077.063-.084a44.657 44.657 0 0 1 .154-.06l-.04.217zm-.173.403.08-.092.007-.086.126.202-.217.019.004-.043zm-.086.706-.135-.162.434-.059-.207.215-.092.006zm.082.664-.434-.053.306-.169.128.221zm-.305-.624.087.084-.314.081-.337.017a339.383 339.383 0 0 1 .47-.221l.094.039zm-1.215-9.551c.254.007.522.072.651.221-.175-.017-.489.011-.569-.125a7.15 7.15 0 0 0-.083-.097zm.221.885c.124.109.167.237.145.442-.191-.066-.141-.277-.145-.442zm.214 1.394a.506.506 0 0 1 .007-.038c.433-.094.526.056.329.192-.17-.023-.248-.088-.336-.154zm.556 5.684.095.024-.003.03-.214.167.089-.219.033-.002zm-.12-5.395.162-.135.053.221-.217-.048a.51.51 0 0 0 .002-.038zm.649 5.915-.525.137-.127.006.003-.022a.927.927 0 0 0 .439-.199l.184.035.025.043zm-.374-.52-.06-.123.15-.099.068.037-.086.178-.072.006zm-1.363 1.53.258-.202.8.069.027.06-.54.314a.802.802 0 0 1-.478-.245l-.068.005zm-.402.019.402.221-.651-.115.249-.106zm-.032.452-.003.054-.124.069-.091.011.003-.053c.095-.127.079-.084.214-.081zm-1.023-9.004-.062-.066c.215-.118.556-.174.891-.202.276-.022.547-.026.741-.03l.105.664c-.283-.031-.555-.068-.847-.082a4.307 4.307 0 0 0-.757.028 33.144 33.144 0 0 0-.071-.312zm.319 8.876.053.093-.051.199-.6.046c.064-.198.16-.292.263-.442l.335.104zm-.74-.768c-.273-.015-.647-.216-.727-.442l.869.222-.142.22zm.305-.012-.163.012.006-.052.18-.169-.023.209zm-.597-8.089.264-.084.17.214-.178.007-.256-.138zm-.003 9.497-.041.145a1.348 1.348 0 0 0-.063.007 15.15 15.15 0 0 0-.11-.221l.217.022c-.001.016-.003.031-.003.047zm.121-.954.506.103.028.069-.394.492-.475-.07.335-.593zm3.791-6.932.098-.145.036-.002.272.069.028.039-.305.113-.129-.075zm.587-.715a43.891 43.891 0 0 0-.153-.095c.156.058.066-.007.153.095zm-.049 1.011a16.808 16.808 0 0 1-.104-.089l.217-.132a46.721 46.721 0 0 0-.113.221zm-.104 1.548.338.084c.091.036.089.045.097.137-.145-.056-.388-.094-.434-.221zm.033-.603.047-.061.137.221-.217-.042.033-.118zm-4.398 7.278.023.058-.293.112-.142.011.003-.03.1-.157c.139-.064.142-.022.309.005zM9.944 5.252c.19.141.238.316.209.885-.125-.161-.2-.501-.209-.885zm.125-.442a37.275 37.275 0 0 0-.017.16l-.109.008.125-.168zm-.125.221-.016.16a14.157 14.157 0 0 0-.201-.037l.165-.119.052-.004zm0 12.829.107-1.126.761-.201-.8 1.287-.068.04zm.054-3.027.117-.07c.107.127.011.31-.089.442-.084-.079-.093-.128-.071-.307l.043-.065zm-.705-.108.25-.404.401.237-.414.648c-.125-.111-.201-.275-.237-.481zm0 1.732.4-.367.19.017.062.103-.048.322-.604-.076zm-.651-.3.478-.288.364.058.027.05a336.566 336.566 0 0 0-.383.335c-.191-.02-.318-.071-.418-.158l-.068.004zm-.063-.427c.058-.027.117-.054.174-.082l.075.016.031.036-.506.169a24.175 24.175 0 0 0-.146-.051l.371-.088zm-.588-.208.128-.311c.238-.031.294.087.472.161l.052.079-.266.183-.216.014a25.065 25.065 0 0 0-.17-.126zm-.434.908.316-.56c.21 0 .235.017.322.129.038.065.005.03-.079.044l-.019.193.329.051c-.064.161-.075.14-.173.243-.323.018-.47-.045-.696-.1zm-.366-.782.552.167.031.066a73.62 73.62 0 0 1-.355.43l-.514-.169.286-.494zm-2.127-.598.007-.066.308.239.027.063c-.641.497.339 2.117 1.454 1.068l.48.193c-.185.331-.501.461-.835.647-.798.067-1.914-1.241-1.441-2.144zm.744.227.012.15-.177-.134-.04-.087.205.071zm1.098.939a166.668 166.668 0 0 1-.397.308c-.781.083-1.097-.461-1.123-1.128l.152-.185.067-.005c.393.311.741.786 1.275.943l.026.067zm-.757-3.223c-.071-.052-.076-.077-.112-.165l.149-.567.174-.153.112.164-.322.72zm-.112.191.343-.814.07-.041c.158.28.386.406.455.786l-.516.541a1.053 1.053 0 0 1-.353-.472zm.651.676.436-.425.216.442-.651-.017zm1.086-4.47c-.206.442-.479.742-.644 1.169-.071-.388.36-.946.499-1.289l.066-.038.078.158zm0-1.217c.323-.101.539-.285.771-.49l.098.296-.274.368-.595-.173zm1.086.022-.118.151-.1-.017.002-.024.197-.18.017.07zm-.171-.953a.388.388 0 0 1 .034-.002l.137.29-.052.153c-.198-.104-.19-.228-.119-.44zm-.04 6.413.2.144a18.482 18.482 0 0 0-.206-.091l.006-.054zm-.003.221.215.094a.847.847 0 0 0-.003.027l-.46.322c-.133-.059-.149-.178-.188-.309l.003-.027.433-.107zm-.643-.442.206.083-.11.065-.107.012.011-.16zM7.992 9.01c.261.074.178.025.19.221-.12-.07-.128-.104-.19-.221zm0 3.951.018-.191a.566.566 0 0 1 .199.221l-.217-.03zm.434-2.762c-.081.106-.078.076-.217.138l.095-.221.122.083zm0-.889-.136.143c-.137-.078-.072-.047-.011-.19l.082-.031.065.078zm-.017-.376-.2-.144c.154.059.118.023.2.144zm-.417 4.059.217.174c-.111-.003-.17-.027-.217-.174zm.651-.008-.088.008-.076-.141-.053-.069.118-.011.1.213zm-.12-4.096-.097-.099c.096.067.032.002.097.099zm.014 3.643-.111-.232.047-.19.027-.002.143.442-.106-.019zm-.569 2.574.024.03-.078.291a.595.595 0 0 1-.356-.442l.41.121zm-.628.321.217.194c-.139-.061-.147-.059-.217-.194zm.375-1.961.026.191a35.87 35.87 0 0 0-.184-.221l.158.03zM7.5 14.5a139.843 139.843 0 0 1-.16-.401c.19.074.338.292.434.442l-.274-.042zm.171-3.938.054-.002-.159.221c-.026-.055.005-.107.094-.171l.011-.048zm-.114 1.901-.044.088-.125-.097-.049-.105.17-.019.047.133zm-1.52 1.857c.435.285 1.174.548 1.303 1.106a3.617 3.617 0 0 1-1.303-1.106zm1.128-.214.174.214-.434-.221.26.008zm1.59.656-.33-.333.577-.551.074.607-.322.278zm.322.37.058-.144a6.384 6.384 0 0 1 .077-.004l.083.221-.217-.073zm.293-.812-.076-.221.157.029-.082.192zm-.293-7.448.002-.019.215-.053-.15.221-.067-.149zm-2.189 4.573-.199-.442c.255.056.214.239.199.442zm-.532.221c-.185-.13-.304-.387-.319-.664.381.091.36.241.434.591l-.116.073zm-.224-1.154c-.277-.263.127-1.316.304-1.558.093-.119.212-.117.367-.163l.103.027c-.261.464-.437 1.096-.5 1.743l-.275-.048zm-.405 3.587.133.224-.119.278-.068.073c.097.014.119-.07.265-.189.281.459.712.897 1.186 1.147l-.259.458-.784-.508c-.09-.167.034-.359-.11-.461-.13-.093-.299.041-.432.001l-.369-.34c.108-.243.212-.481.427-.606l.131-.078zm-.751-2.439a5.61 5.61 0 0 1 .127-.655l.03-.003.113.658.059.344.515 1.432c-.412-.227-.668-.75-.631-1.455-.099.227-.017.585.016.785-.254-.216-.286-.645-.23-1.105zm-.376.227a.812.812 0 0 1-.074-.266 1.73 1.73 0 0 1 .004-.372l.037-.079a62.68 62.68 0 0 0 .168-.167l-.095.618-.041.266zm15.118 2.212-.434-.168.422-.053.013.221zm-11.491 3.6a6.32 6.32 0 0 1 .114-.061l-.131.221.017-.16zM4.949 10.12l-.185-.018c-.23-.075-.447-.345-.466-.645.353.032.472.2.646.404l.005.259zm-.026-.018c.025-.477-.338-.775-.808-.762.081-.671.661-1.014 1.178-1.239l.099-.007c-.087.842-.021 1.567-.334 2.295-.231.537-1.051.527-1.006 1.354l.005.07c.117 1.101 1.308 1.324 1.473 2.292-1.766.902.387 4.695 1.783 2.467.25.036.473.15.784.04.145-.08.173-.146.229-.313l.499.259.026.064c-.458.356-.78.845-1.271 1.18a5.35 5.35 0 0 1 .047-.135 5.814 5.814 0 0 0-.129-.023 2.406 2.406 0 0 1-.07.038l-.064.301c.28.287 1.131-.753 1.38-.958-.141.495-.489.749-.682 1.202l.059.062c.367-.264.816-1.011.885-1.579l.549.091c-.689.936-2.457 2.993-3.386 3.541.141-.446.367-.787.48-1.154l-.066.005-.06-.061c-.226.448-.599.762-.666 1.365.047.074.098.113.148.153 1.106-.185 2.951-2.977 3.834-3.739-.239 2.408-1.523 2.784-2.637 4.243 1.012-.507 1.626-1.802 2.493-2.521-.096 1.007-.334 3.256-.934 3.656l.099-.007c.672-.42.711-2.147.935-3.031l.095-.928.96-1.355.07-.038c.107.339.594.706 1.12.608l.377-.159.949.357c.124 1.371.077 2.14-.787 3.184.883-.453 1.207-2.2.913-3.127 2.053.239 1.97-.457 1.581-1.96l.361.006c-.066-.101-.246-.026-.384-.103-.062-.04-.05-.033-.089-.092.488-.553 1.663-.004 1.417.915.337-.762-.409-1.438-1.128-1.166.307-.366.679-.666.874-1.151l.07-.038 1.689 1.783.099-.007.076-.104-1.61-1.92a31.57 31.57 0 0 1 .173-.079.348.348 0 0 1 .298-.104l-.086-.043c.863.087 1.965.81 2.865.577.083-.145.087-.224.037-.365.959.024 2.684-.298 3.233-.766-1.475.312-3.137.417-4.492.235l-1.201-.141-.067.005.323-.583c.99-.018 3.585-.043 4.109-.667a34.176 34.176 0 0 1-.115-.156l-.453-.065c-.039.058-.044.113-.051.169l.358.039c-.778.197-2.944.612-3.651.37-.074-.091-.019-.406-.016-.633a.774.774 0 0 0-.005-.122c1.016-.305 1.771-.992 2.081-2.03.177-.593.06-1.374.442-1.744.244.021.293.125.473.195-.095-.133-.23-.206-.4-.266l-.318.221c-.291.113-.596-.183-1.089.048-.401-.344-.627-.889-1.168-1.098l-.056-.095.657-.641c-.216.181-.435.394-.654.608a142.466 142.466 0 0 0-.44-.197l-.026-.064c.501-.357.946-.489 1.517-.376l.082.158c-.027.046-.05.058-.073.071l-.192-.052a.72.72 0 0 0 .255.08l.072-.071.011-.1c-.125-.112-.163-.192-.407-.2l.117-.173c-.28.193-.848.245-1.127.413l.644-.509a3.99 3.99 0 0 1 .077-.104l-1.19.713c-.254-.018-.524-.137-.661-.28l-.066.005 1.413-.96-.023-.097a2345.756 2345.756 0 0 0-1.608.942 95.91 95.91 0 0 1-.513-.127l.047-.464 3.682-2.905.066-.005-.053-.128c-.137-.066-.697.391-.909.528-.815.526-1.536 1.18-2.338 1.654.331-.423.937-.843 1.037-1.459l-.162-.021-.252.216.275-.119c-.178.541-.982 1.51-1.435 1.817l-.053-.128c.295-.499.586-1.17.449-1.81l-.248-.146-.265.02c.17.068.285.084.41.167.08.621-.224 1.04-.388 1.542l-.07.038c-.109-.203-.102-.301-.327-.338l-.019-.13.153-.209.106-.074c.036.068.037.044.049.161.039-.058.044-.113.05-.168a4.733 4.733 0 0 0-.125-.056l-.332.354c-.278-.187-.582-.382-.972-.454.22-.461.892-1.201.545-1.784-.423-.709-1.867.108-2.395.671a1.025 1.025 0 0 0-.159.21 4.867 4.867 0 0 1 .159-.124c.522-.391 1.912-1.327 2.213-.579.316.418-.289 1.221-.454 1.547-.563-.057-1.152-.112-1.757-.099a6.326 6.326 0 0 0-1.877.303c-.308.102-1.617.89-1.667.881l-.598-.581-1.249-.631a1.477 1.477 0 0 0-.007.066l-.073.071 1.601 1.362-.245.15c-.658-.502-1.112-.806-2.092-1.062l-.165.012c.572.396 1.149.759 1.724 1.122l.115.156c-.411.174-.585.536-.933.76-.543-.261-1.045-.496-1.702-.696l-.046.135 1.232.797.066-.005-.212.147c-.099.332-.291.717-.451 1.185-.614.502-1.41.472-1.533 1.496-.196.054-.335.071-.513.203l-.014.133c.112.158 1.11.582 1.348.624l.146-.142zm7.285-7.077.091.017-.122-.015-.062.003c.096-.18.379-.225.651-.205l-.019.129-.532.027a4.545 4.545 0 0 1-.006.043zm.38.238.256-.085c.111-.185.174-.381.117-.56-.263-.052-.415.012-.662.116a43.226 43.226 0 0 0-.134.221l-.052.085a.498.498 0 0 0 .052.051c.083.069.184.093.369.078.05.087-.008.048-.1.073l.153.02zm6.315 1.991-.275.052.169-.012.193.084-.293.54c.151-.179.301-.306.365-.578l-.159-.086zm-1.578 8.627c-.069-.122-.143-.202-.217-.221.066.062.142.136.217.221zm-.869 2.654a32.492 32.492 0 0 1-.217.127l.167-.016.05-.111zm.869-2.654c.221.251.386.73.339 1.106.25-.544-.035-.884-.339-1.106z" fill="#fff" style="display:inline"/></svg>
