<svg xmlns="http://www.w3.org/2000/svg" viewBox="0 0 24 24" width="24" height="24"><path fill="#00B0EA" d="M11.896 1.439a10.46 10.46 0 0 0-4.16.859L5.434 0h-.005A10.513 10.513 0 0 0 0 5.46l2.305 2.303-.002.002a10.358 10.358 0 0 0-.888 4.154c0 5.79 4.691 10.48 10.48 10.48 5.786 0 10.479-4.692 10.479-10.48 0-5.787-4.692-10.48-10.479-10.48"/><path fill="#15374C" d="M10.828 16.272a10.518 10.518 0 0 1 5.429-5.461h.002L7.737 2.303l-.004-.001a10.51 10.51 0 0 0-5.429 5.462l8.524 8.508zm6.039-2.554a6.122 6.122 0 0 0-3.154 3.172l3.979.823-.826-3.994z"/><path fill="#FFF" d="m16.867 13.719-.609-2.907-.003.001a10.522 10.522 0 0 0-5.428 5.46l2.886.616a6.143 6.143 0 0 1 3.154-3.17"/></svg>
