<svg viewBox="0 0 24 24" preserveAspectRatio="xMidYMid" class="style-scope yt-icon" style="display:block" width="24" height="24" xmlns="http://www.w3.org/2000/svg"><g class="style-scope yt-icon"><g class="style-scope yt-icon"><path d="M7.494 10.158a.959.959 0 0 0-.677-.677c-.597-.16-2.99-.16-2.99-.16s-2.394 0-2.99.16a.959.959 0 0 0-.677.677C0 10.754 0 12 0 12s0 1.246.16 1.842a.959.959 0 0 0 .677.677c.597.16 2.99.16 2.99.16s2.394 0 2.99-.16a.959.959 0 0 0 .677-.677c.16-.596.16-1.842.16-1.842s-.001-1.246-.16-1.842z" fill="red" class="style-scope yt-icon"/><path d="M3.061 13.148 5.049 12 3.06 10.852z" fill="#fff" class="style-scope yt-icon"/></g><g class="style-scope yt-icon"><g class="style-scope yt-icon"><path d="m9.27 12.805-.859-3.104h.75l.301 1.407c.077.347.133.642.17.887h.022c.025-.175.082-.469.17-.882l.312-1.412h.75l-.87 3.103v1.489h-.747v-1.489zm1.84 1.39a.837.837 0 0 1-.323-.476c-.063-.216-.096-.502-.096-.859v-.487c0-.361.036-.652.11-.87.073-.219.187-.379.342-.479.155-.1.358-.151.611-.151.248 0 .447.051.597.153.15.102.259.262.328.479.07.218.104.507.104.868v.487c0 .358-.034.645-.102.862-.067.217-.177.376-.328.476-.151.1-.357.151-.616.151-.267.001-.476-.051-.627-.153zm.848-.526c.042-.11.063-.288.063-.536v-1.045c0-.241-.021-.417-.063-.528-.042-.112-.116-.167-.222-.167-.102 0-.174.055-.216.167-.042.112-.063.287-.063.528v1.045c0 .248.02.427.06.536.04.11.113.164.219.164s.18-.055.222-.165zm3.263.624h-.591l-.065-.411h-.016c-.161.31-.402.465-.723.465-.222 0-.387-.073-.493-.219-.106-.146-.159-.374-.159-.684v-2.507h.755V13.4c0 .15.016.256.049.32a.171.171 0 0 0 .164.096.33.33 0 0 0 .189-.061.372.372 0 0 0 .134-.153v-2.666h.755z" class="style-scope yt-icon"/><path d="M17.272 10.309h-.75v3.985h-.739v-3.985h-.75v-.608h2.239z" class="style-scope yt-icon"/><path d="M19.095 14.294h-.591l-.066-.411h-.016c-.161.31-.402.465-.723.465-.222 0-.387-.073-.493-.219-.106-.146-.159-.374-.159-.684v-2.507h.755v2.463c0 .15.016.256.049.32a.172.172 0 0 0 .164.096c.065 0 .129-.02.189-.061a.372.372 0 0 0 .134-.153v-2.666h.755zm2.5-2.819c-.046-.212-.12-.365-.222-.46-.102-.095-.242-.143-.421-.143a.697.697 0 0 0-.389.118.79.79 0 0 0-.279.309h-.006V9.531h-.728v4.762h.624l.077-.317h.016a.646.646 0 0 0 .263.268.775.775 0 0 0 .389.098.596.596 0 0 0 .564-.353c.121-.236.181-.603.181-1.103v-.531c0-.375-.023-.669-.069-.881zm-.692 1.369c0 .245-.01.436-.03.575-.02.139-.054.238-.101.295a.233.233 0 0 1-.192.088.345.345 0 0 1-.173-.044.33.33 0 0 1-.129-.131v-1.905a.472.472 0 0 1 .132-.224.293.293 0 0 1 .202-.088.204.204 0 0 1 .178.09.702.702 0 0 1 .088.304c.016.143.025.345.025.608v.433zm1.833.193c0 .215.006.377.019.485a.459.459 0 0 0 .08.236c.04.049.102.074.186.074.113 0 .191-.044.233-.132.042-.088.065-.234.069-.438l.651.039a.935.935 0 0 1 .006.121c0 .31-.085.542-.255.695-.169.153-.409.23-.719.23-.372 0-.633-.117-.783-.35-.15-.234-.224-.595-.224-1.084v-.588c0-.504.078-.871.232-1.103.155-.232.42-.348.796-.348.259 0 .458.047.597.143.139.095.236.242.293.444.057.201.085.478.085.832v.575h-1.265Zm.096-1.581a.475.475 0 0 0-.077.232 4.507 4.507 0 0 0-.019.49v.241h.552v-.241c0-.216-.007-.379-.022-.49a.472.472 0 0 0-.079-.236c-.039-.045-.098-.069-.178-.069-.08.001-.14.025-.178.072Z" class="style-scope yt-icon"/></g></g></g></svg>
