<svg viewBox="0 0 24 24" preserveAspectRatio="xMidYMid" class="style-scope yt-icon" style="display:block" width="24" height="24" xmlns="http://www.w3.org/2000/svg"><g class="style-scope yt-icon"><g class="style-scope yt-icon"><path d="M23.498 6.223a3.006 3.006 0 0 0-2.122-2.122C19.506 3.6 12 3.6 12 3.6s-7.506 0-9.377.502A3.006 3.006 0 0 0 .502 6.223C0 8.094 0 12 0 12s0 3.906.502 5.777a3.006 3.006 0 0 0 2.122 2.122c1.871.502 9.377.502 9.377.502s7.506 0 9.377-.502a3.006 3.006 0 0 0 2.122-2.122C24 15.906 24 12 24 12s-.002-3.906-.502-5.777z" fill="red" class="style-scope yt-icon"/><path d="m9.597 15.6 6.236-3.6-6.236-3.6z" fill="#fff" class="style-scope yt-icon"/></g></g></svg>
