<svg xml:space="preserve" width="24" height="24" viewBox="0 0 24 24" xmlns="http://www.w3.org/2000/svg" xmlns:svg="http://www.w3.org/2000/svg" xmlns:dc="http://purl.org/dc/elements/1.1/">
  <defs id="defs3464">
    <linearGradient x1="272.65039" y1="412.10303" x2="358.84012" y2="367.53931" gradientUnits="userSpaceOnUse" spreadMethod="pad" id="linearGradient3472" gradientTransform="matrix(0.15951378,0,0,0.15951378,-37.800891,718.05888)">
      <stop style="stop-opacity:1;stop-color:#b1e356" offset="0" id="stop3474"/>
      <stop style="stop-opacity:1;stop-color:#008800" offset="0.68538" id="stop3476"/>
      <stop style="stop-opacity:1;stop-color:#006800" offset="0.97752" id="stop3478"/>
      <stop style="stop-opacity:1;stop-color:#006800" offset="1" id="stop3480"/>
    </linearGradient>
    <linearGradient x1="326.96289" y1="408.83789" x2="345.27209" y2="399.37125" gradientUnits="userSpaceOnUse" spreadMethod="pad" id="linearGradient3484" gradientTransform="matrix(0.15951378,0,0,0.15951378,-37.800891,718.05888)">
      <stop style="stop-opacity:1;stop-color:#008800" offset="0" id="stop3486"/>
      <stop style="stop-opacity:1;stop-color:#008800" offset="0.05054" id="stop3488"/>
      <stop style="stop-opacity:1;stop-color:#006800" offset="0.97752" id="stop3490"/>
      <stop style="stop-opacity:1;stop-color:#006800" offset="1" id="stop3492"/>
    </linearGradient>
    <linearGradient x1="281.43115" y1="410.20654" x2="358.31714" y2="370.45325" gradientUnits="userSpaceOnUse" spreadMethod="pad" id="linearGradient3496" gradientTransform="matrix(0.15951378,0,0,0.15951378,-37.800891,718.05888)">
      <stop style="stop-opacity:1;stop-color:#60b656" offset="0" id="stop3498"/>
      <stop style="stop-opacity:1;stop-color:#086d05" offset="0.49437" id="stop3500"/>
      <stop style="stop-opacity:1;stop-color:#008800" offset="0.52806" id="stop3502"/>
      <stop style="stop-opacity:1;stop-color:#004900" offset="0.97752" id="stop3504"/>
      <stop style="stop-opacity:1;stop-color:#004900" offset="1" id="stop3506"/>
    </linearGradient>
    <linearGradient x1="321.16992" y1="396.92529" x2="335.38837" y2="389.57376" gradientUnits="userSpaceOnUse" spreadMethod="pad" id="linearGradient3510" gradientTransform="matrix(0.15951378,0,0,0.15951378,-37.800891,718.05888)">
      <stop style="stop-opacity:1;stop-color:#008800" offset="0" id="stop3512"/>
      <stop style="stop-opacity:1;stop-color:#008800" offset="0.05054" id="stop3514"/>
      <stop style="stop-opacity:1;stop-color:#006800" offset="0.97752" id="stop3516"/>
      <stop style="stop-opacity:1;stop-color:#006800" offset="1" id="stop3518"/>
    </linearGradient>
    <linearGradient x1="280.25195" y1="414.8042" x2="304.05466" y2="402.49722" gradientUnits="userSpaceOnUse" spreadMethod="pad" id="linearGradient3522" gradientTransform="matrix(0.15951378,0,0,0.15951378,-37.800891,718.05888)">
      <stop style="stop-opacity:1;stop-color:#7cac56" offset="0" id="stop3524"/>
      <stop style="stop-opacity:1;stop-color:#086d05" offset="0.49437" id="stop3526"/>
      <stop style="stop-opacity:1;stop-color:#008800" offset="0.52806" id="stop3528"/>
      <stop style="stop-opacity:1;stop-color:#004900" offset="0.97752" id="stop3530"/>
      <stop style="stop-opacity:1;stop-color:#004900" offset="1" id="stop3532"/>
    </linearGradient>
    <linearGradient x1="268.89551" y1="401.52393" x2="303.23343" y2="383.76974" gradientUnits="userSpaceOnUse" spreadMethod="pad" id="linearGradient3536" gradientTransform="matrix(0.15951378,0,0,0.15951378,-37.800891,718.05888)">
      <stop style="stop-opacity:1;stop-color:#7cac56" offset="0" id="stop3538"/>
      <stop style="stop-opacity:1;stop-color:#086d05" offset="0.49437" id="stop3540"/>
      <stop style="stop-opacity:1;stop-color:#008800" offset="0.52806" id="stop3542"/>
      <stop style="stop-opacity:1;stop-color:#004900" offset="0.97752" id="stop3544"/>
      <stop style="stop-opacity:1;stop-color:#004900" offset="1" id="stop3546"/>
    </linearGradient>
  </defs>
  <g id="g3468" transform="matrix(1.25,0,0,-1.25,-2.1464919,988.27088)">
    <path d="m 10.238229,779.08255 c 0,0 0.0798,-2.19331 -0.3987903,-3.19027 0,0 -0.83744,-2.31295 0.15952,-3.98785 0,0 2.7647703,-1.4621 4.7745803,0.67669 0,0 0.27666,0.57294 -0.1486,1.71602 0,0 -0.51842,1.39574 -0.5583,3.98784 0,0 0.0399,1.07672 0.15951,1.75465 0,0 2.87125,0.15952 3.11052,2.47255 0,0 0.23927,2.55222 -0.95708,2.87125 0,0 -1.6749,0.3589 -1.6749,-1.19636 0,0 0.23928,-1.71477 -0.63805,-1.75465 0,0 -0.31903,0.15951 -0.31903,1.19635 0,0 0.39879,3.27004 -1.03684,5.66274 0,0 -1.19635,1.91417 -3.1106003,0.39879 0,0 -0.71781,-0.71781 0,-2.23319 0,0 1.1963603,-3.03077 0.6380603,-5.10445 0,0 -0.11964,-1.07671 -0.7178103,-1.03684 0,0 -0.79757,-0.0797 -0.39879,1.43563 0,0 0.87733,2.0338 -0.47854,2.87125 0,0 -1.99392,0.71781 -2.63198,-1.99393 0,0 -0.79756,-2.15343 0.0798,-3.74865 0,0 0.75769,-1.39574 4.1473603,-0.79757 z" style="fill:#155104;fill-opacity:1;fill-rule:nonzero;stroke:none;stroke-width:0.159514" id="path3470"/>
    <path d="m 9.9191987,779.34862 c 0,0 0.0798,-2.19331 -0.39878,-3.19027 0,0 -0.83745,-2.31295 0.15951,-3.98785 0,0 2.7647703,-1.46242 4.7745803,0.67669 0,0 0.27666,0.57262 -0.1486,1.71602 0,0 -0.51842,1.39574 -0.5583,3.98784 0,0 0.0399,1.07672 0.15952,1.75465 0,0 2.87124,0.15952 3.11051,2.47239 0,0 0.23927,2.55222 -0.95708,2.87125 0,0 -1.67489,0.3589 -1.67489,-1.19636 0,0 0.23927,-1.71477 -0.63806,-1.75465 0,0 -0.31903,0.15951 -0.31903,1.19635 0,0 0.39879,3.27004 -1.03684,5.66274 0,0 -1.19635,1.91417 -3.1105903,0.39879 0,0 -0.71782,-0.71781 0,-2.2332 0,0 1.1963503,-3.03076 0.63805,-5.10444 0,0 -0.11963,-1.07671 -0.71781,-1.03684 0,0 -0.79757,-0.0797 -0.39878,1.43563 0,0 0.87732,2.0338 -0.47855,2.87125 0,0 -1.99392,0.71781 -2.63197,-1.99393 0,0 -0.79757,-2.15343 0.0798,-3.74849 0,0 0.75769,-1.39575 4.14736,-0.79757 z" style="fill:url(#linearGradient3472);fill-opacity:1;fill-rule:nonzero;stroke:#000000;stroke-width:0.159514;stroke-linecap:butt;stroke-linejoin:miter;stroke-miterlimit:4;stroke-dasharray:none;stroke-opacity:1" id="path3482"/>
    <path d="m 15.528739,785.59614 c 0.15952,-0.0593 0.41654,-0.18 0.52091,-0.32962 0.0654,-0.0939 -0.0455,-0.27143 0.007,-0.36156 0.0545,-0.0936 0.2427,-0.22041 0.2695,-0.27205 0.15827,-0.30283 0.13645,-0.27915 0.15827,-0.57747 0.0237,-0.31995 -0.1483,-0.48905 -0.17385,-0.73378 -0.0489,-0.47044 0.17945,-0.84102 -0.0365,-1.28794 -0.22712,-0.47052 -0.4991,-0.74476 -0.94898,-0.96635 0.0458,-0.89781 -1.37799,-0.0451 -1.43781,-0.83332 0.58197,0.0386 1.4216,0.32557 1.75652,0.83348 1.00817,0.32113 1.64249,1.63782 1.53315,2.66764 -0.0623,0.58728 -0.56889,2.29684 -1.4889,1.80785" style="fill:url(#linearGradient3484);fill-opacity:0.67;fill-rule:nonzero;stroke:none;stroke-width:0.159514" id="path3494"/>
    <path d="m 10.956039,790.16892 c 0.69172,-0.14371 0.72225,-0.58837 0.89205,-1.1166 0.13957,-0.43429 0.39722,-0.79997 0.49038,-1.27322 0.0944,-0.47908 0.0446,-0.96417 0.17135,-1.42542 0.10312,-0.37503 0.25734,-0.79485 0.29535,-1.19472 0.0847,-0.89781 0.22463,-1.70543 0.22463,-2.59358 0,-0.53112 0.0676,-0.91206 0.15951,-1.38243 0.0221,-0.11324 -0.0302,-0.24635 -10e-4,-0.35758 0.0411,-0.15733 -0.0302,-0.31809 10e-4,-0.43991 0.0595,-0.23149 -0.0689,-0.44209 -0.10655,-0.69133 -0.11216,-0.74086 0.0801,-1.33842 0.003,-2.07368 -0.0505,-0.48103 0.17103,-0.74554 0.19409,-1.22283 0.0171,-0.35175 0.0178,-0.13647 -0.10344,-0.48135 -0.0595,-0.16886 -0.20499,-0.2081 -0.20064,-0.43461 0.007,-0.34924 0.3692,-0.6259 0.46639,-0.94649 0.10812,-0.35516 0.0458,-0.61812 -0.043,-0.95272 -0.0595,-0.22432 -0.0816,-0.80535 -0.22026,-1.01597 -0.20189,-0.30656 -0.70473,-0.267 -0.99166,-0.48476 -0.007,-0.0689 -0.004,-0.12712 0,-0.19566 0.65829,-0.0991 0.75675,0.29628 1.268,0.52652 0.27572,0.12399 0.84867,0.0517 0.99945,0.43461 0.1617,0.41032 -0.36981,0.69569 -0.41467,1.10444 -0.0495,0.45331 -0.0358,0.78698 -0.14768,1.23469 -0.43896,1.759 -0.46141,3.71991 -0.38382,5.61568 0.0224,0.55043 0.13458,1.15655 0.0542,1.7115 -0.0517,0.35666 -0.211221,0.70247 -0.263881,1.06512 -0.12493,0.8595 -0.2159,1.77093 -0.2159,2.65557 0,1.4456 -0.46047,3.48174 -1.86089,4.09424 -0.21325,0.0933 -0.36312,0.2005 -0.62076,0.16349 0.21863,-0.11402 0.3504,-0.30547 0.56756,-0.4294" style="fill:url(#linearGradient3496);fill-opacity:0.78;fill-rule:nonzero;stroke:none;stroke-width:0.159514" id="path3508"/>
    <path d="m 13.348829,781.07663 c 0.19221,-0.002 0.38725,0.002 0.57697,-0.008 0.18912,-0.97959 1.32939,0.26443 1.80856,0.15951 -0.48539,-0.74156 -1.52473,-0.87491 -2.43071,-0.83472 0.0252,0.19877 -0.0309,0.36421 -0.16356,0.45829 0.65394,0.0486 1.35244,0.0368 2.00824,0.004 -0.002,-0.0265 -0.005,-0.1184 -0.001,-0.14269 -0.12587,-0.0411 -0.27977,-0.11155 -0.41592,-0.1156" style="fill:url(#linearGradient3510);fill-opacity:0.67;fill-rule:nonzero;stroke:none;stroke-width:0.159514" id="path3520"/>
    <path d="m 7.8189587,785.43662 c 0.5107,-0.13715 0.27019,-1.13108 0.17284,-1.45018 -0.0371,-0.12197 -0.21544,-0.14207 -0.23119,-0.30704 -0.007,-0.077 0.19075,-0.19355 0.20455,-0.27782 0.0404,-0.2473 0.0246,-0.47379 0.0121,-0.72856 -0.0224,-0.4568 -0.017,-1.08972 0.35759,-1.34512 0.43709,-0.29815 1.07515,0.022 1.27485,0.42916 -0.27962,-0.0184 -0.52613,-0.14307 -0.8256,-0.0875 -0.0786,0.37784 -0.2293,0.8 -0.22074,1.21489 0.009,0.42388 0.27665,0.83488 0.31903,1.27611 0.0439,0.45714 -0.12166,0.9627 -0.37222,1.32931 -0.2135,0.31241 -1.04667,0.66656 -0.84664,-0.0412 0.0505,-0.0246 0.10241,-0.0463 0.15546,-0.0651" style="fill:url(#linearGradient3522);fill-opacity:0.48;fill-rule:nonzero;stroke:none;stroke-width:0.159514" id="path3534"/>
    <path d="m 5.6920887,783.36294 c -0.0572,-0.57456 -0.24364,-1.1585 -0.12074,-1.75589 0.0974,-0.47285 0.24753,-1.24558 0.60979,-1.59514 0.70239,-0.67793 2.32775,-0.62279 3.27633,-0.57575 0.0266,0.0284 0.0413,0.062 0.0441,0.10126 -0.31287,0.17135 -0.7999,0.0838 -1.13637,0.17011 -0.35121,0.0903 -0.95538,0.17634 -1.29068,0.31622 -0.36552,0.15267 -0.58953,0.47481 -0.69117,0.78697 -0.19193,0.58931 0.12734,0.83334 -0.53174,1.1698 0.20469,0.57575 -0.26583,0.68635 -0.26583,1.1166" style="fill:url(#linearGradient3536);fill-opacity:0.48;fill-rule:nonzero;stroke:none;stroke-width:0.159514" id="path3548"/>
    <path d="m 11.221869,790.32843 c 0,0 1.32939,-0.85076 1.32939,-4.83861 l 0.31903,-13.49877" style="fill:none;stroke:#ffffff;stroke-width:0.319027;stroke-linecap:round;stroke-linejoin:miter;stroke-miterlimit:4;stroke-dasharray:none;stroke-opacity:0.25" id="path3550"/>
    <path d="m 10.211669,790.38155 c 0,0 1.64826,-1.01028 1.64826,-4.30687 l 0.32713,-14.18862" style="fill:none;stroke:#ffffff;stroke-width:0.319027;stroke-linecap:round;stroke-linejoin:miter;stroke-miterlimit:4;stroke-dasharray:none;stroke-opacity:0.25" id="path3552"/>
    <path d="m 9.7331287,790.11572 c 0,0 1.4887403,-1.75473 1.4355403,-4.51958 -0.0531,-2.76485 0.21271,-13.77146 0.21271,-13.77146" style="fill:none;stroke:#ffffff;stroke-width:0.319027;stroke-linecap:round;stroke-linejoin:miter;stroke-miterlimit:4;stroke-dasharray:none;stroke-opacity:0.25" id="path3554"/>
    <path d="m 9.1481887,789.47767 c 0,0 1.2761103,-1.75466 1.2761103,-6.48687 0,-4.7323 0.0532,-10.97981 0.0532,-10.97981" style="fill:none;stroke:#ffffff;stroke-width:0.319027;stroke-linecap:round;stroke-linejoin:miter;stroke-miterlimit:4;stroke-dasharray:none;stroke-opacity:0.25" id="path3556"/>
    <path d="m 9.8926387,782.29955 -0.0532,-10.26208" style="fill:none;stroke:#ffffff;stroke-width:0.159514;stroke-linecap:round;stroke-linejoin:miter;stroke-miterlimit:4;stroke-dasharray:none;stroke-opacity:0.25" id="path3558"/>
    <path d="m 7.7125687,785.91517 c 0,0 -2.65846,-1.22306 -1.48874,-6.27432" style="fill:none;stroke:#ffffff;stroke-width:0.159514;stroke-linecap:round;stroke-linejoin:miter;stroke-miterlimit:4;stroke-dasharray:none;stroke-opacity:0.25" id="path3560"/>
    <path d="m 8.2974987,785.75565 c 0,0 -2.04704,-1.27603 -1.62169,-6.16776" style="fill:none;stroke:#ffffff;stroke-width:0.159514;stroke-linecap:round;stroke-linejoin:miter;stroke-miterlimit:4;stroke-dasharray:none;stroke-opacity:0.25" id="path3562"/>
    <path d="m 8.6165287,785.54302 c 0,0 -1.5153,-2.12688 -1.30267,-6.16792" style="fill:none;stroke:#ffffff;stroke-width:0.159514;stroke-linecap:round;stroke-linejoin:miter;stroke-miterlimit:4;stroke-dasharray:none;stroke-opacity:0.25" id="path3564"/>
    <path d="m 8.9887587,784.50618 c 0,0 -1.43563,-1.994 -1.1698,-5.18436" style="fill:none;stroke:#ffffff;stroke-width:0.159514;stroke-linecap:round;stroke-linejoin:miter;stroke-miterlimit:4;stroke-dasharray:none;stroke-opacity:0.25" id="path3566"/>
    <path d="m 8.6697287,781.92732 c 0,0 -0.39878,-1.43562 -0.29247,-2.6055" style="fill:none;stroke:#ffffff;stroke-width:0.159514;stroke-linecap:round;stroke-linejoin:miter;stroke-miterlimit:4;stroke-dasharray:none;stroke-opacity:0.25" id="path3568"/>
    <path d="m 9.1814487,781.52192 c 0,0 -0.11294,-0.97695 -0.007,-2.2001" style="fill:none;stroke:#ffffff;stroke-width:0.159514;stroke-linecap:round;stroke-linejoin:miter;stroke-miterlimit:4;stroke-dasharray:none;stroke-opacity:0.25" id="path3570"/>
    <path d="m 13.548219,772.21038 -0.35891,13.43896 c 0,0 -0.15951,2.87132 -0.63805,3.5625" style="fill:none;stroke:#ffffff;stroke-width:0.159514;stroke-linecap:round;stroke-linejoin:miter;stroke-miterlimit:4;stroke-dasharray:none;stroke-opacity:0.25" id="path3572"/>
    <path d="m 14.266029,772.68892 -0.33243,3.30991" style="fill:none;stroke:#ffffff;stroke-width:0.159514;stroke-linecap:round;stroke-linejoin:miter;stroke-miterlimit:4;stroke-dasharray:none;stroke-opacity:0.25" id="path3574"/>
    <path d="m 15.103479,785.48982 c 0,0 1.16955,-1.54194 0.79757,-4.41319" style="fill:none;stroke:#ffffff;stroke-width:0.159514;stroke-linecap:round;stroke-linejoin:miter;stroke-miterlimit:4;stroke-dasharray:none;stroke-opacity:0.25" id="path3576"/>
    <path d="m 14.624939,785.17079 c 0,0 0.63805,-1.96744 0.63805,-4.4663" style="fill:none;stroke:#ffffff;stroke-width:0.159514;stroke-linecap:round;stroke-linejoin:miter;stroke-miterlimit:4;stroke-dasharray:none;stroke-opacity:0.25" id="path3578"/>
    <path d="m 14.412149,783.57566 c 0,0 0.21279,-1.99393 0.15951,-3.11044" style="fill:none;stroke:#ffffff;stroke-width:0.159514;stroke-linecap:round;stroke-linejoin:miter;stroke-miterlimit:4;stroke-dasharray:none;stroke-opacity:0.25" id="path3580"/>
    <path d="m 13.880329,782.67177 c 0,0 0.26607,-1.38242 0.15981,-2.28631" style="fill:none;stroke:#ffffff;stroke-width:0.159514;stroke-linecap:round;stroke-linejoin:miter;stroke-miterlimit:4;stroke-dasharray:none;stroke-opacity:0.25" id="path3582"/>
  </g>
  <g style="fill:none" id="g11804" transform="matrix(0.18749999,0,0,0.19224259,13.357234,17.71875)">
    <path fill-rule="evenodd" clip-rule="evenodd" d="M 16,0 C 7.16,0 0,7.16 0,16 c 0,7.08 4.58,13.06 10.94,15.18 0.8,0.14 1.1,-0.34 1.1,-0.76 0,-0.38 -0.02,-1.64 -0.02,-2.98 C 8,28.18 6.96,26.46 6.64,25.56 6.46,25.1 5.68,23.68 5,23.3 4.44,23 3.64,22.26 4.98,22.24 c 1.26,-0.02 2.16,1.16 2.46,1.64 1.44,2.42 3.74,1.74 4.66,1.32 0.14,-1.04 0.56,-1.74 1.02,-2.14 -3.56,-0.4 -7.28,-1.78 -7.28,-7.9 0,-1.74 0.62,-3.18 1.64,-4.3 -0.16,-0.4 -0.72,-2.04 0.16,-4.24 0,0 1.34,-0.42 4.4,1.64 1.28,-0.36 2.64,-0.54 4,-0.54 1.36,0 2.72,0.18 4,0.54 3.06,-2.08 4.4,-1.64 4.4,-1.64 0.88,2.2 0.32,3.84 0.16,4.24 1.02,1.12 1.64,2.54 1.64,4.3 0,6.14 -3.74,7.5 -7.3,7.9 0.58,0.5 1.08,1.46 1.08,2.96 0,2.14 -0.02,3.86 -0.02,4.4 0,0.42 0.3,0.92 1.1,0.76 C 27.42,29.06 32,23.06 32,16 32,7.16 24.84,0 16,0 Z" fill="#24292e" id="path11795"/>
  </g>
</svg>
