<svg xml:space="preserve" viewBox="0 0 24 24" width="24" height="24" xmlns="http://www.w3.org/2000/svg"><defs><linearGradient x1="272.65" y1="412.103" x2="358.84" y2="367.539" gradientUnits="userSpaceOnUse" spreadMethod="pad" id="a" gradientTransform="matrix(.1994 0 0 -.1994 -49.399 90.697)"><stop style="stop-opacity:1;stop-color:#b1e356" offset="0"/><stop style="stop-opacity:1;stop-color:#080" offset=".685"/><stop style="stop-opacity:1;stop-color:#006800" offset=".978"/><stop style="stop-opacity:1;stop-color:#006800" offset="1"/></linearGradient><linearGradient x1="326.963" y1="408.838" x2="345.272" y2="399.371" gradientUnits="userSpaceOnUse" spreadMethod="pad" id="b" gradientTransform="matrix(.1994 0 0 -.1994 -49.399 90.697)"><stop style="stop-opacity:1;stop-color:#080" offset="0"/><stop style="stop-opacity:1;stop-color:#080" offset=".051"/><stop style="stop-opacity:1;stop-color:#006800" offset=".978"/><stop style="stop-opacity:1;stop-color:#006800" offset="1"/></linearGradient><linearGradient x1="281.431" y1="410.207" x2="358.317" y2="370.453" gradientUnits="userSpaceOnUse" spreadMethod="pad" id="c" gradientTransform="matrix(.1994 0 0 -.1994 -49.399 90.697)"><stop style="stop-opacity:1;stop-color:#60b656" offset="0"/><stop style="stop-opacity:1;stop-color:#086d05" offset=".494"/><stop style="stop-opacity:1;stop-color:#080" offset=".528"/><stop style="stop-opacity:1;stop-color:#004900" offset=".978"/><stop style="stop-opacity:1;stop-color:#004900" offset="1"/></linearGradient><linearGradient x1="321.17" y1="396.925" x2="335.388" y2="389.574" gradientUnits="userSpaceOnUse" spreadMethod="pad" id="d" gradientTransform="matrix(.1994 0 0 -.1994 -49.399 90.697)"><stop style="stop-opacity:1;stop-color:#080" offset="0"/><stop style="stop-opacity:1;stop-color:#080" offset=".051"/><stop style="stop-opacity:1;stop-color:#006800" offset=".978"/><stop style="stop-opacity:1;stop-color:#006800" offset="1"/></linearGradient><linearGradient x1="280.252" y1="414.804" x2="304.055" y2="402.497" gradientUnits="userSpaceOnUse" spreadMethod="pad" id="e" gradientTransform="matrix(.1994 0 0 -.1994 -49.399 90.697)"><stop style="stop-opacity:1;stop-color:#7cac56" offset="0"/><stop style="stop-opacity:1;stop-color:#086d05" offset=".494"/><stop style="stop-opacity:1;stop-color:#080" offset=".528"/><stop style="stop-opacity:1;stop-color:#004900" offset=".978"/><stop style="stop-opacity:1;stop-color:#004900" offset="1"/></linearGradient><linearGradient x1="268.896" y1="401.524" x2="303.233" y2="383.77" gradientUnits="userSpaceOnUse" spreadMethod="pad" id="f" gradientTransform="matrix(.1994 0 0 -.1994 -49.399 90.697)"><stop style="stop-opacity:1;stop-color:#7cac56" offset="0"/><stop style="stop-opacity:1;stop-color:#086d05" offset=".494"/><stop style="stop-opacity:1;stop-color:#080" offset=".528"/><stop style="stop-opacity:1;stop-color:#004900" offset=".978"/><stop style="stop-opacity:1;stop-color:#004900" offset="1"/></linearGradient></defs><path d="M10.65 14.418s.1 2.741-.498 3.988c0 0-1.047 2.89.2 4.984 0 0 3.455 1.828 5.967-.846 0 0 .346-.716-.185-2.145 0 0-.648-1.744-.698-4.984 0 0 .05-1.346.2-2.194 0 0 3.588-.2 3.887-3.09 0 0 .3-3.19-1.196-3.59 0 0-2.094-.448-2.094 1.496 0 0 .3 2.144-.797 2.193 0 0-.399-.2-.399-1.495 0 0 .499-4.088-1.296-7.079 0 0-1.495-2.392-3.888-.498 0 0-.898.897 0 2.791 0 0 1.495 3.789.797 6.381 0 0-.15 1.346-.897 1.296 0 0-.997.1-.498-1.794 0 0 1.096-2.543-.599-3.59 0 0-2.492-.897-3.29 2.493 0 0-.997 2.692.1 4.686 0 0 .947 1.744 5.184.997z" style="fill:#155104;fill-opacity:1;fill-rule:nonzero;stroke:none;stroke-width:.199392"/><path d="M10.252 14.085s.1 2.742-.499 3.988c0 0-1.047 2.891.2 4.985 0 0 3.455 1.828 5.968-.846 0 0 .346-.716-.186-2.145 0 0-.648-1.745-.698-4.985 0 0 .05-1.346.2-2.193 0 0 3.589-.2 3.888-3.09 0 0 .299-3.191-1.197-3.59 0 0-2.093-.448-2.093 1.496 0 0 .299 2.143-.798 2.193 0 0-.399-.2-.399-1.495 0 0 .499-4.088-1.296-7.079 0 0-1.495-2.393-3.888-.498 0 0-.897.897 0 2.791 0 0 1.495 3.789.798 6.38 0 0-.15 1.347-.898 1.297 0 0-.997.1-.498-1.795 0 0 1.096-2.542-.598-3.589 0 0-2.493-.897-3.29 2.493 0 0-.997 2.691.1 4.685 0 0 .946 1.745 5.184.997z" style="fill:url(#a);fill-opacity:1;fill-rule:nonzero;stroke:#000;stroke-width:.199392;stroke-linecap:butt;stroke-linejoin:miter;stroke-miterlimit:4;stroke-dasharray:none;stroke-opacity:1"/><path d="M17.263 6.276c.2.074.521.225.652.412.081.117-.057.339.009.452.068.117.303.275.336.34.198.378.171.349.198.722.03.4-.185.61-.217.917-.061.588.224 1.051-.046 1.61-.284.588-.623.93-1.186 1.208.057 1.122-1.722.056-1.797 1.041.727-.048 1.777-.407 2.196-1.041 1.26-.402 2.053-2.048 1.916-3.335-.078-.734-.711-2.871-1.861-2.26" style="fill:url(#b);fill-opacity:.67;fill-rule:nonzero;stroke:none;stroke-width:.199392"/><path d="M11.548.56c.864.18.902.735 1.115 1.395.174.543.496 1 .613 1.592.118.599.055 1.205.214 1.782.129.469.321.993.369 1.493.106 1.122.28 2.132.28 3.242 0 .664.085 1.14.2 1.728.028.142-.038.308-.001.447.051.197-.038.398.001.55.075.29-.086.553-.133.864-.14.926.1 1.673.003 2.592-.063.602.214.932.243 1.529.022.44.022.17-.13.602-.074.21-.255.26-.25.543.009.436.461.782.583 1.183.135.444.057.773-.054 1.19-.074.281-.102 1.007-.275 1.27-.252.384-.881.335-1.24.607a1.35 1.35 0 0 0 0 .244c.823.124.946-.37 1.585-.658.345-.155 1.061-.064 1.25-.543.202-.513-.463-.87-.519-1.38-.062-.567-.044-.984-.184-1.544-.549-2.199-.577-4.65-.48-7.02.028-.688.168-1.445.068-2.139-.065-.446-.264-.878-.33-1.331-.156-1.075-.27-2.214-.27-3.32 0-1.807-.576-4.352-2.326-5.118-.267-.116-.454-.25-.776-.204.273.143.438.382.71.537" style="fill:url(#c);fill-opacity:.78;fill-rule:nonzero;stroke:none;stroke-width:.199392"/><path d="M14.539 11.925c.24.003.484-.002.72.01.237 1.224 1.663-.33 2.261-.2-.606.927-1.905 1.094-3.038 1.044.032-.249-.038-.455-.204-.573a20.81 20.81 0 0 1 2.51-.005 1.44 1.44 0 0 0-.002.178c-.157.051-.35.14-.52.144" style="fill:url(#d);fill-opacity:.67;fill-rule:nonzero;stroke:none;stroke-width:.199392"/><path d="M7.626 6.475c.639.172.338 1.414.216 1.813-.046.152-.269.177-.289.384-.009.096.239.242.256.347.05.309.03.592.015.91-.028.572-.021 1.363.447 1.682.546.373 1.344-.027 1.594-.536-.35.023-.658.178-1.032.109-.099-.472-.287-1-.276-1.519.01-.53.345-1.043.398-1.595.055-.571-.152-1.203-.465-1.661-.267-.39-1.308-.834-1.058.051a1.863 1.863 0 0 0 .194.082" style="fill:url(#e);fill-opacity:.48;fill-rule:nonzero;stroke:none;stroke-width:.199392"/><path d="M4.968 9.067c-.072.718-.305 1.448-.151 2.195.121.591.31 1.557.762 1.994.878.847 2.91.778 4.095.72a.2.2 0 0 0 .055-.127c-.39-.214-1-.105-1.42-.213-.439-.112-1.194-.22-1.613-.395-.457-.19-.737-.593-.864-.983-.24-.737.159-1.042-.665-1.463.256-.72-.332-.858-.332-1.395" style="fill:url(#f);fill-opacity:.48;fill-rule:nonzero;stroke:none;stroke-width:.199392"/><path d="M11.88.36s1.662 1.064 1.662 6.049l.398 16.873" style="fill:none;stroke:#fff;stroke-width:.398785;stroke-linecap:round;stroke-linejoin:miter;stroke-miterlimit:4;stroke-dasharray:none;stroke-opacity:.25"/><path d="M10.617.294s2.06 1.263 2.06 5.384l.41 17.735" style="fill:none;stroke:#fff;stroke-width:.398785;stroke-linecap:round;stroke-linejoin:miter;stroke-miterlimit:4;stroke-dasharray:none;stroke-opacity:.25"/><path d="M10.019.626s1.86 2.194 1.794 5.65c-.066 3.456.266 17.214.266 17.214" style="fill:none;stroke:#fff;stroke-width:.398785;stroke-linecap:round;stroke-linejoin:miter;stroke-miterlimit:4;stroke-dasharray:none;stroke-opacity:.25"/><path d="M9.288 1.424s1.595 2.193 1.595 8.108c0 5.916.066 13.725.066 13.725" style="fill:none;stroke:#fff;stroke-width:.398785;stroke-linecap:round;stroke-linejoin:miter;stroke-miterlimit:4;stroke-dasharray:none;stroke-opacity:.25"/><path d="m10.218 10.396-.066 12.828M7.493 5.877S4.17 7.406 5.633 13.72" style="fill:none;stroke:#fff;stroke-width:.199392;stroke-linecap:round;stroke-linejoin:miter;stroke-miterlimit:4;stroke-dasharray:none;stroke-opacity:.25"/><path d="M8.224 6.076s-2.558 1.595-2.027 7.71" style="fill:none;stroke:#fff;stroke-width:.199392;stroke-linecap:round;stroke-linejoin:miter;stroke-miterlimit:4;stroke-dasharray:none;stroke-opacity:.25"/><path d="M8.623 6.342s-1.894 2.659-1.628 7.71m2.093-6.414s-1.794 2.493-1.462 6.48m1.064-3.256s-.499 1.794-.366 3.257m1.005-2.75s-.14 1.22-.008 2.75m5.467 8.889-.449-16.799s-.2-3.589-.797-4.453m2.143 20.654-.415-4.138M16.732 6.41s1.462 1.927.997 5.516m-1.595-5.118s.797 2.46.797 5.583m-1.063-3.589s.266 2.493.2 3.888m-.865-2.758s.333 1.728.2 2.858" style="fill:none;stroke:#fff;stroke-width:.199392;stroke-linecap:round;stroke-linejoin:miter;stroke-miterlimit:4;stroke-dasharray:none;stroke-opacity:.25"/></svg>
