<svg version="1.0" xmlns="http://www.w3.org/2000/svg" width="24" height="24" viewBox="0 0 24 24" preserveAspectRatio="xMidYMid" xml:space="preserve" xmlns:xlink="http://www.w3.org/1999/xlink"><defs><linearGradient id="c"><stop style="stop-color:#256b95;stop-opacity:1" offset="0"/><stop style="stop-color:#3c9cd4;stop-opacity:1" offset="1"/></linearGradient><linearGradient id="b"><stop style="stop-color:#4b9dc7;stop-opacity:1" offset="0"/><stop style="stop-color:#b5d8ea;stop-opacity:1" offset="1"/></linearGradient><linearGradient id="a"><stop style="stop-color:#157eb4;stop-opacity:1" offset="0"/><stop style="stop-color:#095c86;stop-opacity:1" offset="1"/></linearGradient><linearGradient xlink:href="#a" id="d" x1="30" y1="232.5" x2="482" y2="232.5" gradientUnits="userSpaceOnUse" gradientTransform="scale(.04688)"/><linearGradient xlink:href="#b" id="e" x1="259.744" y1="200.521" x2="258.821" y2="20.664" gradientUnits="userSpaceOnUse" gradientTransform="scale(.04688)"/><linearGradient xlink:href="#c" id="f" x1="155.849" y1="161.643" x2="209.064" y2="161.643" gradientUnits="userSpaceOnUse" gradientTransform="scale(.04688)"/><linearGradient xlink:href="#c" id="g" gradientUnits="userSpaceOnUse" x1="254.311" y1="189.213" x2="234.008" y2="194.464" gradientTransform="scale(.04688)"/><linearGradient xlink:href="#c" id="h" gradientUnits="userSpaceOnUse" x1="366.024" y1="229.223" x2="346.716" y2="225.09" gradientTransform="scale(.04688)"/></defs><path style="display:inline;opacity:.95;fill:#101010;fill-opacity:1;fill-rule:evenodd;stroke:none;stroke-width:.046875;stroke-linecap:butt;stroke-linejoin:miter;stroke-miterlimit:4;stroke-dasharray:none;stroke-opacity:1;paint-order:normal" d="M22.593 19.593c0 3-3 3-3 3H4.406s-3 0-3-3v-6.046h21.187Z"/><path style="display:inline;opacity:1;fill:url(#d);fill-opacity:1;fill-rule:evenodd;stroke:none;stroke-width:.046875;stroke-linecap:butt;stroke-linejoin:miter;stroke-miterlimit:4;stroke-dasharray:none;stroke-opacity:1;paint-order:normal" d="M1.406 13.547h21.188zm21.188 0H1.405V8.25c6.984 1.687 14.297 1.687 21.188 0z"/><path style="display:inline;opacity:1;fill:url(#e);fill-opacity:1;fill-rule:evenodd;stroke:none;stroke-width:.1875;stroke-linecap:square;stroke-linejoin:miter;stroke-miterlimit:4;stroke-dasharray:none;stroke-opacity:1;paint-order:stroke fill markers" d="M1.406 8.25c6.984 1.687 14.297 1.687 21.188 0V4.406c0-3-3-3-3-3H4.405s-3 0-3 3z"/><path d="M6 3.094h2.625v9.093H6z" style="display:inline;opacity:.9;fill:#fff;fill-opacity:1;stroke:url(#f);stroke-width:.609375;stroke-linecap:square;stroke-linejoin:miter;stroke-miterlimit:4;stroke-dasharray:none;paint-order:stroke fill markers"/><path d="M10.5 5.343c.515 0 1.828.563 2.203.938.703.61.61.61.61 3.328v2.578H10.5z" style="display:inline;opacity:.9;fill:#fff;fill-opacity:1;stroke:url(#g);stroke-width:.609375;stroke-linecap:square;stroke-linejoin:miter;stroke-miterlimit:4;stroke-dasharray:none;paint-order:stroke fill markers"/><circle style="display:inline;opacity:.9;fill:#fff;fill-opacity:1;stroke:url(#h);stroke-width:.609375;stroke-linecap:square;stroke-linejoin:miter;stroke-miterlimit:4;stroke-dasharray:none;paint-order:stroke fill markers" cx="16.622" cy="10.726" r="1.406"/><path d="M18.093 17.165c0 1.679-.037 2.607-.103 2.738-.3.581-1.5 1.36-2.362 1.519l-.347.065v-6.862h2.812zm-4.781 0c0 1.679-.037 2.607-.103 2.738-.3.581-1.5 1.36-2.362 1.519l-.347.065v-6.862h2.812zm-4.593.891v3.431l-.347-.065c-.863-.16-2.063-.938-2.363-1.52-.066-.13-.103-1.059-.103-2.737v-2.54h2.813Z" style="display:inline;opacity:.9;fill:#fff;fill-opacity:1;stroke:#000;stroke-width:.609375;stroke-linecap:square;stroke-linejoin:miter;stroke-miterlimit:4;stroke-dasharray:none;stroke-opacity:1;paint-order:stroke fill markers"/></svg>
