<svg width="24" height="24" viewBox="0 0 24 24" xml:space="preserve" xmlns="http://www.w3.org/2000/svg"><path style="display:inline;fill:#059;fill-opacity:1;stroke:#059;stroke-width:.0933852;stroke-dasharray:none;stroke-opacity:1" d="M3.035.047h17.93c2.988 0 2.988 0 2.988 2.988v17.93c0 2.988 0 2.988-2.988 2.988H3.035c-2.988 0-2.988 0-2.988-2.988V3.035C.047.047.047.047 3.035.047zm17.053 8.67H3.904s-3.11-.065-3.11 3.27c0 3.334 3.11 3.296 3.11 3.296h16.184c.057 0 3.118-.052 3.118-3.282 0-2.598-2.318-3.283-3.118-3.283z"/><path fill="#059" d="M429.226 185.703H88.052v-.024l-5.433.024S16 184.307 16 255.713s66.62 70.608 66.62 70.608h346.606c1.207-.02 66.774-1.126 66.774-70.309 0-55.63-49.65-70.31-66.774-70.31Zm-315.89 119.542H73.843c-6.582 0-44.48 0-44.48-50.264 0-50.263 40.69-49.067 40.69-49.067h29.919v19.348l-28.921.2c-18.65 3.091-17.154 20.943-17.154 20.943s-.2 3.39-.2 15.158c0 11.768 4.578 17.154 4.578 17.154 4.764 6.548 13.773 6.781 13.773 6.781H93.19v-18.15H73.843v-18.75h39.493zm317.058 14.56H125.636V192.417h304.758c15.076 0 58.79 13.298 58.79 63.694-.001 62.655-58.79 63.694-58.79 63.694z" style="display:inline;mix-blend-mode:normal;fill-rule:evenodd;stroke:none;stroke-width:0;stroke-linejoin:bevel;stroke-dasharray:none;stroke-opacity:1;paint-order:fill markers stroke" transform="translate(.047 .047) scale(.0467)"/><path fill="#059" d="M160.607 223.9s-26.228-.998-26.228 23.834c0 24.833 25.231 23.337 25.231 23.337l23.237.1v-10.372h-21.442s-7.779.898-8.975-8.976h35.104s3.89-28.422-26.927-27.924zm-8.377 19.36s.4-9.19 9.075-9.19c8.677 0 8.677 9.176 8.677 9.176z" style="stroke-width:.797833" transform="translate(.047 .047) scale(.0467)"/><path fill="#059" d="M10.626 10.563h1.996v.471l-1.086 1.085h1.155v.591H10.54v-.56l1.024-1.027h-.938z"/><path fill="#059" d="M279.385 271.17v-63.16h17.705v22.804s4.968-6.715 15.406-6.715c0 0 15.491-.764 15.657 14.793v32.28h-17.819V244.71s.1-6.815-6.05-6.815c0 0-6.948-.898-7.213 9.907v23.37zm89.125-47.005h-8.044c-20.977.2-21.077 13.995-21.077 13.995l16.888 1.895c1.063-6.283 9.109-5.385 9.109-5.385 6.848-.732 5.984 5.519 5.984 5.519-4.389 2.36-16.555 4.288-25.1 6.615-8.543 2.328-8.377 11.602-8.377 11.602 0 14.56 17.586 12.766 17.586 12.766 12.865-.166 16.854-6.051 16.854-6.051v6.05h16.488V241.22c-.299-18.65-20.31-17.054-20.31-17.054zm3.058 29.652s-.2 8.045-9.873 8.045c0 0-5.585.699-5.784-4.455 0 0-.932-4.005 7.811-6.099l7.846-2.311zm29.985-45.842h17.818v63.195h-17.818zm30.584 63.195v-9.74h22.605s6.848.499 6.848-4.022c0 0 .499-2.992-5.22-3.79l-14.46-2.832s-11.17-2.453-11.17-12.858c0-10.406 10.537-12.893 10.537-12.893s4.223-1.335 10.44-1.335h16.056v9.275h-15.125s-5.751-.134-5.751 3.556c0 0-.366 3.391 6.914 3.657 0 0 10.537 1.13 13.796 2.26 0 0 7.713 2.46 9.342 7.68 0 0 1.96 5.285-.101 10.604-2.06 5.32-8.443 10.438-23.004 10.438h-21.707zm-261.905 11.17h-15.359v23.387l8.528.018v-8.694h6.732s7.73-.25 7.73-7.48-7.631-7.23-7.631-7.23zm-4.339 9.948H163.3v-4.962h2.568s3.74-.175 3.74 2.394c0 2.568-3.715 2.568-3.715 2.568zm15.791 13.439v-16.971h7.114v2.526s1.554-2.983 4.546-2.983c0 0 2.38-.038 3.665.922l-2.269 4.663s-5.41-2.12-5.41 4.139v7.704zm124.961.099v-16.97h7.114v2.526s1.553-2.984 4.545-2.984c0 0 2.38-.037 3.665.923l-2.269 4.662s-5.41-2.119-5.41 4.14v7.703zm-97.442-17.946s-10.998-.373-10.998 8.94c0 9.314 10.58 8.753 10.58 8.753l9.744.037v-3.89h-8.991s-3.262.337-3.764-3.366h14.72s1.631-10.66-11.29-10.473zm-3.512 7.262s.167-3.446 3.805-3.446c3.638 0 3.638 3.441 3.638 3.441z" style="stroke-width:.797833" transform="translate(.047 .047) scale(.0467)"/><path d="M9.29 10.564h.824v2.147h-.825zm0-.806h.824v.55h-.825z" fill="#1d5ea2"/><path d="M10.514 13.533h.359v.79h-.359zm0-.296h.359v.202h-.359zM9.29 10.564h.824v2.147h-.825zm0-.806h.824v.55h-.825zm8.862 3.775h.359v.79h-.359zm0-.296h.359v.202h-.359z" fill="#059"/><path fill="#059" d="M236.892 305.826v-3.632h9.542s2.89.186 2.89-1.5c0 0 .212-1.115-2.202-1.413l-6.104-1.056s-4.715-.915-4.715-4.794c0-3.88 4.448-4.81 4.448-4.81s1.782-.496 4.407-.496h6.777v3.458h-6.385s-2.427-.05-2.427 1.326c0 0-.154 1.265 2.918 1.365 0 0 4.449.421 5.823.842 0 0 3.256.918 3.943 2.864 0 0 .828 1.972-.042 3.955s-3.565 3.892-9.71 3.892h-9.163z" style="stroke-width:.797833" transform="translate(.047 .047) scale(.0467)"/><path fill="#059" d="M12.426 13.528h-.375l.391.796h.314l.394-.798h-.358l-.19.491z"/><path fill="#059" d="M291.88 287.88s-10.998-.377-10.998 9.015c0 9.393 10.58 8.827 10.58 8.827l9.743.037v-3.923h-8.99s-3.262.34-3.765-3.394h14.72s1.63-10.75-11.29-10.561zm-3.514 7.324s.168-3.475 3.807-3.475c3.638 0 3.638 3.47 3.638 3.47zm56.616 10.946v-17.477h-7.28v2.468c-2.095-2.767-6.458-2.468-6.458-2.468s-7.903-.374-7.903 8.228c0 8.144 7.48 8.148 7.48 8.148 5.31 0 6.333-2.164 6.333-2.164v2.842c0 2.644-3.167 2.444-3.167 2.444h-8.527v4.214h8.627c11.294-.001 10.895-6.235 10.895-6.235zm-10.912-5.559s-3.298-.051-3.298-3.524c0 0-.425-3.79 3.165-3.79s3.251 3.857 3.251 3.857.273 3.457-3.118 3.457zm38.36-12.561s-11.266-.374-11.266 8.939c0 9.314 10.838 8.753 10.838 8.753l9.982.037v-3.89h-9.21s-3.34.337-3.856-3.366h15.08s1.67-10.66-11.567-10.473zm-3.598 7.262s.171-3.446 3.899-3.446c3.726 0 3.726 3.441 3.726 3.441zm-18.888-13.002h7.679v23.436h-7.679zm69.91 23.527v-4.555h-9.425s-3.865.1-3.865-3.865c0-3.964 2.37-4.563 3.666-4.563h8.527v-4.787h-8.428s-11.32-.199-11.32 8.777c0 8.975 9.475 8.975 11.12 8.975 1.647 0 9.725.018 9.725.018zm4.451-.09v-23.384h7.49v8.443s2.102-2.486 6.518-2.486c0 0 6.553-.284 6.623 5.476v11.95h-7.538v-9.795s.043-2.524-2.558-2.524c0 0-2.941-.332-3.053 3.669v8.651h-7.482z" style="stroke-width:.797833" transform="translate(.047 .047) scale(.0467)"/></svg>
