<svg viewBox="0 0 24 24" xml:space="preserve" width="24" height="24" xmlns="http://www.w3.org/2000/svg"><g style="display:inline"><path style="display:inline;fill:#d0d0d0" d="M296.804 478.452c-3.133-.76-10.663-3.872-16.733-6.917-8.906-4.466-11.987-5.535-15.954-5.535-3.25 0-8.07 1.218-14.219 3.593-5.116 1.975-12.699 4.487-16.85 5.58-4.734 1.248-12.447 2.197-20.686 2.546-7.982.338-16.996.07-22.967-.681-5.406-.68-14.119-2.475-19.362-3.987-5.243-1.513-12.88-4.16-16.97-5.882-4.091-1.723-12.297-5.913-18.235-9.312-5.938-3.4-15.44-9.666-21.114-13.926-5.674-4.26-14.356-11.725-19.294-16.589-4.937-4.863-11.71-12.442-15.049-16.842-3.34-4.4-8.144-11.237-10.678-15.192-2.533-3.956-6.029-10.011-7.768-13.456-1.738-3.444-4.625-10.108-6.415-14.807-1.79-4.7-3.55-9.895-3.912-11.545-.516-2.352-.416-2.676.466-1.5.946 1.262 1.03 1.21.53-.332-.327-1.007-.594-2.046-.594-2.309 0-.262-.52-.156-1.155.236-.723.448-.882.274-.426-.464.4-.648-.198-3.98-1.331-7.405-1.133-3.424-3.18-11.212-4.549-17.306-1.369-6.094-3.01-16.57-3.648-23.282-.89-9.371-.88-14.689.044-22.92.66-5.895 2.11-16.118 3.222-22.718 1.11-6.6 3.301-17.4 4.868-24 1.566-6.6 4.245-16.275 5.954-21.5 1.708-5.225 5.536-14.564 8.506-20.753 2.97-6.19 7.702-14.583 10.515-18.653 2.813-4.07 7.724-10.074 10.913-13.343 3.19-3.27 8.734-8.039 12.322-10.6 3.588-2.56 9.032-5.764 12.098-7.12 3.066-1.355 9.308-3.468 13.87-4.695 6.535-1.757 10.952-2.225 20.797-2.204 9.858.02 14.825.571 23.5 2.605 6.05 1.418 14.944 4.015 19.763 5.77 4.82 1.756 13.033 5.333 18.25 7.95 5.218 2.616 9.487 4.657 9.487 4.534 0-.123-2.209-6.696-4.909-14.607-2.7-7.911-7.92-22.259-11.599-31.884-3.68-9.625-9.792-23.966-13.583-31.87-3.791-7.903-8.503-16.61-10.47-19.347-1.967-2.739-3.433-5.083-3.258-5.21.176-.128 8.517-6.42 18.536-13.982 10.722-8.092 18.694-13.455 19.377-13.033.638.395 3.363 5.328 6.055 10.964 2.692 5.636 7.13 17.026 9.86 25.31 2.732 8.285 6.58 21.274 8.552 28.866a15520.54 15520.54 0 0 1 4.59 17.696c1.004 3.895 1.004 3.895 5.499-4 2.472-4.341 6.875-11.044 9.783-14.894 2.909-3.85 8.613-10.283 12.675-14.296 4.063-4.013 10.658-9.558 14.656-12.321 3.998-2.764 11.424-6.99 16.502-9.392 5.079-2.402 13.284-5.544 18.234-6.981 4.95-1.438 13.5-3.309 19-4.157 7.344-1.133 14.515-1.41 27-1.043 9.463.278 20.768 1.229 25.5 2.145 4.675.905 9.276 1.874 10.223 2.154 1.186.35 1.92 1.99 2.354 5.257.458 3.453 1.194 5.006 2.698 5.691 1.137.519 2.965 2.162 4.06 3.652 1.213 1.647 2.175 4.9 2.458 8.304.255 3.078-.082 8.98-.75 13.115-.666 4.135-2.24 10.54-3.496 14.234-1.256 3.693-4.177 10.508-6.49 15.143-2.313 4.636-6.124 11.173-8.47 14.528-4.264 6.1-4.264 6.1 1.844 8.291 3.36 1.205 9.025 4.079 12.589 6.386 3.564 2.307 9.433 7.14 13.041 10.742 3.609 3.601 8.096 8.798 9.972 11.548 1.876 2.75 4.653 7.25 6.171 10 1.518 2.75 2.768 4.633 2.778 4.184.01-.448-.448-1.686-1.017-2.75-.57-1.064-.847-1.934-.618-1.934.23 0 2.25 2.813 4.487 6.25 2.239 3.438 5.624 9.625 7.523 13.75 1.9 4.125 4.635 11.1 6.08 15.5 1.445 4.4 3.957 14.542 5.581 22.538 1.625 7.995 3.462 20.37 4.081 27.5.62 7.129.893 20.387.607 29.462-.352 11.17-1.2 19.73-2.628 26.5-1.16 5.5-3.264 14.05-4.677 19-1.413 4.95-4.556 13.858-6.985 19.796-2.428 5.939-6.293 14.264-8.588 18.5-2.294 4.237-7.315 12.429-11.157 18.204-3.842 5.775-9.697 13.875-13.012 18-3.314 4.125-8.981 10.813-12.593 14.862-3.611 4.049-10.984 11.344-16.385 16.213-5.4 4.868-13.09 11.314-17.09 14.324s-11.057 8.008-15.682 11.107c-4.625 3.098-12.057 7.391-16.515 9.541-4.458 2.15-10.983 4.587-14.5 5.416-3.517.83-9.319 1.477-12.894 1.439-3.575-.038-9.063-.69-12.196-1.45zm32.44-138.916c3.71-.786 10.4-3.33 14.867-5.655 5.333-2.774 10.29-6.394 14.437-10.54 4.302-4.302 7.586-8.855 10.303-14.284 2.194-4.383 4.525-10.55 5.18-13.705.677-3.265.985-9.64.713-14.794-.262-4.982-1.274-11.4-2.248-14.262-.974-2.863-2.046-5.134-2.383-5.047-.337.086-2.729-1.997-5.314-4.629-2.917-2.969-5.384-4.655-6.5-4.44-1.433.274-1.933 1.7-2.46 7.007-.38 3.842-1.823 9.255-3.408 12.788-1.803 4.017-4.433 7.64-7.639 10.522-2.689 2.417-7.454 5.364-10.59 6.547-4.546 1.715-7.231 2.066-13.24 1.731-5.899-.328-8.694-1.048-12.849-3.31-2.92-1.59-7.306-5.11-9.746-7.824-2.44-2.714-4.275-5.416-4.08-6.005.197-.589-.69-2.614-1.97-4.5-1.28-1.886-3-5.695-3.822-8.464-.822-2.77-1.53-6.416-1.574-8.104-.043-1.687-.282-2.577-.53-1.977-.248.6-2.721 3.445-5.496 6.324-2.811 2.916-6.524 8.322-8.388 12.21-1.839 3.838-3.884 10.184-4.545 14.102-.675 4-.923 9.852-.565 13.341.35 3.42 1.48 8.667 2.51 11.661 1.03 2.995 2.605 6.86 3.498 8.588.894 1.728 3.613 5.582 6.042 8.565 2.429 2.982 4.11 5.763 3.735 6.18-.375.417-.12.435.568.04.688-.396 1.25-.219 1.25.394s2.55 2.242 5.666 3.62c3.117 1.378 8.18 3.116 11.25 3.862 3.071.745 8.959 1.385 13.084 1.421 4.125.037 10.535-.577 14.245-1.363zm-128.48-3.385c3.346-1.042 8.931-3.486 12.41-5.432 3.48-1.946 8.63-5.747 11.445-8.446 2.815-2.7 6.753-7.37 8.751-10.38 1.998-3.01 4.532-8.03 5.632-11.157 1.099-3.128 2.447-8.848 2.994-12.711.647-4.562.66-9.392.038-13.775-.528-3.712-1.47-8.213-2.095-10-.624-1.788-1.526-3.25-2.005-3.25-.48 0-.605-.693-.28-1.54.325-.848.179-1.41-.325-1.25-.504.16-2.74-1.622-4.968-3.96-2.265-2.377-4.981-4.25-6.16-4.25-1.613 0-2.227.766-2.603 3.25a554.17 554.17 0 0 0-1.09 7.708c-.33 2.451-1.438 6.355-2.464 8.675-1.026 2.32-3.754 6.267-6.062 8.77-2.308 2.505-6.736 5.777-9.84 7.272-4.644 2.238-7.056 2.728-13.642 2.772-6.658.044-8.96-.397-13.72-2.628-3.146-1.475-7.733-4.752-10.194-7.283-2.46-2.532-4.768-5.6-5.13-6.82-.36-1.218-1.96-4.875-3.556-8.126-1.595-3.25-2.932-7.075-2.97-8.5-.039-1.424-.386-3.387-.77-4.362-.603-1.522-1.283-1.17-4.836 2.5-2.273 2.35-5.543 6.522-7.265 9.272-1.722 2.75-4.015 7.86-5.095 11.355C135.61 278.24 135 283.091 135 289.5c0 6.441.609 11.26 1.985 15.717 1.092 3.535 3.728 9.095 5.858 12.355 2.13 3.26 5.048 7.006 6.484 8.323 1.436 1.318 2.33 2.85 1.988 3.405-.355.573-.125.7.53.295.635-.392 1.155-.212 1.155.401s2.587 2.261 5.75 3.663c3.163 1.402 8.675 3.165 12.25 3.918 3.943.83 9.88 1.191 15.09.918 4.723-.248 11.327-1.303 14.673-2.344z" transform="matrix(.04712 0 0 .0471 -.026 -.044)"/><path style="display:inline;fill:#ababab" d="M297.271 471.46c-2.876-.775-9.97-3.895-15.766-6.934-9.39-4.925-11.192-5.526-16.564-5.526-4.504 0-8.483.925-15.735 3.658-5.338 2.013-12.856 4.54-16.706 5.618-4.942 1.384-11.41 2.103-22 2.448-11.24.365-17.382.075-24.5-1.156-5.225-.904-12.65-2.567-16.5-3.696-3.85-1.13-12.865-4.86-20.033-8.291-7.169-3.431-17.069-8.954-22-12.275-4.932-3.32-11.295-7.88-14.141-10.135-2.846-2.254-8.135-6.867-11.752-10.251-3.618-3.384-8.94-8.89-11.826-12.236-2.886-3.345-4.573-5.69-3.748-5.211 1.235.717 1.218.531-.093-1.051-.876-1.057-4.201-5.039-7.388-8.848-3.188-3.81-8.676-11.324-12.197-16.698-3.521-5.373-8.196-13.599-10.389-18.278-2.192-4.679-5.502-13.14-7.353-18.802-1.852-5.663-4.292-14.796-5.422-20.296s-2.527-15.5-3.105-22.223c-.904-10.523-.776-14.358.921-27.574 1.084-8.444 3.33-21.884 4.99-29.868 1.66-7.985 4.376-19.085 6.034-24.667 1.658-5.582 4.368-13.555 6.022-17.718s4.18-9.905 5.616-12.76c1.436-2.854 5.077-8.991 8.093-13.637 3.015-4.645 8.248-11.334 11.627-14.864 3.38-3.53 8.844-8.337 12.144-10.684 3.3-2.346 8.435-5.49 11.411-6.984 2.976-1.495 9.726-3.843 15-5.22 7.55-1.968 12.034-2.5 21.089-2.496 8.121.003 14.411.645 21.408 2.188 5.45 1.201 14.406 3.75 19.904 5.664 5.497 1.913 14.483 5.73 19.968 8.484 9.973 5.004 9.973 5.004 9.286 2.265-.378-1.507-3.174-9.752-6.212-18.323-3.039-8.57-8.445-22.96-12.013-31.975-3.568-9.016-8.863-21.391-11.767-27.5-2.903-6.11-6.92-13.516-8.926-16.458-2.007-2.943-3.648-5.682-3.648-6.086 0-.404 8.17-6.937 18.156-14.518 18.157-13.783 18.157-13.783 19.977-11.414 1.001 1.302 3.798 6.868 6.216 12.368 2.417 5.5 6.45 16.3 8.96 24 2.51 7.7 6.202 20.3 8.202 28 2 7.7 4.096 15.78 4.657 17.956 1.02 3.955 1.02 3.955 4.918-3.5 2.144-4.101 6.781-11.294 10.306-15.984 3.524-4.69 9.866-11.813 14.093-15.828 4.227-4.015 11.573-9.834 16.326-12.932 4.753-3.098 12.643-7.358 17.534-9.467 4.89-2.108 13.303-4.901 18.695-6.207 5.392-1.306 14.2-2.927 19.573-3.603 6.338-.798 14.885-1.002 24.329-.58 8.007.357 19.058 1.547 24.558 2.644 5.5 1.097 10.112 1.996 10.25 1.998.137.001.25 4.53.25 10.062 0 6.249.368 9.832.97 9.46.535-.33 1.27.592 1.637 2.05.365 1.457.41 5.638.1 9.29-.31 3.653-1.763 10.466-3.227 15.141-1.464 4.675-4.788 12.569-7.386 17.542-2.598 4.973-6.582 11.558-8.854 14.634-4.131 5.591-4.131 5.591 1.786 7.251 3.255.913 9.418 3.416 13.696 5.561 4.278 2.145 10.703 6.32 14.278 9.279 3.575 2.958 8.376 7.82 10.669 10.806 2.293 2.985 6.035 8.506 8.317 12.27 2.282 3.764 5.451 10.095 7.042 14.069 1.592 3.974 4.078 11.353 5.525 16.398 1.447 5.046 3.623 14.594 4.834 21.22 1.212 6.626 2.453 11.796 2.759 11.49.305-.305 1.052 2.49 1.66 6.213.607 3.722 1.626 11.806 2.264 17.964.657 6.347.953 18.694.684 28.5-.338 12.317-1.116 20.473-2.699 28.303-1.223 6.05-4.15 16.85-6.503 24-2.354 7.15-6.87 18.175-10.038 24.5-3.166 6.325-9.06 16.51-13.096 22.635-4.036 6.124-10.561 15.124-14.5 20-3.938 4.876-11.044 12.842-15.79 17.702-4.745 4.86-12.551 12.192-17.346 16.291-4.795 4.1-13.57 10.856-19.5 15.016s-14.65 9.511-19.378 11.892c-4.728 2.381-11.318 5.035-14.644 5.897-3.327.862-8.909 1.537-12.404 1.501-3.496-.036-8.709-.7-11.585-1.474zm33.269-131.975c3.278-.833 9.314-3.153 13.414-5.155 5.318-2.598 9.51-5.697 14.632-10.82 5.19-5.19 8.166-9.234 10.741-14.594 1.959-4.079 4.084-9.666 4.723-12.416.64-2.75 1.162-8.6 1.162-13s-.52-10.25-1.155-13c-.636-2.75-2.713-8.15-4.617-12-1.903-3.85-5.593-9.371-8.2-12.27-4.114-4.574-5.07-5.167-7.24-4.5-1.375.424-3.27 1.229-4.213 1.79-1.556.925-1.608 1.852-.564 10.119 1.027 8.14.955 9.605-.679 13.884-1.005 2.631-3.422 6.55-5.372 8.708-1.95 2.159-5.824 5.08-8.609 6.492-3.898 1.977-6.63 2.582-11.875 2.631-3.96.037-7.1-.399-7.5-1.042-.378-.608-2.495-1.59-4.703-2.184-2.209-.593-6.087-2.392-8.62-3.998-2.531-1.606-5.773-4.454-7.204-6.33-1.43-1.876-3.58-5.624-4.777-8.33-1.492-3.371-2.186-6.973-2.208-11.445-.017-3.589.298-7.518.7-8.732.693-2.091.559-2.065-2.572.5-1.817 1.489-5.437 4.891-8.044 7.56-2.608 2.67-6.28 7.395-8.163 10.5-1.881 3.106-4.442 8.572-5.69 12.147-1.884 5.398-2.241 8.365-2.108 17.5.088 6.05.282 12.42.43 14.155.15 1.734.685 2.898 1.19 2.585.507-.312.647.145.312 1.017-.351.917.656 3.494 2.39 6.112 1.648 2.489 5.712 7.038 9.03 10.11 3.317 3.071 8.803 7 12.19 8.73 3.388 1.73 8.859 3.935 12.159 4.898 3.733 1.089 9.604 1.777 15.54 1.822 5.477.04 12.078-.574 15.5-1.444zm-127.56-3.844c4.112-1.43 10.532-4.688 14.27-7.241 3.736-2.553 8.629-6.725 10.873-9.271 2.243-2.546 5.235-6.6 6.65-9.01 1.413-2.409 3.638-7.321 4.943-10.917 1.305-3.595 2.622-9.949 2.926-14.12A53.256 53.256 0 0 0 241.605 270c-.875-4.125-2.998-10.366-4.719-13.869-1.82-3.707-5.801-9.14-9.524-13-3.518-3.647-6.276-5.967-6.129-5.155.158.872-.654 1.617-1.983 1.82-1.296.198-2.256 1.056-2.265 2.024-.012 1.26-.22 1.357-.836.387-.455-.717-.616 1.289-.36 4.5.253 3.186.815 6.478 1.249 7.315.434.838.394 3.637-.089 6.22-.482 2.583-1.76 6.429-2.84 8.546-1.08 2.116-3.728 5.442-5.883 7.389s-5.993 4.333-8.529 5.3c-3.33 1.272-6.48 1.642-11.34 1.333-3.97-.253-6.893-.917-7.127-1.62-.218-.654-1.147-1.2-2.063-1.212-.917-.012-3.529-.867-5.804-1.9-2.275-1.034-6.023-3.583-8.328-5.665-2.305-2.082-5.39-6.065-6.858-8.85-2.352-4.463-2.668-6.2-2.672-14.662-.003-6.534-.324-9.216-1.005-8.4-.55.66-2.723 2.473-4.83 4.03-2.106 1.555-5.756 5.335-8.11 8.398-2.355 3.064-5.43 7.84-6.833 10.614-1.403 2.773-3.306 7.642-4.23 10.818-1.137 3.913-1.616 8.818-1.483 15.208.107 5.187.26 10.963.34 12.836.08 1.872.514 3.177.963 2.9.45-.279.733.102.631.845-.102.742-.132 1.868-.067 2.5.066.634 2.166 3.875 4.667 7.203 2.502 3.327 7.23 8.066 10.507 10.53 3.277 2.463 8.486 5.674 11.576 7.136 3.09 1.461 8.374 3.287 11.743 4.056 3.853.88 9.839 1.263 16.13 1.032 7.476-.274 11.89-1.023 17.477-2.966z" transform="matrix(.04712 0 0 .0471 -.026 -.044)"/><path style="display:inline;fill:#fd7765" d="M288.859 459.152c-3.653-.954-9.278-3.349-12.5-5.323-3.223-1.975-8.207-4.769-11.076-6.21-2.869-1.44-6.375-2.619-7.79-2.619-1.416 0-7.547 2.05-13.625 4.555-6.079 2.505-14.498 5.437-18.71 6.516-4.212 1.08-12.87 2.244-19.242 2.59-7.058.382-15.46.152-21.5-.59-5.454-.67-13.516-2.123-17.916-3.228-4.4-1.104-11.825-3.584-16.5-5.51-4.675-1.926-11.875-5.338-16-7.584-4.125-2.245-12.026-7.142-17.557-10.881-5.532-3.74-13.439-9.685-17.572-13.21-4.132-3.527-10.754-9.955-14.715-14.285-3.961-4.33-10.1-11.923-13.644-16.873-3.543-4.95-8.945-13.807-12.004-19.682-3.06-5.875-7.297-16-9.416-22.5-2.12-6.5-4.919-16.993-6.22-23.318-1.969-9.565-2.363-14.445-2.346-29 .018-14.647.48-20.109 2.829-33.5 1.544-8.8 4.311-21.85 6.15-29 1.837-7.15 4.763-17.05 6.5-22 1.739-4.95 5.089-12.891 7.446-17.648 2.356-4.756 6.43-11.844 9.051-15.752 2.622-3.907 7.441-10.023 10.71-13.59 3.27-3.568 9.908-9.138 14.754-12.38 4.845-3.24 11.673-6.835 15.172-7.986 3.499-1.152 9.287-2.774 12.862-3.604 3.575-.83 11.154-1.517 16.843-1.525 6.464-.01 14.026.736 20.164 1.986 5.402 1.101 14.018 3.373 19.147 5.05 5.128 1.675 14.389 5.5 20.578 8.498 6.19 2.998 11.421 5.451 11.626 5.451.205 0-.416-2.363-1.382-5.25-.965-2.888-4.32-12.45-7.457-21.25-3.137-8.8-8.423-22.75-11.747-31s-8.289-19.5-11.032-25c-2.744-5.5-6.564-12.381-8.49-15.292-1.925-2.91-3.331-5.44-3.125-5.624.206-.182 8.025-6.147 17.375-13.254 9.35-7.107 17.551-13.259 18.225-13.67.849-.518 2.9 2.727 6.67 10.546 2.994 6.212 7.68 18.044 10.411 26.294 2.732 8.25 6.931 22.977 9.33 32.727 2.4 9.75 4.618 17.738 4.929 17.75.31.013 1.361-1.665 2.335-3.727.973-2.063 4.614-8.025 8.09-13.25 3.477-5.225 8.871-12.307 11.989-15.738 3.117-3.431 9.244-9.1 13.615-12.597 4.37-3.497 12.355-8.664 17.742-11.481 5.388-2.817 13.816-6.435 18.73-8.04C315.48 46.539 324 44.404 329.5 43.4c7.236-1.32 14.698-1.813 27-1.781 11.715.03 20.1.597 26.974 1.822 5.486.979 11.06 2.192 12.387 2.696 2.405.915 2.41.945 1.855 12.64-.34 7.176-1.31 14.244-2.498 18.223-1.068 3.575-3.38 9.946-5.135 14.158-1.756 4.211-5.855 11.698-9.108 16.637-3.254 4.938-8.148 11.421-10.876 14.407-4.96 5.427-4.96 5.427 5.22 7.702 5.6 1.252 13.115 3.498 16.7 4.992 3.585 1.494 9.21 4.548 12.5 6.788 3.29 2.24 8.387 6.485 11.327 9.433 2.94 2.948 7.924 9.215 11.075 13.926 3.151 4.71 7.135 11.941 8.852 16.067 1.718 4.126 4.277 11.485 5.688 16.353 1.41 4.868 3.438 13.168 4.505 18.444 1.066 5.276 2.43 13.418 3.031 18.093.601 4.675 1.356 15.925 1.678 25 .45 12.678.197 19.164-1.088 28-.92 6.325-3.202 17.35-5.07 24.5-1.87 7.15-5.03 17.035-7.023 21.966-1.992 4.931-5.617 12.828-8.055 17.548-2.438 4.72-7.503 13.285-11.256 19.034-3.752 5.749-10.459 15.004-14.904 20.568-4.444 5.564-12.91 14.946-18.814 20.85-5.903 5.902-15.285 14.365-20.85 18.804-5.563 4.44-14.165 10.742-19.115 14.005-4.95 3.263-12.416 7.656-16.592 9.76-4.175 2.106-10.315 4.534-13.644 5.397-3.33.862-8.913 1.542-12.408 1.51-3.496-.031-9.345-.837-12.997-1.79zm43.017-119.795c2.957-.769 8.35-2.85 11.987-4.627 4.396-2.148 9.17-5.742 14.248-10.73 5.098-5.007 8.708-9.632 10.86-13.914 1.773-3.528 3.85-8.478 4.614-11 .765-2.522 1.664-7.961 1.998-12.086.412-5.095.11-9.835-.941-14.781-.851-4.005-3.031-10.296-4.845-13.98-1.813-3.685-5.997-9.593-9.297-13.13-3.3-3.538-8.352-7.941-11.227-9.786-2.875-1.845-6.346-3.78-7.714-4.3-2.407-.916-2.382-.808.806 3.367 1.81 2.373 3.88 6.411 4.597 8.975.778 2.776 1.11 7.383.821 11.398-.293 4.09-1.33 8.396-2.64 10.96-1.186 2.323-3.802 5.87-5.813 7.88-2.012 2.012-6.131 4.79-9.155 6.174-4.11 1.882-7.16 2.516-12.086 2.512-4.632-.004-8.154-.68-11.86-2.28-3.363-1.45-7.033-4.202-10.143-7.605-2.772-3.033-5.567-7.366-6.48-10.047-.883-2.592-1.606-7.328-1.606-10.524 0-3.366.831-8 1.975-11.009 1.105-2.907 3.858-7.116 6.25-9.554 4.275-4.357 4.275-4.357-.054-2.83-2.381.84-7.106 2.98-10.5 4.754-3.605 1.884-9.082 6.154-13.171 10.266-4.456 4.482-8.174 9.402-10.232 13.54-1.778 3.575-3.915 9.182-4.75 12.46-.835 3.278-1.518 9.596-1.518 14.04 0 4.444.688 10.72 1.528 13.948.841 3.227 3.197 9.06 5.236 12.96 2.321 4.44 6.175 9.538 10.308 13.632 3.92 3.884 9.408 8.009 13.514 10.157 3.803 1.99 8.939 4.165 11.414 4.834 2.475.668 6.75 1.57 9.5 2.005 2.75.434 8.15.549 12 .254 3.85-.295 9.42-1.165 12.376-1.933zm-134.336-1.872c3.278-.833 9.335-3.15 13.46-5.15 5.59-2.708 9.41-5.57 15-11.234 4.866-4.932 8.635-9.884 10.732-14.101 1.778-3.575 3.915-9.182 4.75-12.46.835-3.278 1.511-9.128 1.503-13-.008-3.872-.693-9.919-1.522-13.437-.83-3.518-3.165-9.593-5.19-13.5-2.32-4.478-6.102-9.505-10.232-13.603-3.604-3.575-9.377-7.997-12.83-9.826-6.277-3.327-6.277-3.327-3.263 1 1.658 2.38 3.732 7.17 4.61 10.647 1.008 3.996 1.35 7.857.929 10.5-.366 2.298-1.692 6.468-2.946 9.265-1.254 2.798-3.926 6.733-5.937 8.744-2.012 2.01-5.558 4.669-7.88 5.906-3.48 1.853-5.81 2.25-13.224 2.25-7.414 0-9.744-.397-13.222-2.25-2.322-1.236-5.792-3.626-7.71-5.31-1.918-1.685-4.671-5.482-6.118-8.438-1.5-3.065-2.859-7.902-3.162-11.253a30.83 30.83 0 0 1 1.084-11.443c1.116-3.839 3.081-7.192 6.337-10.814 4.047-4.5 4.368-5.145 2.255-4.518-1.355.402-5.839 2.369-9.964 4.372-5.32 2.583-9.549 5.679-14.55 10.654-4.593 4.57-8.332 9.49-10.728 14.117-2.022 3.907-4.355 9.982-5.185 13.5-.829 3.518-1.507 9.322-1.507 12.897 0 3.575.683 9.401 1.52 12.947.835 3.546 2.963 9.396 4.727 13 2.134 4.358 5.723 9.099 10.716 14.154 5.584 5.653 9.428 8.532 15.007 11.24 4.125 2 9.975 4.288 13 5.083 3.025.794 9.568 1.474 14.54 1.51 5.016.037 11.692-.608 15-1.449z" transform="matrix(.04712 0 0 .0471 -.026 -.044)"/><path style="display:inline;fill:#eb3903" d="M288.859 459.152c-3.653-.954-9.278-3.349-12.5-5.323-3.223-1.975-8.207-4.769-11.076-6.21-2.869-1.44-6.375-2.619-7.79-2.619-1.416 0-7.547 2.05-13.625 4.555-6.079 2.505-14.498 5.437-18.71 6.516-4.212 1.08-12.87 2.244-19.242 2.59-7.058.382-15.46.152-21.5-.59-5.454-.67-13.516-2.123-17.916-3.228-4.4-1.104-11.825-3.584-16.5-5.51-4.675-1.926-11.875-5.338-16-7.584-4.125-2.245-12.026-7.142-17.557-10.881-5.532-3.74-13.439-9.685-17.572-13.21-4.132-3.527-10.754-9.955-14.715-14.285-3.961-4.33-10.1-11.923-13.644-16.873-3.543-4.95-8.945-13.807-12.004-19.682-3.06-5.875-7.297-16-9.416-22.5-2.12-6.5-4.919-16.993-6.22-23.318-1.969-9.565-2.363-14.445-2.346-29 .018-14.647.48-20.109 2.829-33.5 1.544-8.8 4.311-21.85 6.15-29 1.837-7.15 4.763-17.05 6.5-22 1.739-4.95 5.089-12.891 7.446-17.648 2.356-4.756 6.43-11.844 9.051-15.752 2.622-3.907 7.441-10.023 10.71-13.59 3.27-3.568 9.908-9.138 14.754-12.38 4.845-3.24 11.673-6.835 15.172-7.986 3.499-1.152 9.287-2.774 12.862-3.604 3.575-.83 11.154-1.517 16.843-1.525 6.464-.01 14.026.736 20.164 1.986 5.402 1.101 14.018 3.373 19.147 5.05 5.128 1.675 14.389 5.5 20.578 8.498 6.19 2.998 11.421 5.451 11.626 5.451.205 0-.416-2.363-1.382-5.25-.965-2.888-4.32-12.45-7.457-21.25-3.137-8.8-8.423-22.75-11.747-31s-8.289-19.5-11.032-25c-2.744-5.5-6.564-12.381-8.49-15.292-1.925-2.91-3.331-5.44-3.125-5.624.206-.182 8.025-6.147 17.375-13.254 9.35-7.107 17.551-13.259 18.225-13.67.849-.518 2.9 2.727 6.67 10.546 2.994 6.212 7.68 18.044 10.411 26.294 2.732 8.25 6.931 22.977 9.33 32.727 2.4 9.75 4.618 17.738 4.929 17.75.31.013 1.361-1.665 2.335-3.727.973-2.063 4.614-8.025 8.09-13.25 3.477-5.225 8.871-12.307 11.989-15.738 3.117-3.431 9.244-9.1 13.615-12.597 4.37-3.497 12.355-8.664 17.742-11.481 5.388-2.817 13.816-6.435 18.73-8.04C315.48 46.539 324 44.404 329.5 43.4c7.236-1.32 14.698-1.813 27-1.781 11.715.03 20.1.597 26.974 1.822 5.486.979 11.06 2.192 12.387 2.696 2.405.915 2.41.945 1.855 12.64-.34 7.176-1.31 14.244-2.498 18.223-1.068 3.575-3.38 9.946-5.135 14.158-1.756 4.211-5.855 11.698-9.108 16.637-3.254 4.938-8.148 11.421-10.876 14.407-4.96 5.427-4.96 5.427 5.22 7.702 5.6 1.252 13.115 3.498 16.7 4.992 3.585 1.494 9.21 4.548 12.5 6.788 3.29 2.24 8.387 6.485 11.327 9.433 2.94 2.948 7.924 9.215 11.075 13.926 3.151 4.71 7.135 11.941 8.852 16.067 1.718 4.126 4.277 11.485 5.688 16.353 1.41 4.868 3.438 13.168 4.505 18.444 1.066 5.276 2.43 13.418 3.031 18.093.601 4.675 1.356 15.925 1.678 25 .45 12.678.197 19.164-1.088 28-.92 6.325-3.202 17.35-5.07 24.5-1.87 7.15-5.03 17.035-7.023 21.966-1.992 4.931-5.617 12.828-8.055 17.548-2.438 4.72-7.503 13.285-11.256 19.034-3.752 5.749-10.459 15.004-14.904 20.568-4.444 5.564-12.91 14.946-18.814 20.85-5.903 5.902-15.285 14.365-20.85 18.804-5.563 4.44-14.165 10.742-19.115 14.005-4.95 3.263-12.416 7.656-16.592 9.76-4.175 2.106-10.315 4.534-13.644 5.397-3.33.862-8.913 1.542-12.408 1.51-3.496-.031-9.345-.837-12.997-1.79zm-218.686-115.9c-.18-11.414.178-25.702.793-31.752.616-6.05 2.265-16.14 3.665-22.421 1.4-6.282 3.902-15.282 5.56-20 1.658-4.719 5.432-13.304 8.388-19.079 2.956-5.775 8.286-14.366 11.846-19.092 3.56-4.726 10.232-12.15 14.828-16.5s12.19-10.484 16.876-13.633c4.686-3.148 13.661-8.195 19.945-11.214 6.284-3.019 16.158-7.037 21.941-8.93 5.784-1.892 16.185-4.608 23.115-6.035 6.93-1.428 13.534-2.596 14.676-2.596 1.142 0 2.315-.386 2.607-.858.291-.473-3.62-3.152-8.691-5.954-5.072-2.803-13.844-6.945-19.494-9.205s-14.568-5.2-19.818-6.53c-5.25-1.332-13.677-2.688-18.727-3.014-6.188-.399-11.792-.111-17.183.881-4.4.81-10.54 2.435-13.646 3.61-3.105 1.174-8.374 3.9-11.709 6.054-3.334 2.156-8.762 6.66-12.06 10.01-3.299 3.35-8.255 9.467-11.015 13.593-2.759 4.125-6.83 11.317-9.046 15.981-2.216 4.665-5.781 13.758-7.923 20.207-2.142 6.449-5.042 16.9-6.444 23.225-1.402 6.325-3.543 18.025-4.756 26-1.343 8.823-2.192 19.002-2.17 26 .02 6.325.567 15.1 1.215 19.5.647 4.4 2.286 12.275 3.641 17.5 1.356 5.225 3.645 12.65 5.088 16.5 1.443 3.85 3.912 9.588 5.488 12.75 1.576 3.163 2.972 5.75 3.101 5.751.13 0 .09-9.337-.09-20.75zm261.703-3.895c2.957-.769 8.35-2.85 11.987-4.627 4.396-2.148 9.17-5.742 14.248-10.73 5.098-5.007 8.708-9.632 10.86-13.914 1.773-3.528 3.85-8.478 4.614-11 .765-2.522 1.664-7.961 1.998-12.086.412-5.094.11-9.835-.941-14.781-.851-4.005-3.031-10.296-4.845-13.98-1.813-3.685-5.997-9.593-9.297-13.13-3.3-3.538-8.352-7.941-11.227-9.786-2.875-1.845-6.346-3.78-7.714-4.3-2.407-.916-2.382-.808.806 3.367 1.81 2.373 3.88 6.411 4.597 8.975.778 2.776 1.11 7.383.821 11.398-.293 4.09-1.33 8.396-2.64 10.96-1.186 2.323-3.802 5.87-5.813 7.88-2.012 2.012-6.131 4.79-9.155 6.174-4.11 1.882-7.16 2.516-12.086 2.512-4.632-.004-8.154-.68-11.86-2.28-3.363-1.45-7.033-4.202-10.143-7.605-2.772-3.033-5.567-7.366-6.48-10.047-.883-2.592-1.606-7.328-1.606-10.524 0-3.366.831-8 1.975-11.009 1.105-2.907 3.858-7.116 6.25-9.554 4.275-4.357 4.275-4.357-.054-2.83-2.381.84-7.106 2.98-10.5 4.754-3.605 1.884-9.082 6.154-13.171 10.266-4.456 4.482-8.174 9.402-10.232 13.54-1.778 3.575-3.915 9.182-4.75 12.46-.835 3.278-1.518 9.596-1.518 14.04 0 4.444.688 10.72 1.528 13.948.841 3.227 3.197 9.06 5.236 12.96 2.321 4.44 6.175 9.538 10.308 13.632 3.92 3.884 9.408 8.009 13.514 10.157 3.803 1.99 8.939 4.165 11.414 4.834 2.475.668 6.75 1.57 9.5 2.005 2.75.434 8.15.549 12 .254 3.85-.295 9.42-1.165 12.376-1.933zm-134.336-1.872c3.278-.833 9.335-3.15 13.46-5.15 5.59-2.708 9.41-5.57 15-11.234 4.866-4.932 8.635-9.884 10.732-14.101 1.778-3.575 3.915-9.182 4.75-12.46.835-3.278 1.511-9.128 1.503-13-.008-3.872-.693-9.919-1.522-13.437-.83-3.518-3.165-9.593-5.19-13.5-2.32-4.478-6.102-9.505-10.232-13.603-3.604-3.575-9.377-7.997-12.83-9.826-6.277-3.327-6.277-3.327-3.263 1 1.658 2.38 3.732 7.17 4.61 10.647 1.008 3.996 1.35 7.857.929 10.5-.366 2.298-1.692 6.468-2.946 9.265-1.254 2.798-3.926 6.733-5.937 8.744-2.012 2.01-5.558 4.669-7.88 5.906-3.48 1.853-5.81 2.25-13.224 2.25-7.414 0-9.744-.397-13.222-2.25-2.322-1.236-5.792-3.626-7.71-5.31-1.918-1.685-4.671-5.482-6.118-8.438-1.5-3.065-2.859-7.902-3.162-11.253a30.83 30.83 0 0 1 1.084-11.443c1.116-3.839 3.081-7.192 6.337-10.814 4.047-4.5 4.368-5.145 2.255-4.518-1.355.402-5.839 2.369-9.964 4.372-5.32 2.583-9.549 5.679-14.55 10.654-4.593 4.57-8.332 9.49-10.728 14.117-2.022 3.907-4.355 9.982-5.185 13.5-.829 3.518-1.507 9.322-1.507 12.897 0 3.575.683 9.401 1.52 12.947.835 3.546 2.963 9.396 4.727 13 2.134 4.358 5.723 9.099 10.716 14.154 5.584 5.653 9.428 8.532 15.007 11.24 4.125 2 9.975 4.288 13 5.083 3.025.794 9.568 1.474 14.54 1.51 5.016.037 11.692-.608 15-1.449zM203.583 75c-2.874-12.375-5.542-23.744-5.927-25.265-.702-2.765-.702-2.765-6.112 1.32-5.41 4.084-5.41 4.084-1.38 10.265 2.218 3.399 6.862 12.03 10.32 19.18 3.46 7.15 6.607 14.046 6.994 15.325.388 1.28.845 2.18 1.018 2 .172-.179-2.04-10.45-4.913-22.825z" transform="matrix(.04712 0 0 .0471 -.026 -.044)"/><path style="display:inline;fill:#5f5e5e" d="M288.859 459.152c-3.653-.954-9.278-3.349-12.5-5.323-3.223-1.975-8.207-4.769-11.076-6.21-2.869-1.44-6.375-2.619-7.79-2.619-1.416 0-7.547 2.05-13.625 4.555-6.079 2.505-14.498 5.437-18.71 6.516-4.212 1.08-12.87 2.244-19.242 2.59-7.058.382-15.46.152-21.5-.59-5.454-.67-13.516-2.123-17.916-3.228-4.4-1.104-11.825-3.584-16.5-5.51-4.675-1.926-11.875-5.338-16-7.584-4.125-2.245-12.026-7.142-17.557-10.881-5.532-3.74-13.439-9.685-17.572-13.21-4.132-3.527-10.754-9.955-14.715-14.285-3.961-4.33-10.1-11.923-13.644-16.873-3.543-4.95-8.945-13.807-12.004-19.682-3.06-5.875-7.297-16-9.416-22.5-2.12-6.5-4.919-16.993-6.22-23.318-1.969-9.565-2.363-14.445-2.346-29 .018-14.647.48-20.109 2.829-33.5 1.544-8.8 4.311-21.85 6.15-29 1.837-7.15 4.763-17.05 6.5-22 1.739-4.95 5.089-12.891 7.446-17.648 2.356-4.756 6.43-11.844 9.051-15.752 2.622-3.907 7.441-10.023 10.71-13.59 3.27-3.568 9.908-9.138 14.754-12.38 4.845-3.24 11.673-6.835 15.172-7.986 3.499-1.152 9.287-2.774 12.862-3.604 3.575-.83 11.154-1.517 16.843-1.525 6.464-.01 14.026.736 20.164 1.986 5.402 1.101 14.018 3.373 19.147 5.05 5.128 1.675 14.389 5.5 20.578 8.498 6.19 2.998 11.421 5.451 11.626 5.451.205 0-.416-2.363-1.382-5.25-.965-2.888-4.32-12.45-7.457-21.25-3.137-8.8-8.423-22.75-11.747-31s-8.289-19.5-11.032-25c-2.744-5.5-6.564-12.381-8.49-15.292-1.925-2.91-3.331-5.44-3.125-5.624.206-.182 8.025-6.147 17.375-13.254 9.35-7.107 17.551-13.259 18.225-13.67.849-.518 2.9 2.727 6.67 10.546 2.994 6.212 7.68 18.044 10.411 26.294 2.732 8.25 6.931 22.977 9.33 32.727 2.4 9.75 4.618 17.738 4.929 17.75.31.013 1.361-1.665 2.335-3.727.973-2.063 4.614-8.025 8.09-13.25 3.477-5.225 8.871-12.307 11.989-15.738 3.117-3.431 9.244-9.1 13.615-12.597 4.37-3.497 12.355-8.664 17.742-11.481 5.388-2.817 13.816-6.435 18.73-8.04C315.48 46.539 324 44.404 329.5 43.4c7.236-1.32 14.698-1.813 27-1.781 11.715.03 20.1.597 26.974 1.822 5.486.979 11.06 2.192 12.387 2.696 2.405.915 2.41.945 1.855 12.64-.34 7.176-1.31 14.244-2.498 18.223-1.068 3.575-3.38 9.946-5.135 14.158-1.756 4.211-5.855 11.698-9.108 16.637-3.254 4.938-8.148 11.421-10.876 14.407-4.96 5.427-4.96 5.427 5.22 7.702 5.6 1.252 13.115 3.498 16.7 4.992 3.585 1.494 9.21 4.548 12.5 6.788 3.29 2.24 8.387 6.485 11.327 9.433 2.94 2.948 7.924 9.215 11.075 13.926 3.151 4.71 7.135 11.941 8.852 16.067 1.718 4.126 4.277 11.485 5.688 16.353 1.41 4.868 3.438 13.168 4.505 18.444 1.066 5.276 2.43 13.418 3.031 18.093.601 4.675 1.356 15.925 1.678 25 .45 12.678.197 19.164-1.088 28-.92 6.325-3.202 17.35-5.07 24.5-1.87 7.15-5.03 17.035-7.023 21.966-1.992 4.931-5.617 12.828-8.055 17.548-2.438 4.72-7.503 13.285-11.256 19.034-3.752 5.749-10.459 15.004-14.904 20.568-4.444 5.564-12.91 14.946-18.814 20.85-5.903 5.902-15.285 14.365-20.85 18.804-5.563 4.44-14.165 10.742-19.115 14.005-4.95 3.263-12.416 7.656-16.592 9.76-4.175 2.106-10.315 4.534-13.644 5.397-3.33.862-8.913 1.542-12.408 1.51-3.496-.031-9.345-.837-12.997-1.79zM320.5 444.18c4.95-2.375 13.448-7.278 18.885-10.894 5.437-3.617 13.987-9.967 19-14.112s13.4-11.867 18.64-17.161c5.238-5.294 12.583-13.426 16.322-18.07 3.74-4.644 9.944-13.123 13.789-18.841 3.844-5.719 9.88-16.294 13.412-23.5 3.533-7.207 7.984-17.903 9.891-23.77 1.908-5.866 4.502-15.766 5.765-22 1.966-9.706 2.289-14.275 2.245-31.833-.027-11.275-.603-24.55-1.28-29.5-.675-4.95-2.143-13.61-3.26-19.245-1.118-5.635-3.305-13.96-4.86-18.5-1.555-4.54-3.772-10.42-4.928-13.064-1.155-2.645-4.122-7.933-6.592-11.752-2.47-3.818-6.37-8.981-8.668-11.474-2.298-2.493-7.4-6.687-11.339-9.322-4.337-2.901-10.682-5.943-16.091-7.716-8.318-2.726-9.996-2.927-24.431-2.927-11.07 0-17.93.512-24 1.792-4.675.985-13 3.164-18.5 4.842-5.5 1.678-14.854 5.033-20.786 7.454-5.933 2.422-17.858 7.946-26.5 12.276-8.643 4.33-19.207 9.938-23.477 12.463-7.763 4.59-7.763 4.59-19.1-2.8-6.234-4.066-15.566-9.645-20.736-12.397-5.17-2.753-13.451-6.637-18.401-8.63-4.95-1.993-13.5-4.807-19-6.253-8.45-2.22-12.092-2.625-23.5-2.61-11.893.014-14.452.331-21.5 2.664-4.4 1.456-10.907 4.347-14.46 6.423-3.552 2.077-9.455 6.701-13.117 10.276-3.661 3.575-9.224 10.442-12.36 15.26-3.137 4.82-7.204 12.02-9.04 16-1.834 3.982-4.892 11.74-6.795 17.24-1.903 5.5-4.628 14.95-6.056 21-1.428 6.05-3.507 16.4-4.621 23-1.114 6.6-2.505 16.275-3.092 21.5-.586 5.225-.787 13.325-.445 18 .342 4.675 1.483 13.498 2.536 19.607 1.054 6.11 3.28 15.281 4.946 20.382 1.667 5.1 4.751 12.927 6.854 17.392 2.103 4.466 5.755 11.269 8.115 15.119 2.36 3.85 7.101 10.6 10.535 15s10.27 11.874 15.191 16.61c4.921 4.734 12.303 11.09 16.404 14.123 4.101 3.033 10.595 7.444 14.43 9.804 3.837 2.359 11.124 6.263 16.195 8.675 5.07 2.413 12.496 5.514 16.5 6.893 4.004 1.378 12.005 3.147 17.78 3.93 5.775.785 14.379 1.435 19.119 1.445 4.74.011 12.485-.654 17.21-1.478 5.112-.892 13.771-3.596 21.381-6.678 7.53-3.049 14.91-5.36 17.947-5.618 4.086-.347 6.369.115 11 2.226 3.213 1.466 8.867 4.487 12.563 6.713 3.696 2.227 8.646 4.671 11 5.433 2.53.818 7.552 1.29 12.28 1.153 7.127-.206 8.982-.702 17-4.55zm-23.229-93.605c-5.076-1.345-12.5-4.154-16.5-6.242-5.086-2.656-9.833-6.357-15.796-12.316-4.987-4.983-10.12-11.308-12.367-15.242-3.842-6.725-3.842-6.725-7.864-.5-2.212 3.423-5.583 8.13-7.492 10.46-1.909 2.33-6.502 6.484-10.207 9.23-3.705 2.748-9.703 6.383-13.33 8.08-3.625 1.697-10.782 3.95-15.903 5.006-5.122 1.057-12.012 1.918-15.312 1.913-3.3-.005-10.05-.903-15-1.996-4.95-1.093-12.15-3.494-16-5.334-3.85-1.841-9.84-5.495-13.31-8.12-3.47-2.626-8.514-7.499-11.209-10.83-2.695-3.33-6.243-8.576-7.885-11.656-1.641-3.08-4.007-9.183-5.258-13.564-1.715-6.007-2.273-10.546-2.273-18.465 0-7.92.558-12.458 2.273-18.465 1.25-4.38 3.617-10.485 5.258-13.564 1.642-3.08 5.19-8.325 7.885-11.656 2.695-3.331 7.74-8.204 11.21-10.83 3.47-2.625 9.459-6.279 13.309-8.12 3.85-1.84 11.05-4.24 16-5.334 4.95-1.093 11.7-1.992 15-1.996 3.3-.005 10.122.842 15.16 1.882s12.012 3.17 15.497 4.734c3.486 1.564 9.742 5.369 13.904 8.454 4.55 3.374 9.638 8.359 12.761 12.503 2.858 3.79 6.273 9.03 7.59 11.644 2.395 4.752 2.395 4.752 5.36-.5 1.631-2.888 5.025-7.778 7.541-10.866 2.516-3.087 7.688-7.921 11.492-10.742 3.805-2.82 9.383-6.256 12.396-7.636 3.013-1.38 9.038-3.442 13.389-4.583 4.79-1.257 11.46-2.133 16.91-2.221 5.567-.09 12.052.542 17 1.658 4.4.993 11.6 3.535 16 5.651 4.4 2.116 10.69 6.027 13.976 8.691 3.286 2.665 8.066 7.439 10.62 10.61 2.555 3.17 6.052 8.56 7.772 11.976 1.72 3.415 4.029 9.77 5.13 14.12 1.286 5.081 1.997 11.16 1.987 17-.01 5.689-.754 12.02-1.99 16.923-1.085 4.308-3.555 10.833-5.488 14.5-1.934 3.667-5.554 9.228-8.045 12.358-2.492 3.13-7.327 7.807-10.746 10.394-3.419 2.587-9.366 6.2-13.216 8.027-3.85 1.829-9.7 4.062-13 4.962-3.3.9-10.95 1.82-17 2.042-9.336.344-12.396.035-20.229-2.04zm34.605-11.22c2.957-.768 8.35-2.85 11.987-4.626 4.396-2.148 9.17-5.742 14.248-10.73 5.098-5.007 8.708-9.632 10.86-13.914 1.773-3.528 3.85-8.478 4.614-11 .765-2.522 1.664-7.961 1.998-12.086.412-5.094.11-9.835-.941-14.781-.851-4.005-3.031-10.296-4.845-13.98-1.813-3.685-5.997-9.593-9.297-13.13-3.3-3.538-8.352-7.941-11.227-9.786-2.875-1.845-6.346-3.78-7.714-4.3-2.407-.916-2.382-.808.806 3.367 1.81 2.373 3.88 6.411 4.597 8.975.778 2.776 1.11 7.383.821 11.398-.293 4.09-1.33 8.396-2.64 10.96-1.186 2.323-3.802 5.87-5.813 7.88-2.012 2.012-6.131 4.79-9.155 6.174-4.11 1.882-7.16 2.516-12.086 2.512-4.632-.004-8.154-.68-11.86-2.28-3.363-1.45-7.033-4.202-10.143-7.605-2.772-3.033-5.567-7.366-6.48-10.047-.883-2.592-1.606-7.328-1.606-10.524 0-3.366.831-8 1.975-11.009 1.105-2.907 3.858-7.116 6.25-9.554 4.275-4.357 4.275-4.357-.054-2.83-2.381.84-7.106 2.98-10.5 4.754-3.605 1.884-9.082 6.154-13.171 10.266-4.456 4.482-8.174 9.402-10.232 13.54-1.778 3.575-3.915 9.182-4.75 12.46-.835 3.278-1.518 9.596-1.518 14.04 0 4.444.688 10.72 1.528 13.948.841 3.227 3.197 9.06 5.236 12.96 2.321 4.44 6.175 9.538 10.308 13.632 3.92 3.884 9.408 8.009 13.514 10.157 3.803 1.99 8.939 4.165 11.414 4.834 2.475.668 6.75 1.57 9.5 2.005 2.75.434 8.15.549 12 .254 3.85-.295 9.42-1.165 12.376-1.933zm-134.336-1.871c3.278-.833 9.335-3.15 13.46-5.15 5.59-2.708 9.41-5.57 15-11.234 4.866-4.932 8.635-9.884 10.732-14.101 1.778-3.575 3.915-9.182 4.75-12.46.835-3.278 1.511-9.128 1.503-13-.008-3.872-.693-9.919-1.522-13.437-.83-3.518-3.165-9.593-5.19-13.5-2.32-4.478-6.102-9.505-10.232-13.603-3.604-3.575-9.377-7.997-12.83-9.826-6.277-3.327-6.277-3.327-3.263 1 1.658 2.38 3.732 7.17 4.61 10.647 1.008 3.996 1.35 7.857.929 10.5-.366 2.298-1.692 6.468-2.946 9.265-1.254 2.798-3.926 6.733-5.937 8.744-2.012 2.01-5.558 4.669-7.88 5.906-3.48 1.853-5.81 2.25-13.224 2.25-7.414 0-9.744-.397-13.222-2.25-2.322-1.236-5.792-3.626-7.71-5.31-1.918-1.685-4.671-5.482-6.118-8.438-1.5-3.065-2.859-7.902-3.162-11.253a30.83 30.83 0 0 1 1.084-11.443c1.116-3.839 3.081-7.192 6.337-10.814 4.047-4.5 4.368-5.145 2.255-4.518-1.355.402-5.839 2.369-9.964 4.372-5.32 2.583-9.549 5.679-14.55 10.654-4.593 4.57-8.332 9.49-10.728 14.117-2.022 3.907-4.355 9.982-5.185 13.5-.829 3.518-1.507 9.322-1.507 12.897 0 3.575.683 9.401 1.52 12.947.835 3.546 2.963 9.396 4.727 13 2.134 4.358 5.723 9.099 10.716 14.154 5.584 5.653 9.428 8.532 15.007 11.24 4.125 2 9.975 4.288 13 5.083 3.025.794 9.568 1.474 14.54 1.51 5.016.037 11.692-.608 15-1.449zM204.26 75.5c-3.594-15.4-6.69-28.18-6.88-28.399-.19-.219-2.04.803-4.113 2.271-2.072 1.468-4.595 3.301-5.606 4.073-1.746 1.334-1.613 1.776 2.642 8.785 2.464 4.06 6.488 11.406 8.941 16.326 2.454 4.92 5.962 12.647 7.796 17.173 1.834 4.525 3.43 8.125 3.544 8 .116-.126-2.73-12.829-6.324-28.229Z" transform="matrix(.04712 0 0 .0471 -.026 -.044)"/><path style="display:inline;fill:#00f700" d="M292.028 459.438c-3.56-.772-8.51-2.476-11-3.787s-8.534-4.53-13.431-7.152c-8.903-4.768-8.903-4.768-14.32-3.06-2.979.939-8.358 3.027-11.953 4.64-3.595 1.613-10.048 3.83-14.339 4.925-4.291 1.095-12.044 2.432-17.228 2.97-6.188.641-13.325.635-20.774-.019-6.24-.548-14.303-1.672-17.915-2.499-3.612-.826-9.47-2.459-13.018-3.627-3.548-1.17-9.848-3.674-14-5.566-4.151-1.892-11.712-5.89-16.802-8.886-5.09-2.995-13.64-8.754-19-12.798-5.362-4.043-13.763-11.34-18.67-16.215-4.907-4.875-12.434-13.58-16.726-19.342-4.292-5.763-10.467-15.663-13.723-22-3.256-6.337-7.088-14.802-8.516-18.81-1.429-4.008-3.685-11.658-5.015-17-1.33-5.342-3.005-13.087-3.722-17.212-.718-4.125-1.294-14.25-1.28-22.5.019-11.62.631-18.56 2.717-30.799 1.48-8.69 4.074-21.446 5.762-28.348 1.688-6.902 4.872-17.793 7.076-24.201 2.203-6.409 6.27-15.993 9.037-21.299 2.768-5.306 7.965-13.555 11.55-18.333 3.586-4.777 9.724-11.345 13.64-14.596 3.917-3.25 10.497-7.676 14.622-9.835 4.125-2.158 11.325-4.962 16-6.231 7.005-1.902 10.963-2.305 22.5-2.29 11.814.014 15.674.435 24.717 2.697 5.895 1.475 14.671 4.207 19.503 6.074 4.832 1.866 12.946 5.482 18.032 8.037 5.087 2.554 9.248 4.46 9.248 4.236 0-.224-2.745-8.441-6.1-18.26-3.356-9.818-9.033-25.277-12.616-34.352-3.583-9.075-9.095-21.9-12.25-28.5-3.155-6.6-7.348-14.364-9.319-17.253-3.583-5.252-3.583-5.252 8.6-14.576 6.702-5.129 14.817-11.29 18.034-13.693 5.849-4.367 5.849-4.367 7.732-1.923 1.036 1.345 3.96 7.334 6.499 13.31 2.539 5.975 6.54 16.775 8.89 24 2.352 7.224 6.245 21.112 8.653 30.862 2.407 9.75 4.646 17.738 4.975 17.75.33.013 1.448-1.89 2.487-4.227 1.038-2.338 4.89-8.75 8.558-14.25s9.812-13.228 13.654-17.173c3.841-3.945 10.59-9.846 14.996-13.113 4.406-3.267 12.218-7.998 17.359-10.513 5.141-2.515 13.237-5.698 17.991-7.074 4.754-1.375 11.504-3.02 15-3.653 3.496-.634 11.2-1.512 17.119-1.95 5.92-.438 16.21-.391 22.867.105s15.54 1.61 19.738 2.476c4.198.866 8.195 2.039 8.883 2.607.735.607 1.25 3.4 1.25 6.78 0 3.16-.687 9.685-1.527 14.5-.84 4.815-3.025 12.745-4.857 17.623-1.833 4.878-5.533 12.522-8.224 16.987-2.69 4.465-7.93 11.881-11.642 16.48-3.712 4.599-6.75 8.6-6.75 8.89 0 .29 1.292.528 2.872.528 1.58 0 7.132 1.08 12.339 2.402 5.207 1.32 11.902 3.624 14.878 5.119 2.976 1.495 8.111 4.633 11.411 6.973 3.3 2.341 8.047 6.45 10.549 9.131 2.502 2.681 6.378 7.575 8.613 10.875 2.235 3.3 5.424 8.7 7.087 12 1.662 3.3 4.384 9.86 6.048 14.579 1.664 4.718 4.165 13.718 5.556 20 1.392 6.281 3.022 15.021 3.62 19.421.6 4.4 1.532 14.892 2.071 23.316.665 10.377.643 18.922-.066 26.5-.576 6.151-2.19 16.359-3.588 22.684-1.397 6.325-4.098 16.225-6.002 22-1.904 5.775-6.348 16.35-9.876 23.5-3.529 7.15-9.478 17.577-13.22 23.171-3.743 5.595-9.727 13.92-13.299 18.5-3.57 4.581-12.118 13.995-18.993 20.921-6.875 6.926-17 16.154-22.5 20.508-5.5 4.354-13.206 10.047-17.124 12.651-3.918 2.604-10.893 6.735-15.5 9.18-4.607 2.443-11.742 5.371-15.856 6.506-4.114 1.135-9.289 2.027-11.5 1.983-2.211-.043-6.932-.71-10.492-1.482zm28.472-15.257c4.95-2.375 13.448-7.278 18.885-10.894 5.437-3.617 13.987-9.967 19-14.112s13.4-11.867 18.64-17.161c5.238-5.294 12.583-13.426 16.322-18.07 3.74-4.644 9.944-13.123 13.789-18.841 3.844-5.719 9.88-16.294 13.412-23.5 3.533-7.207 7.984-17.903 9.891-23.77 1.908-5.866 4.502-15.766 5.765-22 1.966-9.706 2.289-14.275 2.245-31.833-.027-11.275-.603-24.55-1.28-29.5-.675-4.95-2.143-13.61-3.26-19.245-1.118-5.635-3.305-13.96-4.86-18.5-1.555-4.54-3.772-10.42-4.928-13.064-1.155-2.645-4.122-7.933-6.592-11.752-2.47-3.818-6.37-8.981-8.668-11.474-2.298-2.493-7.4-6.687-11.339-9.322-4.337-2.901-10.682-5.943-16.091-7.716-8.318-2.726-9.996-2.927-24.431-2.927-11.07 0-17.93.512-24 1.792-4.675.985-13 3.164-18.5 4.842-5.5 1.678-14.854 5.033-20.786 7.454-5.933 2.422-17.858 7.946-26.5 12.276-8.643 4.33-19.207 9.938-23.477 12.463-7.763 4.59-7.763 4.59-19.5-3.076-6.455-4.216-16.238-10.022-21.74-12.902-5.5-2.88-14.176-6.847-19.277-8.818-5.102-1.97-13.201-4.546-17.998-5.725-6.402-1.573-12.047-2.165-21.222-2.225-7.55-.049-14.678.464-18 1.294-3.025.756-8.65 2.828-12.5 4.604-3.85 1.775-9.768 5.285-13.151 7.8-3.384 2.514-8.451 7.334-11.261 10.711-2.81 3.377-6.755 8.698-8.766 11.825-2.012 3.127-5.544 9.735-7.85 14.685-2.307 4.95-5.588 13.275-7.292 18.5-1.703 5.225-4.263 14.173-5.69 19.883-1.426 5.711-3.775 17.636-5.22 26.5-1.94 11.89-2.62 19.658-2.593 29.617.022 8.24.719 17.396 1.789 23.5.964 5.5 2.853 13.8 4.196 18.444 1.343 4.644 3.78 11.658 5.414 15.585 1.635 3.927 5.255 11.152 8.044 16.056 2.79 4.903 8.143 12.978 11.898 17.943 3.755 4.966 11.037 13.101 16.183 18.079 5.145 4.978 12.73 11.546 16.853 14.595 4.124 3.05 10.636 7.475 14.472 9.835 3.836 2.359 11.123 6.263 16.194 8.675 5.07 2.413 12.496 5.514 16.5 6.893 4.004 1.378 12.005 3.147 17.78 3.93 5.775.785 14.379 1.435 19.119 1.445 4.74.011 12.485-.654 17.21-1.478 5.112-.892 13.771-3.596 21.381-6.678 7.53-3.049 14.91-5.36 17.947-5.618 4.086-.347 6.369.115 11 2.226 3.213 1.466 8.867 4.487 12.563 6.713 3.696 2.227 8.646 4.671 11 5.433 2.53.818 7.552 1.29 12.28 1.153 7.127-.206 8.982-.702 17-4.55zm-23.229-93.605c-5.076-1.345-12.5-4.154-16.5-6.242-5.086-2.656-9.833-6.357-15.796-12.316-4.987-4.983-10.12-11.308-12.367-15.242-3.842-6.725-3.842-6.725-7.864-.5-2.212 3.423-5.583 8.13-7.492 10.46-1.909 2.33-6.502 6.484-10.207 9.23-3.705 2.748-9.703 6.383-13.33 8.08-3.625 1.697-10.782 3.95-15.903 5.006-5.122 1.057-12.012 1.918-15.312 1.913-3.3-.005-10.05-.903-15-1.996-4.95-1.093-12.15-3.494-16-5.334-3.85-1.841-9.84-5.495-13.31-8.12-3.47-2.626-8.514-7.499-11.209-10.83-2.695-3.33-6.243-8.576-7.885-11.656-1.641-3.08-4.007-9.183-5.258-13.564-1.715-6.007-2.273-10.546-2.273-18.465 0-7.92.558-12.458 2.273-18.465 1.25-4.38 3.617-10.485 5.258-13.564 1.642-3.08 5.19-8.325 7.885-11.656 2.695-3.331 7.74-8.204 11.21-10.83 3.47-2.625 9.459-6.279 13.309-8.12 3.85-1.84 11.05-4.24 16-5.334 4.95-1.093 11.7-1.992 15-1.996 3.3-.005 10.122.842 15.16 1.882s12.012 3.17 15.497 4.734c3.486 1.564 9.742 5.369 13.904 8.454 4.55 3.374 9.638 8.359 12.761 12.503 2.858 3.79 6.273 9.03 7.59 11.644 2.395 4.752 2.395 4.752 5.36-.5 1.631-2.888 5.025-7.778 7.541-10.866 2.516-3.087 7.688-7.921 11.492-10.742 3.805-2.82 9.383-6.256 12.396-7.636 3.013-1.38 9.038-3.442 13.389-4.583 4.79-1.257 11.46-2.133 16.91-2.221 5.567-.09 12.052.542 17 1.658 4.4.993 11.6 3.535 16 5.651 4.4 2.116 10.69 6.027 13.976 8.691 3.286 2.665 8.066 7.439 10.62 10.61 2.555 3.17 6.052 8.56 7.772 11.976 1.72 3.415 4.029 9.77 5.13 14.12 1.286 5.081 1.997 11.16 1.987 17-.01 5.689-.754 12.02-1.99 16.923-1.085 4.308-3.555 10.833-5.488 14.5-1.934 3.667-5.554 9.228-8.045 12.358-2.492 3.13-7.327 7.807-10.746 10.394-3.419 2.587-9.366 6.2-13.216 8.027-3.85 1.829-9.7 4.062-13 4.962-3.3.9-10.95 1.82-17 2.042-9.336.344-12.396.035-20.229-2.04zM334 339.104c3.575-1.128 9.354-3.746 12.843-5.817 3.489-2.07 8.534-5.865 11.212-8.433 2.677-2.567 6.648-7.422 8.824-10.788 2.176-3.366 4.933-8.92 6.128-12.343 1.31-3.755 2.375-9.793 2.684-15.223.363-6.369.04-11.013-1.106-15.887-.89-3.787-3.189-9.872-5.106-13.521-1.918-3.65-5.521-8.96-8.008-11.803-2.486-2.843-7.577-7.2-11.313-9.684-3.736-2.483-8.017-4.981-9.513-5.55-2.72-1.034-2.72-1.034.84 3.628 1.958 2.565 4.28 7.14 5.16 10.165 1.049 3.61 1.406 7.374 1.037 10.944-.309 2.993-1.732 7.833-3.162 10.756-1.43 2.924-4.17 6.693-6.088 8.377-1.918 1.685-5.388 4.073-7.71 5.307-3.42 1.818-5.835 2.244-12.722 2.244s-9.301-.426-12.722-2.244c-2.322-1.234-5.792-3.622-7.71-5.307-1.918-1.684-4.743-5.619-6.278-8.743-2.3-4.685-2.79-6.998-2.79-13.182 0-6.199.488-8.494 2.814-13.23 1.547-3.15 4.472-7.139 6.5-8.861 3.686-3.133 3.686-3.133.686-2.495-1.65.35-6.615 2.4-11.033 4.553-5.314 2.59-10.08 5.911-14.08 9.814-3.326 3.244-7.66 8.559-9.63 11.809-1.97 3.25-4.493 8.627-5.608 11.948-1.115 3.32-2.32 9.395-2.679 13.5-.454 5.204-.174 9.731.925 14.962.868 4.125 3.226 10.875 5.24 15 2.714 5.556 5.664 9.482 11.377 15.146 5.714 5.665 9.687 8.596 15.326 11.308 4.186 2.014 10.436 4.305 13.887 5.091 4.017.915 9.693 1.282 15.775 1.02 5.718-.246 12.088-1.226 16-2.46zm-131.922-2.696c4.169-1.312 10.434-4.232 13.923-6.487 3.49-2.255 8.689-6.54 11.554-9.523 2.865-2.982 6.825-8.495 8.799-12.252 1.974-3.757 4.277-9.471 5.118-12.698.84-3.228 1.528-9.73 1.528-14.448 0-4.719-.67-11.152-1.49-14.297-.818-3.144-2.903-8.526-4.632-11.96-2.088-4.146-5.87-8.94-11.261-14.27-5.183-5.127-10.173-9.013-13.804-10.75-3.128-1.498-5.975-2.723-6.328-2.723-.352 0 .954 1.863 2.903 4.14 1.95 2.278 4.291 6.388 5.203 9.134 1.152 3.47 1.513 7.013 1.182 11.61-.316 4.38-1.35 8.336-3.06 11.706-1.422 2.8-4.278 6.577-6.348 8.394-2.07 1.818-5.811 4.246-8.314 5.396-3.377 1.552-6.485 2.079-12.051 2.044-6.073-.037-8.451-.541-12.5-2.649-2.75-1.431-6.665-4.329-8.7-6.439-2.036-2.11-4.71-6.086-5.945-8.836-1.666-3.714-2.235-6.842-2.211-12.159.025-5.706.58-8.279 2.734-12.681 1.486-3.038 4.26-6.89 6.162-8.561 1.903-1.67 3.46-3.273 3.46-3.56 0-.287-3.038.617-6.75 2.008-3.713 1.391-9.204 4.153-12.204 6.137-2.999 1.983-7.819 6.088-10.71 9.121-2.891 3.034-6.806 8.48-8.7 12.105-1.894 3.625-4.162 9.034-5.04 12.021-.975 3.32-1.596 9.18-1.596 15.069 0 5.89.62 11.749 1.596 15.069.878 2.987 3.181 8.463 5.118 12.17 1.937 3.705 5.866 9.177 8.731 12.16 2.865 2.982 8.014 7.234 11.442 9.45 3.428 2.215 9.19 5.012 12.804 6.214 3.614 1.203 8.875 2.546 11.69 2.984 2.816.438 8.494.56 12.619.273 4.125-.289 10.91-1.599 15.078-2.912zM204.284 75.5c-3.592-15.4-6.692-28.18-6.89-28.399-.196-.219-2.053.803-4.126 2.271-2.072 1.468-4.595 3.301-5.606 4.073-1.746 1.334-1.613 1.776 2.642 8.785 2.464 4.06 6.488 11.406 8.941 16.326 2.454 4.92 5.962 12.647 7.796 17.173 1.834 4.525 3.434 8.125 3.555 8 .12-.126-2.72-12.829-6.312-28.229z" transform="matrix(.04712 0 0 .0471 -.026 -.044)"/><path style="display:inline;fill:#00d100" d="M292.028 459.438c-3.56-.772-8.51-2.476-11-3.787s-8.534-4.53-13.431-7.152c-8.903-4.768-8.903-4.768-14.32-3.06-2.979.939-8.358 3.027-11.953 4.64-3.595 1.613-10.048 3.83-14.339 4.925-4.291 1.095-12.044 2.432-17.228 2.97-6.188.641-13.325.635-20.774-.019-6.24-.548-14.303-1.672-17.915-2.499-3.612-.826-9.47-2.459-13.018-3.627-3.548-1.17-9.848-3.674-14-5.566-4.151-1.892-11.712-5.89-16.802-8.886-5.09-2.995-13.64-8.754-19-12.798-5.362-4.043-13.763-11.34-18.67-16.215-4.907-4.875-12.434-13.58-16.726-19.342-4.292-5.763-10.467-15.663-13.723-22-3.256-6.337-7.088-14.802-8.516-18.81-1.429-4.008-3.685-11.658-5.015-17-1.33-5.342-3.005-13.087-3.722-17.212-.718-4.125-1.294-14.25-1.28-22.5.019-11.62.631-18.56 2.717-30.799 1.48-8.69 4.074-21.446 5.762-28.348 1.688-6.902 4.872-17.793 7.076-24.201 2.203-6.409 6.27-15.993 9.037-21.299 2.768-5.306 7.965-13.555 11.55-18.333 3.586-4.777 9.724-11.345 13.64-14.596 3.917-3.25 10.497-7.676 14.622-9.835 4.125-2.158 11.325-4.962 16-6.231 7.005-1.902 10.963-2.305 22.5-2.29 11.814.014 15.674.435 24.717 2.697 5.895 1.475 14.671 4.207 19.503 6.074 4.832 1.866 12.946 5.482 18.032 8.037 5.087 2.554 9.248 4.46 9.248 4.236 0-.224-2.745-8.441-6.1-18.26-3.356-9.818-9.033-25.277-12.616-34.352-3.583-9.075-9.095-21.9-12.25-28.5-3.155-6.6-7.348-14.364-9.319-17.253-3.583-5.252-3.583-5.252 8.6-14.576 6.702-5.129 14.817-11.29 18.034-13.693 5.849-4.367 5.849-4.367 7.732-1.923 1.036 1.345 3.96 7.334 6.499 13.31 2.539 5.975 6.54 16.775 8.89 24 2.352 7.224 6.245 21.112 8.653 30.862 2.407 9.75 4.646 17.738 4.975 17.75.33.013 1.448-1.89 2.487-4.227 1.038-2.338 4.89-8.75 8.558-14.25s9.812-13.228 13.654-17.173c3.841-3.945 10.59-9.846 14.996-13.113 4.406-3.267 12.218-7.998 17.359-10.513 5.141-2.515 13.237-5.698 17.991-7.074 4.754-1.375 11.504-3.02 15-3.653 3.496-.634 11.2-1.512 17.119-1.95 5.92-.438 16.21-.391 22.867.105s15.54 1.61 19.738 2.476c4.198.866 8.195 2.039 8.883 2.607.735.607 1.25 3.4 1.25 6.78 0 3.16-.687 9.685-1.527 14.5-.84 4.815-3.025 12.745-4.857 17.623-1.833 4.878-5.533 12.522-8.224 16.987-2.69 4.465-7.93 11.881-11.642 16.48-3.712 4.599-6.75 8.6-6.75 8.89 0 .29 1.292.528 2.872.528 1.58 0 7.132 1.08 12.339 2.402 5.207 1.32 11.902 3.624 14.878 5.119 2.976 1.495 8.111 4.633 11.411 6.973 3.3 2.341 8.047 6.45 10.549 9.131 2.502 2.681 6.378 7.575 8.613 10.875 2.235 3.3 5.424 8.7 7.087 12 1.662 3.3 4.384 9.86 6.048 14.579 1.664 4.718 4.165 13.718 5.556 20 1.392 6.281 3.022 15.021 3.62 19.421.6 4.4 1.532 14.892 2.071 23.316.665 10.377.643 18.922-.066 26.5-.576 6.151-2.19 16.359-3.588 22.684-1.397 6.325-4.098 16.225-6.002 22-1.904 5.775-6.348 16.35-9.876 23.5-3.529 7.15-9.478 17.577-13.22 23.171-3.743 5.595-9.727 13.92-13.299 18.5-3.57 4.581-12.118 13.995-18.993 20.921-6.875 6.926-17 16.154-22.5 20.508-5.5 4.354-13.206 10.047-17.124 12.651-3.918 2.604-10.893 6.735-15.5 9.18-4.607 2.443-11.742 5.371-15.856 6.506-4.114 1.135-9.289 2.027-11.5 1.983-2.211-.043-6.932-.71-10.492-1.482zm28.472-15.257c4.95-2.375 13.448-7.278 18.885-10.894 5.437-3.617 13.987-9.967 19-14.112s13.4-11.867 18.64-17.161c5.238-5.294 12.583-13.426 16.322-18.07 3.74-4.644 9.944-13.123 13.789-18.841 3.844-5.719 9.88-16.294 13.412-23.5 3.533-7.207 7.984-17.903 9.891-23.77 1.908-5.866 4.502-15.766 5.765-22 1.966-9.706 2.289-14.275 2.245-31.833-.027-11.275-.603-24.55-1.28-29.5-.675-4.95-2.143-13.61-3.26-19.245-1.118-5.635-3.305-13.96-4.86-18.5-1.555-4.54-3.772-10.42-4.928-13.064-1.155-2.645-4.122-7.933-6.592-11.752-2.47-3.818-6.37-8.981-8.668-11.474-2.298-2.493-7.4-6.687-11.339-9.322-4.337-2.901-10.682-5.943-16.091-7.716-8.318-2.726-9.996-2.927-24.431-2.927-11.07 0-17.93.512-24 1.792-4.675.985-13 3.164-18.5 4.842-5.5 1.678-14.854 5.033-20.786 7.454-5.933 2.422-17.858 7.946-26.5 12.276-8.643 4.33-19.207 9.938-23.477 12.463-7.763 4.59-7.763 4.59-19.5-3.076-6.455-4.216-16.238-10.022-21.74-12.902-5.5-2.88-14.176-6.847-19.277-8.818-5.102-1.97-13.201-4.546-17.998-5.725-6.402-1.573-12.047-2.165-21.222-2.225-7.55-.049-14.678.464-18 1.294-3.025.756-8.65 2.828-12.5 4.604-3.85 1.775-9.768 5.285-13.151 7.8-3.384 2.514-8.451 7.334-11.261 10.711-2.81 3.377-6.755 8.698-8.766 11.825-2.012 3.127-5.544 9.735-7.85 14.685-2.307 4.95-5.588 13.275-7.292 18.5-1.703 5.225-4.263 14.173-5.69 19.883-1.426 5.711-3.775 17.636-5.22 26.5-1.94 11.89-2.62 19.658-2.593 29.617.022 8.24.719 17.396 1.789 23.5.964 5.5 2.853 13.8 4.196 18.444 1.343 4.644 3.78 11.658 5.414 15.585 1.635 3.927 5.255 11.152 8.044 16.056 2.79 4.903 8.143 12.978 11.898 17.943 3.755 4.966 11.037 13.101 16.183 18.079 5.145 4.978 12.73 11.546 16.853 14.595 4.124 3.05 10.636 7.475 14.472 9.835 3.836 2.359 11.123 6.263 16.194 8.675 5.07 2.413 12.496 5.514 16.5 6.893 4.004 1.378 12.005 3.147 17.78 3.93 5.775.785 14.379 1.435 19.119 1.445 4.74.011 12.485-.654 17.21-1.478 5.112-.892 13.771-3.596 21.381-6.678 7.53-3.049 14.91-5.36 17.947-5.618 4.086-.347 6.369.115 11 2.226 3.213 1.466 8.867 4.487 12.563 6.713 3.696 2.227 8.646 4.671 11 5.433 2.53.818 7.552 1.29 12.28 1.153 7.127-.206 8.982-.702 17-4.55zm-23.229-93.605c-5.076-1.345-12.5-4.154-16.5-6.242-5.086-2.656-9.833-6.357-15.796-12.316-4.987-4.983-10.12-11.308-12.367-15.242-3.842-6.725-3.842-6.725-7.864-.5-2.212 3.423-5.583 8.13-7.492 10.46-1.909 2.33-6.502 6.484-10.207 9.23-3.705 2.748-9.703 6.383-13.33 8.08-3.625 1.697-10.782 3.95-15.903 5.006-5.122 1.057-12.012 1.918-15.312 1.913-3.3-.005-10.05-.903-15-1.996-4.95-1.093-12.15-3.494-16-5.334-3.85-1.841-9.84-5.495-13.31-8.12-3.47-2.626-8.514-7.499-11.209-10.83-2.695-3.33-6.243-8.576-7.885-11.656-1.641-3.08-4.007-9.183-5.258-13.564-1.715-6.007-2.273-10.546-2.273-18.465 0-7.92.558-12.458 2.273-18.465 1.25-4.38 3.617-10.485 5.258-13.564 1.642-3.08 5.19-8.325 7.885-11.656 2.695-3.331 7.74-8.204 11.21-10.83 3.47-2.625 9.459-6.279 13.309-8.12 3.85-1.84 11.05-4.24 16-5.334 4.95-1.093 11.7-1.992 15-1.996 3.3-.005 10.122.842 15.16 1.882s12.012 3.17 15.497 4.734c3.486 1.564 9.742 5.369 13.904 8.454 4.55 3.374 9.638 8.359 12.761 12.503 2.858 3.79 6.273 9.03 7.59 11.644 2.395 4.752 2.395 4.752 5.36-.5 1.631-2.888 5.025-7.778 7.541-10.866 2.516-3.087 7.688-7.921 11.492-10.742 3.805-2.82 9.383-6.256 12.396-7.636 3.013-1.38 9.038-3.442 13.389-4.583 4.79-1.257 11.46-2.133 16.91-2.221 5.567-.09 12.052.542 17 1.658 4.4.993 11.6 3.535 16 5.651 4.4 2.116 10.69 6.027 13.976 8.691 3.286 2.665 8.066 7.439 10.62 10.61 2.555 3.17 6.052 8.56 7.772 11.976 1.72 3.415 4.029 9.77 5.13 14.12 1.286 5.081 1.997 11.16 1.987 17-.01 5.689-.754 12.02-1.99 16.923-1.085 4.308-3.555 10.833-5.488 14.5-1.934 3.667-5.554 9.228-8.045 12.358-2.492 3.13-7.327 7.807-10.746 10.394-3.419 2.587-9.366 6.2-13.216 8.027-3.85 1.829-9.7 4.062-13 4.962-3.3.9-10.95 1.82-17 2.042-9.336.344-12.396.035-20.229-2.04zM334 339.104c3.575-1.128 9.354-3.746 12.843-5.817 3.489-2.07 8.534-5.865 11.212-8.433 2.677-2.567 6.648-7.422 8.824-10.788 2.176-3.366 4.933-8.92 6.128-12.343 1.31-3.755 2.375-9.793 2.684-15.223.363-6.369.04-11.013-1.106-15.887-.89-3.787-3.189-9.872-5.106-13.521-1.918-3.65-5.521-8.96-8.008-11.803-2.486-2.843-7.577-7.2-11.313-9.684-3.736-2.483-8.017-4.981-9.513-5.55-2.72-1.034-2.72-1.034.84 3.628 1.958 2.565 4.28 7.14 5.16 10.165 1.049 3.61 1.406 7.374 1.037 10.944-.309 2.993-1.732 7.833-3.162 10.756-1.43 2.924-4.17 6.693-6.088 8.377-1.918 1.685-5.388 4.073-7.71 5.307-3.42 1.818-5.835 2.244-12.722 2.244s-9.301-.426-12.722-2.244c-2.322-1.234-5.792-3.622-7.71-5.307-1.918-1.684-4.743-5.619-6.278-8.743-2.3-4.685-2.79-6.998-2.79-13.182 0-6.199.488-8.494 2.814-13.23 1.547-3.15 4.472-7.139 6.5-8.861 3.686-3.133 3.686-3.133.686-2.495-1.65.35-6.615 2.4-11.033 4.553-5.314 2.59-10.08 5.911-14.08 9.814-3.326 3.244-7.66 8.559-9.63 11.809-1.97 3.25-4.493 8.627-5.608 11.948-1.115 3.32-2.32 9.395-2.679 13.5-.454 5.204-.174 9.731.925 14.962.868 4.125 3.226 10.875 5.24 15 2.714 5.556 5.664 9.482 11.377 15.146 5.714 5.665 9.687 8.596 15.326 11.308 4.186 2.014 10.436 4.305 13.887 5.091 4.017.915 9.693 1.282 15.775 1.02 5.718-.246 12.088-1.226 16-2.46zm-131.922-2.696c4.169-1.312 10.434-4.232 13.923-6.487 3.49-2.255 8.689-6.54 11.554-9.523 2.865-2.982 6.825-8.495 8.799-12.252 1.974-3.757 4.277-9.471 5.118-12.698.84-3.228 1.528-9.73 1.528-14.448 0-4.719-.67-11.152-1.49-14.297-.818-3.144-2.903-8.526-4.632-11.96-2.088-4.146-5.87-8.94-11.261-14.27-5.183-5.127-10.173-9.013-13.804-10.75-3.128-1.498-5.975-2.723-6.328-2.723-.352 0 .954 1.863 2.903 4.14 1.95 2.278 4.291 6.388 5.203 9.134 1.152 3.47 1.513 7.013 1.182 11.61-.316 4.38-1.35 8.336-3.06 11.706-1.422 2.8-4.278 6.577-6.348 8.394-2.07 1.818-5.811 4.246-8.314 5.396-3.377 1.552-6.485 2.079-12.051 2.044-6.073-.037-8.451-.541-12.5-2.649-2.75-1.431-6.665-4.329-8.7-6.439-2.036-2.11-4.71-6.086-5.945-8.836-1.666-3.714-2.235-6.842-2.211-12.159.025-5.706.58-8.279 2.734-12.681 1.486-3.038 4.26-6.89 6.162-8.561 1.903-1.67 3.46-3.273 3.46-3.56 0-.287-3.038.617-6.75 2.008-3.713 1.391-9.204 4.153-12.204 6.137-2.999 1.983-7.819 6.088-10.71 9.121-2.891 3.034-6.806 8.48-8.7 12.105-1.894 3.625-4.162 9.034-5.04 12.021-.975 3.32-1.596 9.18-1.596 15.069 0 5.89.62 11.749 1.596 15.069.878 2.987 3.181 8.463 5.118 12.17 1.937 3.705 5.866 9.177 8.731 12.16 2.865 2.982 8.014 7.234 11.442 9.45 3.428 2.215 9.19 5.012 12.804 6.214 3.614 1.203 8.875 2.546 11.69 2.984 2.816.438 8.494.56 12.619.273 4.125-.289 10.91-1.599 15.078-2.912zm53.599-208.686c4.147-4.828 12.478-13.022 18.514-18.21 6.036-5.187 15.55-12.541 21.142-16.342 5.592-3.802 14.442-9.287 19.667-12.19 5.225-2.904 14.45-7.501 20.5-10.216 6.05-2.716 18.128-7.307 26.84-10.202 15.84-5.265 15.84-5.265 11.11-5.914-2.6-.356-11.582-.648-19.959-.648-8.877 0-18.729.61-23.62 1.463-4.614.805-11.986 2.635-16.38 4.068-4.395 1.432-11.547 4.382-15.893 6.555-4.347 2.173-10.89 6.164-14.539 8.87-3.65 2.706-9.127 7.535-12.172 10.732-3.045 3.197-7.573 8.583-10.063 11.97-2.49 3.387-6.566 10.137-9.06 15-2.493 4.863-5.539 11.636-6.768 15.05-1.646 4.575-2.047 7.207-1.524 9.997.711 3.787.711 3.787 2.688 1.291 1.088-1.373 5.37-6.446 9.517-11.274zM204.284 75.5c-3.592-15.4-6.692-28.18-6.89-28.399-.196-.219-2.053.803-4.126 2.271-2.072 1.468-4.595 3.301-5.606 4.073-1.746 1.334-1.613 1.776 2.642 8.785 2.464 4.06 6.488 11.406 8.941 16.326 2.454 4.92 5.962 12.647 7.796 17.173 1.834 4.525 3.434 8.125 3.555 8 .12-.126-2.72-12.829-6.312-28.229z" transform="matrix(.04712 0 0 .0471 -.026 -.044)"/><path style="display:inline;fill:#57240e" d="M292.028 459.438c-3.56-.772-8.51-2.476-11-3.787s-8.534-4.53-13.431-7.152c-8.903-4.768-8.903-4.768-14.32-3.06-2.979.939-8.358 3.027-11.953 4.64-3.595 1.613-10.048 3.83-14.339 4.925-4.291 1.095-12.044 2.432-17.228 2.97-6.188.641-13.325.635-20.774-.019-6.24-.548-14.303-1.672-17.915-2.499-3.612-.826-9.47-2.459-13.018-3.627-3.548-1.17-9.848-3.674-14-5.566-4.151-1.892-11.712-5.89-16.802-8.886-5.09-2.995-13.64-8.754-19-12.798-5.362-4.043-13.763-11.34-18.67-16.215-4.907-4.875-12.434-13.58-16.726-19.342-4.292-5.763-10.467-15.663-13.723-22-3.256-6.337-7.088-14.802-8.516-18.81-1.429-4.008-3.685-11.658-5.015-17-1.33-5.342-3.005-13.087-3.722-17.212-.718-4.125-1.294-14.25-1.28-22.5.019-11.62.631-18.56 2.717-30.799 1.48-8.69 4.074-21.446 5.762-28.348 1.688-6.902 4.872-17.793 7.076-24.201 2.203-6.409 6.27-15.993 9.037-21.299 2.768-5.306 7.965-13.555 11.55-18.333 3.586-4.777 9.724-11.345 13.64-14.596 3.917-3.25 10.497-7.676 14.622-9.835 4.125-2.158 11.325-4.962 16-6.231 7.005-1.902 10.963-2.305 22.5-2.29 11.814.014 15.674.435 24.717 2.697 5.895 1.475 14.671 4.207 19.503 6.074 4.832 1.866 12.946 5.482 18.032 8.037 5.087 2.554 9.248 4.46 9.248 4.236 0-.224-2.745-8.441-6.1-18.26-3.356-9.818-9.033-25.277-12.616-34.352-3.583-9.075-9.095-21.9-12.25-28.5-3.155-6.6-7.348-14.364-9.319-17.253-3.583-5.252-3.583-5.252 8.6-14.576 6.702-5.129 14.817-11.29 18.034-13.693 5.849-4.367 5.849-4.367 7.732-1.923 1.036 1.345 3.96 7.334 6.499 13.31 2.539 5.975 6.54 16.775 8.89 24 2.352 7.224 6.245 21.112 8.653 30.862 2.407 9.75 4.646 17.738 4.975 17.75.33.013 1.448-1.89 2.487-4.227 1.038-2.338 4.89-8.75 8.558-14.25s9.812-13.228 13.654-17.173c3.841-3.945 10.59-9.846 14.996-13.113 4.406-3.267 12.218-7.998 17.359-10.513 5.141-2.515 13.237-5.698 17.991-7.074 4.754-1.375 11.504-3.02 15-3.653 3.496-.634 11.2-1.512 17.119-1.95 5.92-.438 16.21-.391 22.867.105s15.54 1.61 19.738 2.476c4.198.866 8.195 2.039 8.883 2.607.735.607 1.25 3.4 1.25 6.78 0 3.16-.687 9.685-1.527 14.5-.84 4.815-3.025 12.745-4.857 17.623-1.833 4.878-5.533 12.522-8.224 16.987-2.69 4.465-7.93 11.881-11.642 16.48-3.712 4.599-6.75 8.6-6.75 8.89 0 .29 1.292.528 2.872.528 1.58 0 7.132 1.08 12.339 2.402 5.207 1.32 11.902 3.624 14.878 5.119 2.976 1.495 8.111 4.633 11.411 6.973 3.3 2.341 8.047 6.45 10.549 9.131 2.502 2.681 6.378 7.575 8.613 10.875 2.235 3.3 5.424 8.7 7.087 12 1.662 3.3 4.384 9.86 6.048 14.579 1.664 4.718 4.165 13.718 5.556 20 1.392 6.281 3.022 15.021 3.62 19.421.6 4.4 1.532 14.892 2.071 23.316.665 10.377.643 18.922-.066 26.5-.576 6.151-2.19 16.359-3.588 22.684-1.397 6.325-4.098 16.225-6.002 22-1.904 5.775-6.348 16.35-9.876 23.5-3.529 7.15-9.478 17.577-13.22 23.171-3.743 5.595-9.727 13.92-13.299 18.5-3.57 4.581-12.118 13.995-18.993 20.921-6.875 6.926-17 16.154-22.5 20.508-5.5 4.354-13.206 10.047-17.124 12.651-3.918 2.604-10.893 6.735-15.5 9.18-4.607 2.443-11.742 5.371-15.856 6.506-4.114 1.135-9.289 2.027-11.5 1.983-2.211-.043-6.932-.71-10.492-1.482zm28.472-15.257c4.95-2.375 13.448-7.278 18.885-10.894 5.437-3.617 13.987-9.967 19-14.112s13.4-11.867 18.64-17.161c5.238-5.294 12.583-13.426 16.322-18.07 3.74-4.644 9.944-13.123 13.789-18.841 3.844-5.719 9.88-16.294 13.412-23.5 3.533-7.207 7.984-17.903 9.891-23.77 1.908-5.866 4.502-15.766 5.765-22 1.966-9.706 2.289-14.275 2.245-31.833-.027-11.275-.603-24.55-1.28-29.5-.675-4.95-2.143-13.61-3.26-19.245-1.118-5.635-3.305-13.96-4.86-18.5-1.555-4.54-3.772-10.42-4.928-13.064-1.155-2.645-4.122-7.933-6.592-11.752-2.47-3.818-6.37-8.981-8.668-11.474-2.298-2.493-7.4-6.687-11.339-9.322-4.337-2.901-10.682-5.943-16.091-7.716-8.318-2.726-9.996-2.927-24.431-2.927-11.07 0-17.93.512-24 1.792-4.675.985-13 3.164-18.5 4.842-5.5 1.678-14.854 5.033-20.786 7.454-5.933 2.422-17.858 7.946-26.5 12.276-8.643 4.33-19.207 9.938-23.477 12.463-7.763 4.59-7.763 4.59-19.5-3.076-6.455-4.216-16.238-10.022-21.74-12.902-5.5-2.88-14.176-6.847-19.277-8.818-5.102-1.97-13.201-4.546-17.998-5.725-6.402-1.573-12.047-2.165-21.222-2.225-7.55-.049-14.678.464-18 1.294-3.025.756-8.65 2.828-12.5 4.604-3.85 1.775-9.768 5.285-13.151 7.8-3.384 2.514-8.451 7.334-11.261 10.711-2.81 3.377-6.755 8.698-8.766 11.825-2.012 3.127-5.544 9.735-7.85 14.685-2.307 4.95-5.588 13.275-7.292 18.5-1.703 5.225-4.263 14.173-5.69 19.883-1.426 5.711-3.775 17.636-5.22 26.5-1.94 11.89-2.62 19.658-2.593 29.617.022 8.24.719 17.396 1.789 23.5.964 5.5 2.853 13.8 4.196 18.444 1.343 4.644 3.78 11.658 5.414 15.585 1.635 3.927 5.255 11.152 8.044 16.056 2.79 4.903 8.143 12.978 11.898 17.943 3.755 4.966 11.037 13.101 16.183 18.079 5.145 4.978 12.73 11.546 16.853 14.595 4.124 3.05 10.636 7.475 14.472 9.835 3.836 2.359 11.123 6.263 16.194 8.675 5.07 2.413 12.496 5.514 16.5 6.893 4.004 1.378 12.005 3.147 17.78 3.93 5.775.785 14.379 1.435 19.119 1.445 4.74.011 12.485-.654 17.21-1.478 5.112-.892 13.771-3.596 21.381-6.678 7.53-3.049 14.91-5.36 17.947-5.618 4.086-.347 6.369.115 11 2.226 3.213 1.466 8.867 4.487 12.563 6.713 3.696 2.227 8.646 4.671 11 5.433 2.53.818 7.552 1.29 12.28 1.153 7.127-.206 8.982-.702 17-4.55zm-23.229-93.605c-5.076-1.345-12.5-4.154-16.5-6.242-5.086-2.656-9.833-6.357-15.796-12.316-4.987-4.983-10.12-11.308-12.367-15.242-3.842-6.725-3.842-6.725-7.864-.5-2.212 3.423-5.583 8.13-7.492 10.46-1.909 2.33-6.502 6.484-10.207 9.23-3.705 2.748-9.703 6.383-13.33 8.08-3.625 1.697-10.782 3.95-15.903 5.006-5.122 1.057-12.012 1.918-15.312 1.913-3.3-.005-10.05-.903-15-1.996-4.95-1.093-12.15-3.494-16-5.334-3.85-1.841-9.84-5.495-13.31-8.12-3.47-2.626-8.514-7.499-11.209-10.83-2.695-3.33-6.243-8.576-7.885-11.656-1.641-3.08-4.007-9.183-5.258-13.564-1.715-6.007-2.273-10.546-2.273-18.465 0-7.92.558-12.458 2.273-18.465 1.25-4.38 3.617-10.485 5.258-13.564 1.642-3.08 5.19-8.325 7.885-11.656 2.695-3.331 7.74-8.204 11.21-10.83 3.47-2.625 9.459-6.279 13.309-8.12 3.85-1.84 11.05-4.24 16-5.334 4.95-1.093 11.7-1.992 15-1.996 3.3-.005 10.122.842 15.16 1.882s12.012 3.17 15.497 4.734c3.486 1.564 9.742 5.369 13.904 8.454 4.55 3.374 9.638 8.359 12.761 12.503 2.858 3.79 6.273 9.03 7.59 11.644 2.395 4.752 2.395 4.752 5.36-.5 1.631-2.888 5.025-7.778 7.541-10.866 2.516-3.087 7.688-7.921 11.492-10.742 3.805-2.82 9.383-6.256 12.396-7.636 3.013-1.38 9.038-3.442 13.389-4.583 4.79-1.257 11.46-2.133 16.91-2.221 5.567-.09 12.052.542 17 1.658 4.4.993 11.6 3.535 16 5.651 4.4 2.116 10.69 6.027 13.976 8.691 3.286 2.665 8.066 7.439 10.62 10.61 2.555 3.17 6.052 8.56 7.772 11.976 1.72 3.415 4.029 9.77 5.13 14.12 1.286 5.081 1.997 11.16 1.987 17-.01 5.689-.754 12.02-1.99 16.923-1.085 4.308-3.555 10.833-5.488 14.5-1.934 3.667-5.554 9.228-8.045 12.358-2.492 3.13-7.327 7.807-10.746 10.394-3.419 2.587-9.366 6.2-13.216 8.027-3.85 1.829-9.7 4.062-13 4.962-3.3.9-10.95 1.82-17 2.042-9.336.344-12.396.035-20.229-2.04zM334 339.104c3.575-1.128 9.354-3.746 12.843-5.817 3.489-2.07 8.534-5.865 11.212-8.433 2.677-2.567 6.648-7.422 8.824-10.788 2.176-3.366 4.933-8.92 6.128-12.343 1.31-3.755 2.375-9.793 2.684-15.223.363-6.369.04-11.013-1.106-15.887-.89-3.787-3.189-9.872-5.106-13.521-1.918-3.65-5.521-8.96-8.008-11.803-2.486-2.843-7.577-7.2-11.313-9.684-3.736-2.483-8.017-4.981-9.513-5.55-2.72-1.034-2.72-1.034.84 3.628 1.958 2.565 4.28 7.14 5.16 10.165 1.049 3.61 1.406 7.374 1.037 10.944-.309 2.993-1.732 7.833-3.162 10.756-1.43 2.924-4.17 6.693-6.088 8.377-1.918 1.685-5.388 4.073-7.71 5.307-3.42 1.818-5.835 2.244-12.722 2.244s-9.301-.426-12.722-2.244c-2.322-1.234-5.792-3.622-7.71-5.307-1.918-1.684-4.743-5.619-6.278-8.743-2.3-4.685-2.79-6.998-2.79-13.182 0-6.199.488-8.494 2.814-13.23 1.547-3.15 4.472-7.139 6.5-8.861 3.686-3.133 3.686-3.133.686-2.495-1.65.35-6.615 2.4-11.033 4.553-5.314 2.59-10.08 5.911-14.08 9.814-3.326 3.244-7.66 8.559-9.63 11.809-1.97 3.25-4.493 8.627-5.608 11.948-1.115 3.32-2.32 9.395-2.679 13.5-.454 5.204-.174 9.731.925 14.962.868 4.125 3.226 10.875 5.24 15 2.714 5.556 5.664 9.482 11.377 15.146 5.714 5.665 9.687 8.596 15.326 11.308 4.186 2.014 10.436 4.305 13.887 5.091 4.017.915 9.693 1.282 15.775 1.02 5.718-.246 12.088-1.226 16-2.46zm-131.922-2.696c4.169-1.312 10.434-4.232 13.923-6.487 3.49-2.255 8.689-6.54 11.554-9.523 2.865-2.982 6.825-8.495 8.799-12.252 1.974-3.757 4.277-9.471 5.118-12.698.84-3.228 1.528-9.73 1.528-14.448 0-4.719-.67-11.152-1.49-14.297-.818-3.144-2.903-8.526-4.632-11.96-2.088-4.146-5.87-8.94-11.261-14.27-5.183-5.127-10.173-9.013-13.804-10.75-3.128-1.498-5.975-2.723-6.328-2.723-.352 0 .954 1.863 2.903 4.14 1.95 2.278 4.291 6.388 5.203 9.134 1.152 3.47 1.513 7.013 1.182 11.61-.316 4.38-1.35 8.336-3.06 11.706-1.422 2.8-4.278 6.577-6.348 8.394-2.07 1.818-5.811 4.246-8.314 5.396-3.377 1.552-6.485 2.079-12.051 2.044-6.073-.037-8.451-.541-12.5-2.649-2.75-1.431-6.665-4.329-8.7-6.439-2.036-2.11-4.71-6.086-5.945-8.836-1.666-3.714-2.235-6.842-2.211-12.159.025-5.706.58-8.279 2.734-12.681 1.486-3.038 4.26-6.89 6.162-8.561 1.903-1.67 3.46-3.273 3.46-3.56 0-.287-3.038.617-6.75 2.008-3.713 1.391-9.204 4.153-12.204 6.137-2.999 1.983-7.819 6.088-10.71 9.121-2.891 3.034-6.806 8.48-8.7 12.105-1.894 3.625-4.162 9.034-5.04 12.021-.975 3.32-1.596 9.18-1.596 15.069 0 5.89.62 11.749 1.596 15.069.878 2.987 3.181 8.463 5.118 12.17 1.937 3.705 5.866 9.177 8.731 12.16 2.865 2.982 8.014 7.234 11.442 9.45 3.428 2.215 9.19 5.012 12.804 6.214 3.614 1.203 8.875 2.546 11.69 2.984 2.816.438 8.494.56 12.619.273 4.125-.289 10.91-1.599 15.078-2.912zm60.914-180.404c7.681-3.848 17.913-8.635 22.737-10.638 4.824-2.003 12.596-4.952 17.271-6.553 4.675-1.601 13.723-4.199 20.107-5.772 6.384-1.574 14.26-3.175 17.5-3.56 5.57-.659 6.218-1.033 11.824-6.839 3.262-3.378 8.45-9.533 11.528-13.678 3.078-4.146 7.45-11.12 9.716-15.5 2.266-4.38 5.318-11.786 6.783-16.456 1.464-4.671 2.92-11.26 3.237-14.64.574-6.149.574-6.149-4.31-7.316-2.687-.642-11.872-1.423-20.412-1.735-11.855-.434-18.005-.176-26 1.09-5.76.912-13.623 2.588-17.473 3.724-3.85 1.136-11.114 4.03-16.143 6.433-5.028 2.402-12.688 7.039-17.022 10.305-4.334 3.266-9.945 8.145-12.47 10.843-2.523 2.699-6.609 7.65-9.078 11.005-2.469 3.354-6.599 10.183-9.177 15.175-2.578 4.991-5.781 11.982-7.118 15.534-2.431 6.458-2.431 6.458.136 19.766 1.412 7.32 2.734 13.87 2.938 14.558.204.688.616 1.25.916 1.25.3 0 6.83-3.148 14.51-6.996zM204.284 75.5c-3.592-15.4-6.692-28.18-6.89-28.399-.196-.219-2.053.803-4.126 2.271-2.072 1.468-4.595 3.301-5.606 4.073-1.746 1.334-1.613 1.776 2.642 8.785 2.464 4.06 6.488 11.406 8.941 16.326 2.454 4.92 5.962 12.647 7.796 17.173 1.834 4.525 3.434 8.125 3.555 8 .12-.126-2.72-12.829-6.312-28.229z" transform="matrix(.04712 0 0 .0471 -.026 -.044)"/><path style="display:inline;fill:#010100" d="M295.973 459.898c-3.04-.424-7.608-1.477-10.152-2.34-2.543-.864-8.8-4.037-13.901-7.053-5.103-3.015-10.728-5.754-12.5-6.086-2.406-.451-5.471.327-12.072 3.066-4.867 2.02-11.273 4.534-14.236 5.587-2.963 1.053-9.263 2.647-14 3.542-6.732 1.271-12.104 1.5-24.612 1.047-8.8-.318-19.02-1.262-22.713-2.097-3.692-.835-9.542-2.457-13-3.605-3.458-1.149-11.36-4.513-17.56-7.475-6.2-2.963-15.2-7.946-20-11.073-4.8-3.127-11.427-7.736-14.727-10.243-3.3-2.506-9.762-8.182-14.36-12.612-4.599-4.43-10.948-11.206-14.11-15.056-3.162-3.85-8.234-10.825-11.27-15.5-3.036-4.675-7.34-12.134-9.564-16.577-2.224-4.442-5.608-12.767-7.52-18.5-1.91-5.732-4.452-15.148-5.648-20.923-1.195-5.775-2.67-15.744-3.277-22.153-.931-9.823-.83-13.904.644-26 .962-7.89 3.087-21.018 4.721-29.17 1.635-8.154 4.543-20.28 6.462-26.947 1.919-6.667 5.534-16.968 8.035-22.892 2.5-5.924 7.61-15.398 11.356-21.054 3.825-5.775 10.038-13.402 14.17-17.395 4.049-3.91 10.22-8.958 13.715-11.217 3.495-2.258 8.895-5.069 12-6.245 3.105-1.177 9.921-3.039 15.146-4.138 7.524-1.583 11.684-1.88 20-1.43 5.775.314 14.325 1.497 19 2.629 4.675 1.132 12.658 3.434 17.74 5.114 5.082 1.681 14.065 5.475 19.962 8.431 5.898 2.956 10.925 5.173 11.172 4.926.247-.247-2.6-9.113-6.326-19.704-3.727-10.59-9.934-27.13-13.794-36.755-3.86-9.625-9.26-22-11.999-27.5-2.739-5.5-6.495-12.125-8.346-14.722-3.366-4.723-3.366-4.723 14.15-18 9.633-7.303 17.957-13.43 18.497-13.618.54-.186 3.255 4.42 6.033 10.237 2.779 5.816 7.66 18.57 10.846 28.34s7.527 24.85 9.647 33.513c2.119 8.662 4.092 15.748 4.385 15.746.293-.002 2.067-2.969 3.94-6.594 1.875-3.624 6.089-10.358 9.365-14.963 3.275-4.605 9.843-12.12 14.594-16.7 4.75-4.58 11.337-10.16 14.636-12.398 3.299-2.24 9.598-5.874 13.998-8.078 4.4-2.203 11.393-5.14 15.54-6.526 4.148-1.386 11.348-3.352 16-4.368 6.719-1.468 12.782-1.85 29.46-1.859 16.287-.008 23.202.406 30.814 1.844 8.913 1.684 9.91 2.097 10.845 4.5.604 1.553.766 5.744.392 10.146-.351 4.125-1.535 11.325-2.63 16-1.124 4.791-4.31 13.3-7.304 19.5-2.92 6.05-8.054 14.6-11.409 19-3.354 4.4-7.517 9.688-9.25 11.75-3.152 3.75-3.152 3.75-.183 3.75 1.633 0 7.414 1.123 12.847 2.497 5.433 1.373 12.605 3.834 15.938 5.469 3.333 1.635 9.008 5.204 12.61 7.93 3.603 2.728 8.222 6.904 10.266 9.282 2.044 2.377 5.765 7.395 8.269 11.15 2.504 3.756 6.336 10.869 8.515 15.807 2.179 4.938 5.455 14.916 7.28 22.172 1.825 7.256 4.132 18.368 5.128 24.693 1.385 8.802 1.81 17.249 1.808 36-.002 23.025-.166 25.227-2.72 36.581-1.496 6.645-4.108 16.26-5.806 21.368-1.697 5.107-4.652 12.945-6.565 17.418-1.914 4.473-6.166 12.858-9.449 18.633-3.283 5.775-8.86 14.55-12.393 19.5-3.532 4.95-10.558 13.868-15.613 19.818-5.054 5.95-13.284 14.597-18.29 19.215-5.005 4.618-13.71 11.984-19.345 16.369-5.635 4.384-14.41 10.55-19.5 13.704-5.09 3.153-12.04 6.998-15.443 8.545-3.404 1.547-8.129 3.244-10.5 3.77-2.372.528-6.112 1.136-8.312 1.353-2.2.217-6.487.048-9.527-.376zm26.527-16.29c6.05-2.989 15.275-8.453 20.5-12.144 5.225-3.69 13.182-9.827 17.683-13.637 4.5-3.811 13.32-12.257 19.598-18.77 6.278-6.512 14.611-16.092 18.517-21.288 3.906-5.197 9.454-13.233 12.33-17.859 2.875-4.625 7.801-13.81 10.947-20.41 3.146-6.6 7.297-16.95 9.226-23 1.928-6.05 4.218-14.6 5.088-19 .87-4.4 2.04-12.975 2.597-19.056.69-7.514.685-16.005-.013-26.5-.566-8.494-1.717-20.107-2.559-25.807-.841-5.7-2.63-14.595-3.973-19.768-1.344-5.173-4.004-13.273-5.91-18.001-1.907-4.728-5.494-11.85-7.973-15.827-2.478-3.976-7.398-10.112-10.931-13.635-3.534-3.524-8.908-7.9-11.942-9.727-3.034-1.826-8.591-4.383-12.35-5.682-3.76-1.299-10.66-2.887-15.335-3.529-4.986-.685-12.014-.89-17-.497-4.675.368-12.1 1.333-16.5 2.143-4.4.81-12.05 2.632-17 4.047-4.95 1.416-14.175 4.597-20.5 7.07-6.325 2.473-18.073 7.758-26.106 11.745-8.033 3.987-19.125 9.786-24.65 12.887-5.524 3.1-10.303 5.637-10.62 5.637-.318 0-6.1-3.65-12.85-8.11-6.751-4.46-17.674-10.747-24.274-13.97-6.6-3.222-16.206-7.252-21.346-8.956-5.14-1.703-12.718-3.742-16.838-4.53-4.12-.789-11.84-1.426-17.154-1.417-5.314.01-12.812.677-16.662 1.482-3.85.806-10.683 3.28-15.183 5.498-5.772 2.845-10.565 6.274-16.266 11.637-4.45 4.186-10.495 11.256-13.455 15.734-2.955 4.473-6.489 10.382-7.851 13.132-1.363 2.75-4.159 9.275-6.213 14.5-2.055 5.225-5.456 16.25-7.558 24.5-2.102 8.25-4.86 21.525-6.13 29.5-1.72 10.818-2.3 18.563-2.285 30.5.016 12.483.513 18.468 2.257 27.228 1.23 6.175 3.832 15.812 5.782 21.415 1.95 5.604 5.267 13.601 7.37 17.773 2.103 4.171 6.502 11.634 9.776 16.584 3.274 4.95 9.082 12.6 12.907 17 3.825 4.4 10.756 11.283 15.402 15.296 4.646 4.014 12.272 9.923 16.947 13.132 4.675 3.21 12.775 8.115 18 10.902 5.225 2.787 13.55 6.619 18.5 8.515 4.95 1.897 11.475 3.948 14.5 4.558 3.025.61 10.467 1.504 16.537 1.985 6.39.507 15.125.5 20.746-.017 5.34-.49 12.973-1.979 16.963-3.307 3.99-1.327 11.131-4.023 15.87-5.99 4.739-1.966 10.589-3.845 13-4.175 3.458-.472 5.651-.039 10.384 2.055 3.3 1.46 9.587 4.755 13.972 7.325 4.385 2.57 10.46 5.234 13.5 5.92 3.04.688 8.228 1.046 11.528.797 4.686-.354 8.41-1.643 17-5.888zm-14.5-91.21c-1.375-.251-5.65-1.167-9.5-2.035-3.85-.867-10.6-3.303-15-5.412-4.4-2.11-10.76-6.09-14.134-8.845-3.374-2.755-8.433-8.069-11.242-11.808-2.81-3.739-5.899-8.709-6.866-11.044-.967-2.336-1.983-4.243-2.258-4.24-.275.005-2.075 2.81-4 6.233-1.925 3.425-6.878 9.607-11.007 13.74-4.13 4.132-10.43 9.212-14 11.289-3.571 2.076-10.093 4.95-14.493 6.386-6.084 1.986-10.771 2.727-19.57 3.092-9.567.397-13.028.114-20-1.632-4.636-1.162-11.58-3.664-15.43-5.56-3.85-1.897-9.69-5.623-12.976-8.28-3.286-2.657-8.153-7.52-10.814-10.806-2.661-3.287-6.341-9.126-8.177-12.976-1.836-3.85-4.057-10.239-4.936-14.197C112.72 292.344 112 285.458 112 281s.719-11.344 1.597-15.303c.879-3.958 3.1-10.347 4.936-14.197 1.836-3.85 5.516-9.69 8.177-12.976 2.661-3.286 7.528-8.15 10.814-10.806 3.287-2.657 9.126-6.38 12.976-8.275 3.85-1.895 10.56-4.344 14.91-5.444C170.619 212.683 176.625 212 183 212s12.381.683 17.59 2c4.35 1.099 11.06 3.548 14.91 5.443 3.85 1.894 9.69 5.618 12.976 8.275 3.286 2.657 8.071 7.432 10.633 10.611 2.561 3.18 6.007 8.505 7.657 11.835 3 6.053 3 6.053 6.235-.015 1.78-3.338 5.705-8.799 8.725-12.135 3.02-3.337 8.38-8.13 11.913-10.65 3.534-2.522 9.448-5.852 13.143-7.4 3.695-1.548 10.527-3.584 15.183-4.524 6.125-1.236 10.962-1.547 17.5-1.126 4.97.32 12.403 1.536 16.519 2.702 4.116 1.166 10.54 3.727 14.278 5.69 3.736 1.964 9.963 6.505 13.837 10.092 3.873 3.586 8.864 9.203 11.09 12.482 2.227 3.278 5.08 8.497 6.34 11.597 1.259 3.1 3.006 9.103 3.88 13.338.875 4.235 1.591 10.362 1.591 13.615 0 3.252-1.08 10.169-2.399 15.37-1.32 5.2-3.766 12.12-5.438 15.378-1.671 3.257-5.095 8.506-7.609 11.664-2.514 3.158-7.154 7.799-10.312 10.313-3.158 2.514-8.831 6.15-12.606 8.078-3.776 1.93-10.276 4.38-14.446 5.446-4.17 1.067-11.206 2.128-15.636 2.358-4.43.23-9.179.213-10.554-.039zm22.39-12.37c4.241-1.085 10.923-3.66 14.849-5.723 4.385-2.304 9.678-6.291 13.727-10.34 3.987-3.987 8.025-9.328 10.226-13.527 2-3.816 4.399-9.863 5.33-13.438 1.256-4.83 1.569-9.069 1.215-16.5-.337-7.08-1.144-11.753-2.762-16-1.257-3.3-4.054-8.81-6.216-12.244-2.161-3.433-6.61-8.668-9.885-11.632-3.275-2.963-8.668-6.834-11.985-8.602-3.316-1.768-6.268-2.976-6.56-2.684-.292.291.472 1.572 1.696 2.846s3.388 4.791 4.807 7.816c2.013 4.288 2.578 7.042 2.567 12.5-.01 4.883-.633 8.376-2.062 11.55-1.127 2.504-3.494 6.198-5.261 8.21-1.767 2.013-5.77 4.915-8.894 6.45-4.685 2.3-6.998 2.79-13.182 2.79s-8.497-.49-13.182-2.79c-3.124-1.535-7.127-4.437-8.894-6.45-1.767-2.012-4.154-5.706-5.304-8.21-1.55-3.371-2.08-6.493-2.05-12.05.03-5.395.629-8.805 2.135-12.15 1.151-2.556 3.939-6.494 6.194-8.75 2.256-2.255 4.101-4.321 4.101-4.591 0-.27-3.038.64-6.75 2.025-3.712 1.384-9.802 4.588-13.533 7.12-3.73 2.532-8.736 6.908-11.125 9.725-2.388 2.816-5.747 7.629-7.463 10.694-1.716 3.066-4.022 9.1-5.125 13.41-1.102 4.31-1.996 10.352-1.987 13.427.01 3.074.665 8.644 1.456 12.377.79 3.733 2.901 9.808 4.69 13.5 2.309 4.767 5.583 9.042 11.294 14.75 4.956 4.951 10.423 9.282 14.245 11.282 3.41 1.786 9.486 4.107 13.5 5.159 4.014 1.051 10.714 1.937 14.888 1.967 4.46.032 10.77-.758 15.3-1.917zm-132.63-2.137c2.607-.623 7.995-2.667 11.974-4.542s9.888-5.618 13.132-8.317c3.244-2.7 7.948-7.991 10.452-11.759 2.505-3.767 5.764-10.432 7.242-14.811 2.107-6.24 2.696-9.908 2.727-16.962.024-5.733-.598-11.178-1.714-15-.964-3.3-3.377-9.102-5.362-12.894-2.11-4.03-6.159-9.431-9.744-13-3.374-3.358-9.012-7.793-12.528-9.856-3.516-2.063-7.05-3.75-7.853-3.75-1.01 0-.664.85 1.117 2.75 1.417 1.512 3.594 4.775 4.837 7.25 1.382 2.753 2.434 7.023 2.709 11 .351 5.081-.037 7.79-1.78 12.407-1.415 3.747-3.834 7.51-6.616 10.292-2.412 2.412-6.516 5.321-9.12 6.465-3.24 1.423-6.942 2.099-11.733 2.141-5.22.047-8.33-.521-12.227-2.234-2.926-1.286-7.038-4.262-9.34-6.759-2.26-2.453-5.01-6.494-6.11-8.98-1.367-3.09-2-6.694-2-11.393 0-5.29.603-8.19 2.615-12.584 1.438-3.14 4.515-7.466 6.838-9.613 4.21-3.889 4.214-3.9 1.224-3.207-1.65.383-6.255 2.232-10.234 4.11-3.979 1.878-9.856 5.597-13.061 8.264-3.205 2.667-7.935 7.941-10.512 11.72-2.576 3.78-5.576 9.418-6.665 12.53-1.09 3.113-2.477 8.85-3.082 12.75-.8 5.158-.8 9.024 0 14.182.605 3.9 1.992 9.637 3.082 12.75 1.09 3.112 4.089 8.75 6.665 12.53 2.577 3.779 7.412 9.141 10.746 11.916 3.333 2.776 9.3 6.585 13.26 8.466 3.96 1.881 10.484 4.044 14.5 4.807 4.122.782 10.462 1.185 14.56.925 3.994-.254 9.394-.97 12-1.594zm36.77-172.141c-.308-1.788-1.697-9.55-3.086-17.25-1.388-7.7-3.87-20.075-5.514-27.5-1.644-7.425-4.346-18.675-6.005-25-1.66-6.325-4.805-17.223-6.991-24.218-2.186-6.995-5.355-16.332-7.042-20.75C204.205 46.614 202.453 43 202 43c-.454 0-4.459 2.694-8.9 5.986-8.073 5.987-8.073 5.987-3.992 12.25 2.244 3.445 6.7 11.664 9.9 18.264 3.201 6.6 8.299 18.096 11.33 25.546 3.03 7.45 7.347 19.533 9.594 26.852 2.247 7.319 5.234 17.873 6.637 23.454 1.816 7.22 3.184 10.646 4.742 11.876 1.204.95 2.548 1.738 2.985 1.75.438.012.543-1.44.235-3.228zm28.462-9.746c7.681-3.848 17.913-8.635 22.737-10.638 4.824-2.003 12.596-4.952 17.271-6.553 4.675-1.601 13.723-4.199 20.107-5.772 6.384-1.574 14.26-3.175 17.5-3.56 5.57-.659 6.218-1.033 11.824-6.839 3.262-3.378 8.45-9.533 11.528-13.678 3.078-4.146 7.45-11.12 9.716-15.5 2.266-4.38 5.318-11.786 6.783-16.456 1.464-4.671 2.92-11.26 3.237-14.64.574-6.149.574-6.149-4.31-7.316-2.687-.642-11.872-1.423-20.412-1.735-11.855-.434-18.005-.176-26 1.09-5.76.912-13.623 2.588-17.473 3.724-3.85 1.136-11.114 4.03-16.143 6.433-5.028 2.402-12.688 7.039-17.022 10.305-4.334 3.266-9.945 8.145-12.47 10.843-2.523 2.699-6.609 7.65-9.078 11.005-2.469 3.354-6.599 10.183-9.177 15.175-2.578 4.991-5.781 11.982-7.118 15.534-2.431 6.458-2.431 6.458.136 19.766 1.412 7.32 2.734 13.87 2.938 14.558.204.688.616 1.25.916 1.25.3 0 6.83-3.148 14.51-6.996z" transform="matrix(.04712 0 0 .0471 -.026 -.044)"/></g></svg>
