<svg width="24" height="24" viewBox="0 -154 24 24" xml:space="preserve" xmlns:xlink="http://www.w3.org/1999/xlink" xmlns="http://www.w3.org/2000/svg"><defs><linearGradient id="a" x1="122" x2="122" y1="-40" y2="720" gradientTransform="matrix(1.14306 0 0 1.12141 -53.525 -23.205)" gradientUnits="userSpaceOnUse" spreadMethod="pad"><stop stop-color="#4371c1" offset="0" style="stop-color:#4371c1;stop-opacity:.99000001"/><stop stop-color="#2d4f8c" offset="1"/></linearGradient><linearGradient id="b" x1="122" x2="122" y1="-40" y2="720" gradientTransform="matrix(.0258 0 0 .0253 -.764 -150.6)" gradientUnits="userSpaceOnUse" xlink:href="#a"><stop stop-color="#4371c1" offset="0"/><stop stop-color="#2d4f8c" offset="1"/></linearGradient><linearGradient id="c" x1="983.1" x2="983.1" y1="25" y2="999" gradientTransform="matrix(1.096 0 0 1.05 -54.28 -179.7)" gradientUnits="userSpaceOnUse"><stop stop-color="#fff" offset="0"/><stop stop-color="#91b6f7" offset="1"/></linearGradient><filter id="d" x="-.113" y="-.113" width="1.249" height="1.249" color-interpolation-filters="sRGB"><feFlood flood-color="#000" flood-opacity=".733" result="flood"/><feComposite in="flood" in2="SourceGraphic" operator="in" result="composite1"/><feGaussianBlur in="composite1" result="blur" stdDeviation="40"/><feOffset dx="20" dy="20" result="offset"/><feComposite in="SourceGraphic" in2="offset" result="composite2"/></filter></defs><path style="display:inline;fill:url(#b);stroke-width:.0187869;paint-order:markers fill stroke" d="M2.422-134.164c.146 1.088 1.128 1.787 2.33 1.778 4.98-.016 10.138.002 15.117-.014 1.236-.313 1.768-1.168 1.749-2.348v-15.04c-.267-1.323-1.345-1.921-2.521-1.814l-14.894.005c-1.135.161-1.885 1.178-1.818 2.4" fill="url(#b)" fill-rule="evenodd"/><path style="display:inline;fill:url(#c)" d="M834.889-68.078c-2.859.07-5.73.2-8.621.463l-406.106.138L86.857 392.682l.643 265.2h517.084V783.87c85.725 0 171.62.033 255.902-.234 54.727-13.898 78.304-51.78 77.47-104.078L938 12.84c-10.924-53.994-52.24-80.682-99.363-80.918ZM605.418 145.049v283.058H382.301Z" filter="url(#d)" fill="url(#c)" transform="matrix(.02257 0 0 .02256 .436 -150.079)"/></svg>
