<svg xmlns="http://www.w3.org/2000/svg" viewBox="0 0 24 24" width="24" height="24"><path fill="#fe4d00" d="M23.787 9.761a11.897 11.897 0 0 0-.972-2.958 12.06 12.06 0 0 0-1.786-2.694 12.1 12.1 0 0 0-2.801-2.363A11.93 11.93 0 0 0 12 0a11.932 11.932 0 0 0-7.783 2.878 11.972 11.972 0 0 0 0 18.244A11.925 11.925 0 0 0 12.001 24a11.932 11.932 0 0 0 7.783-2.878 11.975 11.975 0 0 0 4.004-11.361zm-19.57 9.862C2.292 17.658 1.103 14.968 1.103 12s1.189-5.658 3.114-7.623v15.247zm12.453-7.549v9.773a10.85 10.85 0 0 1-4.67 1.05c-1.764 0-3.428-.422-4.902-1.166l8.794-2.857V15.6L7.33 18.382V2.153A10.85 10.85 0 0 1 12 1.103c1.72 0 3.346.4 4.793 1.11L8.108 5.035v3.274l2.335-.759v9.003l3.113-1.012V6.539l6.227-2.023.101-.033c.75.786 1.383 1.683 1.873 2.667l-7.421 2.411v3.274zm3.113 7.549v-8.561l2.946-.957a10.859 10.859 0 0 1-2.945 9.518z"/></svg>
