<svg width="24" height="24" viewBox="0 0 512 512" xml:space="preserve" xmlns="http://www.w3.org/2000/svg"><path d="M221.313 138.96c8.202 8.202 8.202 21.484 0 29.686-8.192 8.192-21.483 8.192-29.685 0-8.192-8.202-8.192-21.484 0-29.686 8.202-8.193 21.483-8.193 29.685 0zM383.06 301.646c8.202 8.202 8.202 21.484 0 29.686-8.192 8.192-21.484 8.192-29.675 0-8.203-8.202-8.203-21.484-.01-29.676 8.201-8.202 21.493-8.202 29.685-.01zm-130.7-28.898c8.202 8.192 8.202 21.484 0 29.686-8.202 8.192-21.483 8.192-29.685 0-8.192-8.192-8.192-21.484 0-29.676 8.202-8.202 21.483-8.202 29.685-.01zM0 256.005C0 114.608 114.614 0 255.995 0c67.767 0 129.38 26.338 175.172 69.326l-170.052 170.06c-19.568-9.545-43.847-6.186-60.108 10.076-20.5 20.49-20.5 53.72 0 74.21 20.49 20.491 53.708 20.491 74.208 0 16.138-16.138 19.568-40.182 10.28-59.68L454.8 94.681c35.758 44.033 57.2 100.17 57.2 161.314C512 397.392 397.386 512 256.005 512c-51.301 0-99.08-15.094-139.128-41.073l56.298-56.301h116.908l51.486-51.498c20.193 12.298 46.898 9.718 64.357-7.742 20.49-20.49 20.49-53.72 0-74.21-20.5-20.491-53.718-20.491-74.208 0-15.738 15.739-19.394 38.994-10.946 58.225l-43.745 43.747H160.12l-68.832 68.834a255.178 255.178 0 0 1-19.026-17.726l69.948-69.95V247.403l43.745-43.746c19.22 8.438 42.474 4.793 58.223-10.947 20.49-20.49 20.49-53.72 0-74.21-20.5-20.501-53.718-20.501-74.208 0-17.458 17.46-20.05 44.166-7.751 64.37l-51.496 51.498V351.28L51.7 410.305C19.25 367.398 0 313.945 0 256.005Z" style="display:inline;stroke-width:1.024;fill:#006eb6"/></svg>
