<svg viewBox="0 0 24 24" xml:space="preserve" width="24" height="24" xmlns:xlink="http://www.w3.org/1999/xlink" xmlns="http://www.w3.org/2000/svg"><defs><linearGradient id="a"><stop style="stop-color:#050709;stop-opacity:1" offset="0"/><stop style="stop-color:#0e384b;stop-opacity:1" offset="1"/></linearGradient><linearGradient xlink:href="#a" id="b" x1="0" y1="256" x2="512" y2="256" gradientUnits="userSpaceOnUse" spreadMethod="pad" gradientTransform="scale(.04688)"/><filter style="color-interpolation-filters:sRGB" id="c" x="-.004" y="-.007" width="1.009" height="1.014"><feGaussianBlur stdDeviation=".33"/></filter></defs><path style="display:inline;fill:url(#b);fill-opacity:1;stroke:none;stroke-width:0;stroke-linecap:butt;stroke-linejoin:round;stroke-dasharray:none;stroke-dashoffset:0;stroke-opacity:1;paint-order:markers fill stroke" d="M0 0h24v24H0Z"/><g style="font-weight:700;font-size:4301.08px;font-family:'Ubuntu Mono';-inkscape-font-specification:'Ubuntu Mono, Bold';display:inline;fill:#fff;stroke:#000;stroke-width:16;stroke-linejoin:round;paint-order:markers fill stroke;filter:url(#c)" transform="scale(.04688)"><path d="M192.435 220.994q1.325 6.294 3.975 15.569 2.65 9.275 5.632 20.538 3.312 11.263 6.956 24.183 3.975 12.919 7.62 26.5 0-17.225-.332-36.77-.331-19.875-.662-40.414-.332-20.538-.663-41.408-.331-21.2-.331-40.745h37.764q-.994 25.176-1.988 52.008-.994 26.501-2.319 53.002-1.325 26.17-3.312 51.678-1.657 25.507-3.975 48.364h-33.79q-7.287-20.87-14.575-44.72-7.288-24.183-14.576-46.046-7.287 20.87-15.238 45.383-7.95 24.513-14.575 45.383h-33.79q-2.65-22.857-4.637-48.364-1.988-25.839-3.644-52.009-1.325-26.501-2.319-53.002-.993-26.833-1.656-51.677h37.764q-.331 19.544-.662 40.414l-.663 41.74q-.331 20.538-.662 40.413-.332 19.545-.332 36.77 2.982-10.6 6.626-23.188 3.975-12.588 7.287-24.845 3.644-12.256 6.626-22.526 2.981-10.269 4.637-16.231zm138.468-74.866q17.557 0 31.801 3.975 14.245 3.975 24.514 12.257 10.269 8.281 15.57 21.2 5.63 12.589 5.63 29.814 0 17.889-7.287 32.464-7.288 14.576-24.182 22.195 5.631 8.613 11.925 19.213 6.294 10.27 12.257 21.864 5.963 11.263 11.263 22.857 5.631 11.263 9.606 21.532h-42.733q-7.619-19.876-17.888-38.095-9.938-18.551-21.532-37.433h-21.201v75.528h-40.745V151.43q5.962-1.326 12.919-2.32 7.288-1.325 14.575-1.656 7.288-.663 13.914-.994 6.625-.331 11.594-.331zm36.108 66.915q0-16.232-9.938-23.85-9.938-7.62-26.17-7.62-2.319 0-5.632.331-3.312 0-6.625.663v61.615h8.944q20.87 0 30.145-7.95 9.276-8.282 9.276-23.189z" style="font-size:331.264px;stroke-width:1.2323" aria-label="WR"/></g></svg>
