<svg viewBox="0 0 24 24" xml:space="preserve" width="24" height="24" xmlns="http://www.w3.org/2000/svg"><path style="fill:#549edb;fill-opacity:1;fill-rule:nonzero;stroke:none;stroke-width:.0699158" d="M19.09 13.294c-.056.05-.246.09-.396.132l-4.777 1.306c-.151.041-.273-.052-.273-.209V13.29a.282.282 0 0 0-.283-.283H8.117a.282.282 0 0 1-.282-.282V11.29a.283.283 0 0 0-.283-.283H5.035a.179.179 0 0 1-.18-.179c0-.057.024-.097.054-.125.057-.052.247-.093.398-.134l4.758-1.3c.15-.041.272.051.272.208v1.247a.283.283 0 0 0 .283.283h5.24a.284.284 0 0 1 .283.283v1.42c0 .157.127.284.282.284h2.542a.18.18 0 0 1 .18.179.157.157 0 0 1-.056.12m-2.948 2.287a.391.391 0 0 1-.273.357l-1.953.534c-.151.041-.273-.052-.273-.208v-.729c0-.156.127-.283.283-.283h1.933a.284.284 0 0 1 .283.283zm-5.81 1.587a.39.39 0 0 1-.272.357l-1.953.535c-.15.04-.273-.053-.273-.21v-3.758a.283.283 0 0 1 .283-.282h1.933a.283.283 0 0 1 .283.282zM7.836 8.459a.39.39 0 0 1 .273-.357l1.952-.533c.151-.043.274.051.274.207v.728a.283.283 0 0 1-.283.284H8.118a.283.283 0 0 1-.283-.284Zm5.809-1.587c0-.156.122-.316.273-.358l1.953-.533c.151-.042.273.052.273.208v3.758a.284.284 0 0 1-.283.284h-1.933a.283.283 0 0 1-.283-.284ZM12 0C5.384 0 0 5.384 0 12c0 6.617 5.384 12 12 12 6.618 0 12-5.383 12-12 0-6.616-5.382-12-12-12"/></svg>
